G04*
G04 #@! TF.GenerationSoftware,Altium Limited,Altium Designer,25.8.1 (18)*
G04*
G04 Layer_Color=65535*
%FSLAX44Y44*%
%MOMM*%
G71*
G04*
G04 #@! TF.SameCoordinates,F54E5B92-F0D5-4042-A45F-7CF7407C5741*
G04*
G04*
G04 #@! TF.FilePolarity,Positive*
G04*
G01*
G75*
%ADD10C,0.2500*%
%ADD11C,0.2000*%
%ADD12C,0.1270*%
%ADD13C,0.1524*%
%ADD14C,0.0508*%
%ADD15R,1.2700X0.2032*%
D10*
X407310Y41000D02*
G03*
X407310Y41000I-1250J0D01*
G01*
X409850Y168000D02*
G03*
X409850Y168000I-1250J0D01*
G01*
X205720Y214630D02*
G03*
X205720Y214630I-1250J0D01*
G01*
X75650Y230050D02*
G03*
X75650Y230050I-1250J0D01*
G01*
Y87850D02*
G03*
X75650Y87850I-1250J0D01*
G01*
D11*
X661060Y211500D02*
G03*
X661060Y211500I-1000J0D01*
G01*
X155940Y103632D02*
G03*
X155940Y103632I-1000J0D01*
G01*
X383060Y51250D02*
Y75750D01*
X324810Y93500D02*
X381310D01*
X323060Y51250D02*
Y75750D01*
X324810Y33500D02*
X381310D01*
X327350Y160500D02*
X383850D01*
X325600Y178250D02*
Y202750D01*
X327350Y220500D02*
X383850D01*
X385600Y178250D02*
Y202750D01*
X196770Y210395D02*
X201770D01*
Y205395D02*
Y210395D01*
X161770D02*
X166770D01*
X161770Y205395D02*
Y210395D01*
X196770Y170395D02*
X201770D01*
Y175395D01*
X161770Y170395D02*
X166770D01*
X161770D02*
Y175395D01*
X31900Y243800D02*
X44400D01*
X-4850D02*
X2400D01*
X-4850Y152400D02*
Y243800D01*
X31900Y152400D02*
X44400D01*
X-4850D02*
X2400D01*
X31900Y101600D02*
X44400D01*
X-4850D02*
X2400D01*
X-4850Y10200D02*
Y101600D01*
X31900Y10200D02*
X44400D01*
X-4850D02*
X2400D01*
X281940Y154700D02*
X288440D01*
Y161950D01*
X281940Y183700D02*
X288440D01*
Y176450D02*
Y183700D01*
X281940Y191240D02*
X288440D01*
Y198490D01*
X281940Y220240D02*
X288440D01*
Y212990D02*
Y220240D01*
D12*
X164338Y115570D02*
X183134D01*
X164338D02*
Y118364D01*
Y126492D01*
X183134D01*
Y115570D02*
Y126492D01*
X143764Y115570D02*
Y126492D01*
Y115570D02*
X162560D01*
Y123698D01*
Y126492D01*
X143764D02*
X162560D01*
X221742Y211328D02*
X240538D01*
X221742D02*
Y214122D01*
Y222250D01*
X240538D01*
Y211328D02*
Y222250D01*
X123305Y184171D02*
Y195093D01*
Y184171D02*
X142101D01*
Y192299D01*
Y195093D01*
X123305D02*
X142101D01*
X123305Y210454D02*
X142101D01*
Y207660D02*
Y210454D01*
Y199532D02*
Y207660D01*
X123305Y199532D02*
X142101D01*
X123305D02*
Y210454D01*
X129540Y132842D02*
X140462D01*
Y151638D01*
X132334D02*
X140462D01*
X129540D02*
X132334D01*
X129540Y132842D02*
Y151638D01*
X221742Y174498D02*
X240538D01*
Y171704D02*
Y174498D01*
Y163576D02*
Y171704D01*
X221742Y163576D02*
X240538D01*
X221742D02*
Y174498D01*
X240538Y134112D02*
Y145034D01*
X221742D02*
X240538D01*
X221742Y136906D02*
Y145034D01*
Y134112D02*
Y136906D01*
Y134112D02*
X240538D01*
X221742Y148844D02*
X240538D01*
X221742D02*
Y151638D01*
Y159766D01*
X240538D01*
Y148844D02*
Y159766D01*
X450033Y37434D02*
X460955D01*
Y56230D01*
X452827D02*
X460955D01*
X450033D02*
X452827D01*
X450033Y37434D02*
Y56230D01*
X461208Y204013D02*
Y222809D01*
X458414Y204013D02*
X461208D01*
X450286D02*
X458414D01*
X450286D02*
Y222809D01*
X461208D01*
X413496Y65532D02*
X424418D01*
Y84328D01*
X416290D02*
X424418D01*
X413496D02*
X416290D01*
X413496Y65532D02*
Y84328D01*
X480822Y208280D02*
X499618D01*
Y205486D02*
Y208280D01*
Y197358D02*
Y205486D01*
X480822Y197358D02*
X499618D01*
X480822D02*
Y208280D01*
X247396Y170688D02*
X258318D01*
X247396Y151892D02*
Y170688D01*
Y151892D02*
X255524D01*
X258318D01*
Y170688D01*
X480822Y221996D02*
X499618D01*
Y219202D02*
Y221996D01*
Y211074D02*
Y219202D01*
X480822Y211074D02*
X499618D01*
X480822D02*
Y221996D01*
X526034Y33020D02*
Y43942D01*
X507238D02*
X526034D01*
X507238Y35814D02*
Y43942D01*
Y33020D02*
Y35814D01*
Y33020D02*
X526034D01*
X532635Y44075D02*
X551431D01*
Y41281D02*
Y44075D01*
Y33153D02*
Y41281D01*
X532635Y33153D02*
X551431D01*
X532635D02*
Y44075D01*
X247142Y201422D02*
X258064D01*
Y220218D01*
X249936D02*
X258064D01*
X247142D02*
X249936D01*
X247142Y201422D02*
Y220218D01*
X361952Y122682D02*
X380748D01*
X361952D02*
Y125476D01*
Y133604D01*
X380748D01*
Y122682D02*
Y133604D01*
X358648Y122682D02*
Y133604D01*
X339852D02*
X358648D01*
X339852Y125476D02*
Y133604D01*
Y122682D02*
Y125476D01*
Y122682D02*
X358648D01*
X361952Y102365D02*
X380748D01*
X361952D02*
Y105159D01*
Y113287D01*
X380748D01*
Y102365D02*
Y113287D01*
X358648Y102365D02*
Y113287D01*
X339852D02*
X358648D01*
X339852Y105159D02*
Y113287D01*
Y102365D02*
Y105159D01*
Y102365D02*
X358648D01*
X97276Y55118D02*
Y73914D01*
X100070D01*
X108198D01*
Y55118D02*
Y73914D01*
X97276Y55118D02*
X108198D01*
X97536Y47498D02*
X108458D01*
X97536Y28702D02*
Y47498D01*
Y28702D02*
X105664D01*
X108458D01*
Y47498D01*
X109728Y176022D02*
Y194818D01*
X106934Y176022D02*
X109728D01*
X98806D02*
X106934D01*
X98806D02*
Y194818D01*
X109728D01*
X98552Y201422D02*
X109474D01*
Y220218D01*
X101346D02*
X109474D01*
X98552D02*
X101346D01*
X98552Y201422D02*
Y220218D01*
X659966Y216675D02*
Y227851D01*
X679270D01*
X659966Y216675D02*
X679270D01*
Y227851D01*
X84455Y104140D02*
Y149860D01*
Y104140D02*
X106045D01*
Y149860D01*
X84455D02*
X106045D01*
X242720Y108882D02*
Y130471D01*
X275740D01*
Y108882D02*
Y130471D01*
X242720Y108882D02*
X275740D01*
X728310Y50000D02*
Y204000D01*
X677810Y50000D02*
X728310D01*
X523310D02*
Y204000D01*
X677810D02*
X728310D01*
X611905Y216675D02*
Y227851D01*
X631209D01*
X611905Y216675D02*
X631209D01*
Y227851D01*
X142439Y214264D02*
Y225440D01*
X123135Y214264D02*
X142439D01*
X123135Y225440D02*
X142439D01*
X123135Y214264D02*
Y225440D01*
X655687Y216675D02*
Y227851D01*
X636383Y216675D02*
X655687D01*
X636383Y227851D02*
X655687D01*
X636383Y216675D02*
Y227851D01*
X215620Y93760D02*
Y106160D01*
X180620D02*
X215620D01*
Y41160D02*
Y53560D01*
X180620Y41160D02*
X215620D01*
X120142Y154432D02*
Y165608D01*
X100838Y154432D02*
X120142D01*
X100838Y165608D02*
X120142D01*
X100838Y154432D02*
Y165608D01*
X121412Y88392D02*
Y99568D01*
X102108Y88392D02*
X121412D01*
X102108Y99568D02*
X121412D01*
X102108Y88392D02*
Y99568D01*
X414782Y183642D02*
X425958D01*
Y164338D02*
Y183642D01*
X414782Y164338D02*
Y183642D01*
Y164338D02*
X425958D01*
X122797Y169007D02*
Y180183D01*
X142101D01*
X122797Y169007D02*
X142101D01*
Y180183D01*
X659968Y29972D02*
Y41148D01*
X679272D01*
X659968Y29972D02*
X679272D01*
Y41148D01*
X164338Y145542D02*
Y156718D01*
X183642D01*
X164338Y145542D02*
X183642D01*
Y156718D01*
Y130556D02*
Y141732D01*
X164338Y130556D02*
X183642D01*
X164338Y141732D02*
X183642D01*
X164338Y130556D02*
Y141732D01*
X240792Y196342D02*
Y207518D01*
X221488Y196342D02*
X240792D01*
X221488Y207518D02*
X240792D01*
X221488Y196342D02*
Y207518D01*
X144272Y132588D02*
X155448D01*
X144272D02*
Y151892D01*
X155448Y132588D02*
Y151892D01*
X144272D02*
X155448D01*
X126283Y45464D02*
X137459D01*
X126283D02*
Y64768D01*
X137459Y45464D02*
Y64768D01*
X126283D02*
X137459D01*
X141269Y45158D02*
X152445D01*
X141269D02*
Y64462D01*
X152445Y45158D02*
Y64462D01*
X141269D02*
X152445D01*
X140462Y102362D02*
X151638D01*
Y83058D02*
Y102362D01*
X140462Y83058D02*
Y102362D01*
Y83058D02*
X151638D01*
X413512Y42418D02*
X424688D01*
X413512D02*
Y61722D01*
X424688Y42418D02*
Y61722D01*
X413512D02*
X424688D01*
D13*
X91378Y200832D02*
Y216326D01*
X80202Y200832D02*
X91378D01*
X80202D02*
Y216326D01*
X91378D01*
X80202Y179480D02*
Y194974D01*
X91378D01*
Y179480D02*
Y194974D01*
X80202Y179480D02*
X91378D01*
X78740Y88392D02*
Y99568D01*
Y88392D02*
X94234D01*
Y99568D01*
X78740D02*
X94234D01*
X80202Y31342D02*
X91378D01*
Y46836D01*
X80202D02*
X91378D01*
X80202Y31342D02*
Y46836D01*
Y66541D02*
X91378D01*
X80202Y51047D02*
Y66541D01*
Y51047D02*
X91378D01*
Y66541D01*
X78740Y154432D02*
Y165608D01*
Y154432D02*
X94234D01*
Y165608D01*
X78740D02*
X94234D01*
X445770Y199898D02*
Y223012D01*
X433324Y199898D02*
X445770D01*
X433324D02*
Y223012D01*
X445770D01*
X433650Y37808D02*
Y60922D01*
X446096D01*
Y37808D02*
Y60922D01*
X433650Y37808D02*
X446096D01*
X374396Y145799D02*
Y155956D01*
X369318D01*
X367625Y154263D01*
Y152570D01*
X369318Y150878D01*
X374396D01*
X369318D01*
X367625Y149185D01*
Y147492D01*
X369318Y145799D01*
X374396D01*
X359161D02*
X362547D01*
X364239Y147492D01*
Y154263D01*
X362547Y155956D01*
X359161D01*
X357468Y154263D01*
Y147492D01*
X359161Y145799D01*
X349004D02*
X352390D01*
X354083Y147492D01*
Y154263D01*
X352390Y155956D01*
X349004D01*
X347311Y154263D01*
Y147492D01*
X349004Y145799D01*
X343926D02*
X337155D01*
X340540D01*
Y155956D01*
X302006Y39624D02*
X291849D01*
Y44702D01*
X293542Y46395D01*
X296928D01*
X298620Y44702D01*
Y39624D01*
Y43010D02*
X302006Y46395D01*
X291849Y56552D02*
Y49781D01*
X302006D01*
Y56552D01*
X296928Y49781D02*
Y53166D01*
X293542Y66709D02*
X291849Y65016D01*
Y61630D01*
X293542Y59937D01*
X295235D01*
X296928Y61630D01*
Y65016D01*
X298620Y66709D01*
X300313D01*
X302006Y65016D01*
Y61630D01*
X300313Y59937D01*
X291849Y76865D02*
Y70094D01*
X302006D01*
Y76865D01*
X296928Y70094D02*
Y73480D01*
X291849Y80251D02*
Y87022D01*
Y83637D01*
X302006D01*
X475231Y50548D02*
Y53933D01*
X473538Y55626D01*
X466767D01*
X465074Y53933D01*
Y50548D01*
X466767Y48855D01*
X473538D01*
X475231Y50548D01*
X465074Y45469D02*
X475231D01*
X465074Y38698D01*
X475231D01*
Y223266D02*
X466767D01*
X465074Y221573D01*
Y218188D01*
X466767Y216495D01*
X475231D01*
X473538Y206338D02*
X475231Y208031D01*
Y211416D01*
X473538Y213109D01*
X471845D01*
X470152Y211416D01*
Y208031D01*
X468460Y206338D01*
X466767D01*
X465074Y208031D01*
Y211416D01*
X466767Y213109D01*
X475231Y196181D02*
Y202953D01*
X465074D01*
Y196181D01*
X470152Y202953D02*
Y199567D01*
X465074Y192796D02*
X475231D01*
Y187717D01*
X473538Y186025D01*
X470152D01*
X468460Y187717D01*
Y192796D01*
Y189410D02*
X465074Y186025D01*
X595035Y39621D02*
X591650D01*
X593342D01*
Y31157D01*
X591650Y29464D01*
X589957D01*
X588264Y31157D01*
X605192Y29464D02*
X598421D01*
X605192Y36235D01*
Y37928D01*
X603499Y39621D01*
X600113D01*
X598421Y37928D01*
X285498Y98044D02*
Y104815D01*
X282112Y101430D02*
X288883D01*
X282112Y108201D02*
X280419Y109894D01*
Y113279D01*
X282112Y114972D01*
X283805D01*
X285498Y113279D01*
Y111586D01*
Y113279D01*
X287190Y114972D01*
X288883D01*
X290576Y113279D01*
Y109894D01*
X288883Y108201D01*
X290576Y118357D02*
X288883D01*
Y120050D01*
X290576D01*
Y118357D01*
X282112Y126821D02*
X280419Y128514D01*
Y131900D01*
X282112Y133593D01*
X283805D01*
X285498Y131900D01*
Y130207D01*
Y131900D01*
X287190Y133593D01*
X288883D01*
X290576Y131900D01*
Y128514D01*
X288883Y126821D01*
X237236Y103124D02*
X227079D01*
Y108202D01*
X228772Y109895D01*
X232158D01*
X233850Y108202D01*
Y103124D01*
Y106510D02*
X237236Y109895D01*
X227079Y120052D02*
Y113281D01*
X237236D01*
Y120052D01*
X232158Y113281D02*
Y116666D01*
X228772Y130209D02*
X227079Y128516D01*
Y125130D01*
X228772Y123437D01*
X235543D01*
X237236Y125130D01*
Y128516D01*
X235543Y130209D01*
X232158D01*
Y126823D01*
X117515Y116668D02*
X115822Y118361D01*
X112437D01*
X110744Y116668D01*
Y109897D01*
X112437Y108204D01*
X115822D01*
X117515Y109897D01*
X127672Y108204D02*
X120901D01*
X127672Y114975D01*
Y116668D01*
X125979Y118361D01*
X122593D01*
X120901Y116668D01*
X51054Y127252D02*
X57825D01*
X54440Y130638D02*
Y123867D01*
X67982Y132331D02*
X61211D01*
Y127252D01*
X64596Y128945D01*
X66289D01*
X67982Y127252D01*
Y123867D01*
X66289Y122174D01*
X62903D01*
X61211Y123867D01*
X71367Y132331D02*
Y125560D01*
X74753Y122174D01*
X78139Y125560D01*
Y132331D01*
X117515Y144608D02*
X115822Y146301D01*
X112437D01*
X110744Y144608D01*
Y137837D01*
X112437Y136144D01*
X115822D01*
X117515Y137837D01*
X120901Y136144D02*
X124286D01*
X122593D01*
Y146301D01*
X120901Y144608D01*
X13375Y120901D02*
X6604D01*
Y110744D01*
X13375D01*
X6604Y115822D02*
X9990D01*
X23532Y119208D02*
X21839Y120901D01*
X18454D01*
X16761Y119208D01*
Y117515D01*
X18454Y115822D01*
X21839D01*
X23532Y114130D01*
Y112437D01*
X21839Y110744D01*
X18454D01*
X16761Y112437D01*
X26917Y110744D02*
Y120901D01*
X31996D01*
X33689Y119208D01*
Y115822D01*
X31996Y114130D01*
X26917D01*
X6604Y143761D02*
Y135297D01*
X8297Y133604D01*
X11682D01*
X13375Y135297D01*
Y143761D01*
X16761Y133604D02*
Y140375D01*
X20146Y143761D01*
X23532Y140375D01*
Y133604D01*
Y138682D01*
X16761D01*
X26917Y133604D02*
Y143761D01*
X31996D01*
X33689Y142068D01*
Y138682D01*
X31996Y136990D01*
X26917D01*
X30303D02*
X33689Y133604D01*
X37074Y143761D02*
X43845D01*
X40460D01*
Y133604D01*
D14*
X367319Y119150D02*
X366726D01*
X366430Y118854D01*
Y117669D01*
X366726Y117373D01*
X367319D01*
X367615Y117669D01*
Y118854D01*
X367319Y119150D01*
X370874D02*
X370281D01*
X369985Y118854D01*
Y117669D01*
X370281Y117373D01*
X370874D01*
X371170Y117669D01*
Y118854D01*
X370874Y119150D01*
X371762D02*
Y117373D01*
Y118261D01*
X372059Y118558D01*
X372651D01*
X372947Y118261D01*
Y117373D01*
X373540D02*
Y118558D01*
X373836D01*
X374132Y118261D01*
Y117373D01*
Y118261D01*
X374428Y118558D01*
X374725Y118261D01*
Y117373D01*
X159639Y112521D02*
X159046D01*
X158750Y112225D01*
Y111040D01*
X159046Y110744D01*
X159639D01*
X159935Y111040D01*
Y112225D01*
X159639Y112521D01*
X163194D02*
X162601D01*
X162305Y112225D01*
Y111040D01*
X162601Y110744D01*
X163194D01*
X163490Y111040D01*
Y112225D01*
X163194Y112521D01*
X164082D02*
Y110744D01*
Y111633D01*
X164379Y111929D01*
X164971D01*
X165267Y111633D01*
Y110744D01*
X165860D02*
Y111929D01*
X166156D01*
X166452Y111633D01*
Y110744D01*
Y111633D01*
X166748Y111929D01*
X167045Y111633D01*
Y110744D01*
D15*
X439674Y221998D02*
D03*
X439746Y38826D02*
D03*
M02*
