G04*
G04 #@! TF.GenerationSoftware,Altium Limited,Altium Designer,25.8.1 (18)*
G04*
G04 Layer_Physical_Order=3*
G04 Layer_Color=32768*
%FSLAX44Y44*%
%MOMM*%
G71*
G04*
G04 #@! TF.SameCoordinates,F54E5B92-F0D5-4042-A45F-7CF7407C5741*
G04*
G04*
G04 #@! TF.FilePolarity,Negative*
G04*
G01*
G75*
%ADD53C,1.7272*%
%ADD76C,0.0025*%
%ADD77C,2.0320*%
%AMTHOVALD78*
21,1,1.2000,2.1240,0,0,360.0*
1,1,2.1240,-0.6000,0.0000*
1,1,2.1240,0.6000,0.0000*
21,0,1.2000,1.6160,0,0,360.0*
1,0,1.6160,-0.6000,0.0000*
1,0,1.6160,0.6000,0.0000*
4,0,4,-0.4204,-0.1796,-1.1713,-0.9306,-1.5306,-0.5713,-0.7796,0.1796,-0.4204,-0.1796,0.0*
4,0,4,0.7796,-0.1796,1.5306,0.5713,1.1713,0.9306,0.4204,0.1796,0.7796,-0.1796,0.0*
4,0,4,-0.7796,-0.1796,-1.5306,0.5713,-1.1713,0.9306,-0.4204,0.1796,-0.7796,-0.1796,0.0*
4,0,4,0.4204,-0.1796,1.1713,-0.9306,1.5306,-0.5713,0.7796,0.1796,0.4204,-0.1796,0.0*
%
%ADD78THOVALD78*%

%AMTHOVALD79*
21,1,0.8000,2.1240,0,0,360.0*
1,1,2.1240,-0.4000,0.0000*
1,1,2.1240,0.4000,0.0000*
21,0,0.8000,1.6160,0,0,360.0*
1,0,1.6160,-0.4000,0.0000*
1,0,1.6160,0.4000,0.0000*
4,0,4,-0.2204,-0.1796,-0.9713,-0.9306,-1.3306,-0.5713,-0.5796,0.1796,-0.2204,-0.1796,0.0*
4,0,4,0.5796,-0.1796,1.3306,0.5713,0.9713,0.9306,0.2204,0.1796,0.5796,-0.1796,0.0*
4,0,4,-0.5796,-0.1796,-1.3306,0.5713,-0.9713,0.9306,-0.2204,0.1796,-0.5796,-0.1796,0.0*
4,0,4,0.2204,-0.1796,0.9713,-0.9306,1.3306,-0.5713,0.5796,0.1796,0.2204,-0.1796,0.0*
%
%ADD79THOVALD79*%

G04:AMPARAMS|DCode=80|XSize=2.54mm|YSize=2.54mm|CornerRadius=0mm|HoleSize=0mm|Usage=FLASHONLY|Rotation=0.000|XOffset=0mm|YOffset=0mm|HoleType=Round|Shape=Relief|Width=0.508mm|Gap=0.254mm|Entries=4|*
%AMTHD80*
7,0,0,2.5400,2.0320,0.5080,45*
%
%ADD80THD80*%
%ADD81C,1.3208*%
D53*
X265580Y119677D02*
D03*
X95250Y114300D02*
D03*
Y127000D02*
D03*
Y139700D02*
D03*
X252880Y119677D02*
D03*
D76*
X0Y0D02*
Y254000D01*
X685800D01*
Y0D02*
Y254000D01*
X0Y0D02*
X685800D01*
D77*
X647700Y241300D02*
D03*
X673100Y12700D02*
D03*
X622300Y241300D02*
D03*
X571500D02*
D03*
X139700D02*
D03*
X88900D02*
D03*
X546100D02*
D03*
X368300D02*
D03*
X469900D02*
D03*
X292100D02*
D03*
X215900D02*
D03*
X393700D02*
D03*
X317500D02*
D03*
X495300D02*
D03*
X419100D02*
D03*
X241300D02*
D03*
X596900D02*
D03*
X342900D02*
D03*
X165100D02*
D03*
X520700D02*
D03*
X266700D02*
D03*
X444500D02*
D03*
X190500D02*
D03*
X165100Y12700D02*
D03*
X190500D02*
D03*
X393700D02*
D03*
X114300D02*
D03*
X520700D02*
D03*
X495300D02*
D03*
X266700D02*
D03*
X419100D02*
D03*
X546100D02*
D03*
X342900D02*
D03*
X139700D02*
D03*
X571500D02*
D03*
X444500D02*
D03*
X292100D02*
D03*
X368300D02*
D03*
X215900D02*
D03*
X596900D02*
D03*
X317500D02*
D03*
X469900D02*
D03*
X241300D02*
D03*
X622300D02*
D03*
D78*
X17150D02*
D03*
Y99100D02*
D03*
Y154900D02*
D03*
Y241300D02*
D03*
D79*
X57150Y12700D02*
D03*
Y99100D02*
D03*
Y154900D02*
D03*
Y241300D02*
D03*
D80*
X88900Y12700D02*
D03*
X114300Y241300D02*
D03*
X647700Y12700D02*
D03*
X673100Y241300D02*
D03*
D81*
X312420Y123190D02*
D03*
X119380Y57150D02*
D03*
X155956Y165862D02*
D03*
X215392Y202253D02*
D03*
X197629Y217603D02*
D03*
X461010Y194310D02*
D03*
X645922Y213106D02*
D03*
X429260Y78740D02*
D03*
X455621Y61921D02*
D03*
X676910Y45720D02*
D03*
X187977Y120903D02*
D03*
X365740Y214476D02*
D03*
X443230Y177546D02*
D03*
X442161Y157728D02*
D03*
X431800Y137160D02*
D03*
X441960Y147320D02*
D03*
X445262Y79502D02*
D03*
X656336Y71120D02*
D03*
X412750Y113030D02*
D03*
X444500Y120110D02*
D03*
X421371D02*
D03*
X147320Y39370D02*
D03*
X135890Y127000D02*
D03*
X117236Y189505D02*
D03*
X116840Y204470D02*
D03*
X78236Y198120D02*
D03*
X92710D02*
D03*
X119380Y46990D02*
D03*
X312420Y113030D02*
D03*
X171450Y31750D02*
D03*
X184150D02*
D03*
X387350Y107953D02*
D03*
X387350Y128270D02*
D03*
X474726Y181438D02*
D03*
X431777Y179301D02*
D03*
X447198Y185262D02*
D03*
X217574Y178966D02*
D03*
X464820Y102362D02*
D03*
X476250D02*
D03*
X484274Y85956D02*
D03*
X514350Y94488D02*
D03*
X504190Y93980D02*
D03*
X492760Y91440D02*
D03*
X553316Y29614D02*
D03*
X541020Y95250D02*
D03*
X549910Y90170D02*
D03*
X557928Y81947D02*
D03*
X617474Y172974D02*
D03*
X541152Y182730D02*
D03*
X626164Y81788D02*
D03*
X600528Y72390D02*
D03*
X609164Y81788D02*
D03*
X583528Y72390D02*
D03*
X592164Y81788D02*
D03*
X566528Y72390D02*
D03*
X575164Y81788D02*
D03*
X558170Y182476D02*
D03*
X549534Y173078D02*
D03*
X575092Y181610D02*
D03*
X566456Y172212D02*
D03*
X592092Y181610D02*
D03*
X583456Y172212D02*
D03*
X600456D02*
D03*
X609092Y181610D02*
D03*
X626110Y182880D02*
D03*
M02*
