G04*
G04 #@! TF.GenerationSoftware,Altium Limited,Altium Designer,25.8.1 (18)*
G04*
G04 Layer_Physical_Order=1*
G04 Layer_Color=255*
%FSLAX44Y44*%
%MOMM*%
G71*
G04*
G04 #@! TF.SameCoordinates,F54E5B92-F0D5-4042-A45F-7CF7407C5741*
G04*
G04*
G04 #@! TF.FilePolarity,Positive*
G04*
G01*
G75*
%ADD13C,0.1524*%
%ADD17R,1.5500X1.3000*%
%ADD18R,0.5400X0.6000*%
%ADD19R,0.6000X0.5400*%
%ADD20R,1.1500X0.3000*%
%ADD21R,0.6000X0.3500*%
%ADD22R,0.8000X0.4000*%
G04:AMPARAMS|DCode=23|XSize=0.2425mm|YSize=0.8397mm|CornerRadius=0.1212mm|HoleSize=0mm|Usage=FLASHONLY|Rotation=270.000|XOffset=0mm|YOffset=0mm|HoleType=Round|Shape=RoundedRectangle|*
%AMROUNDEDRECTD23*
21,1,0.2425,0.5972,0,0,270.0*
21,1,0.0000,0.8397,0,0,270.0*
1,1,0.2425,-0.2986,0.0000*
1,1,0.2425,-0.2986,0.0000*
1,1,0.2425,0.2986,0.0000*
1,1,0.2425,0.2986,0.0000*
%
%ADD23ROUNDEDRECTD23*%
G04:AMPARAMS|DCode=24|XSize=0.8397mm|YSize=0.2425mm|CornerRadius=0.1212mm|HoleSize=0mm|Usage=FLASHONLY|Rotation=270.000|XOffset=0mm|YOffset=0mm|HoleType=Round|Shape=RoundedRectangle|*
%AMROUNDEDRECTD24*
21,1,0.8397,0.0000,0,0,270.0*
21,1,0.5972,0.2425,0,0,270.0*
1,1,0.2425,0.0000,-0.2986*
1,1,0.2425,0.0000,0.2986*
1,1,0.2425,0.0000,0.2986*
1,1,0.2425,0.0000,-0.2986*
%
%ADD24ROUNDEDRECTD24*%
%ADD25R,0.2425X0.8397*%
G04:AMPARAMS|DCode=26|XSize=0.54mm|YSize=0.6mm|CornerRadius=0.0675mm|HoleSize=0mm|Usage=FLASHONLY|Rotation=0.000|XOffset=0mm|YOffset=0mm|HoleType=Round|Shape=RoundedRectangle|*
%AMROUNDEDRECTD26*
21,1,0.5400,0.4650,0,0,0.0*
21,1,0.4050,0.6000,0,0,0.0*
1,1,0.1350,0.2025,-0.2325*
1,1,0.1350,-0.2025,-0.2325*
1,1,0.1350,-0.2025,0.2325*
1,1,0.1350,0.2025,0.2325*
%
%ADD26ROUNDEDRECTD26*%
%ADD27R,0.4000X0.8000*%
%ADD28R,1.1500X0.6000*%
%ADD29R,0.3500X0.6000*%
G04:AMPARAMS|DCode=30|XSize=0.54mm|YSize=0.6mm|CornerRadius=0.0675mm|HoleSize=0mm|Usage=FLASHONLY|Rotation=270.000|XOffset=0mm|YOffset=0mm|HoleType=Round|Shape=RoundedRectangle|*
%AMROUNDEDRECTD30*
21,1,0.5400,0.4650,0,0,270.0*
21,1,0.4050,0.6000,0,0,270.0*
1,1,0.1350,-0.2325,-0.2025*
1,1,0.1350,-0.2325,0.2025*
1,1,0.1350,0.2325,0.2025*
1,1,0.1350,0.2325,-0.2025*
%
%ADD30ROUNDEDRECTD30*%
%ADD31R,2.1500X0.9500*%
%ADD32R,2.1500X3.2500*%
%ADD33R,0.7000X0.6000*%
%ADD34R,0.8000X0.8000*%
%ADD35R,1.2000X1.2000*%
%ADD36R,1.3571X0.5721*%
G04:AMPARAMS|DCode=37|XSize=1.3571mm|YSize=0.5721mm|CornerRadius=0.2861mm|HoleSize=0mm|Usage=FLASHONLY|Rotation=0.000|XOffset=0mm|YOffset=0mm|HoleType=Round|Shape=RoundedRectangle|*
%AMROUNDEDRECTD37*
21,1,1.3571,0.0000,0,0,0.0*
21,1,0.7850,0.5721,0,0,0.0*
1,1,0.5721,0.3925,0.0000*
1,1,0.5721,-0.3925,0.0000*
1,1,0.5721,-0.3925,0.0000*
1,1,0.5721,0.3925,0.0000*
%
%ADD37ROUNDEDRECTD37*%
%ADD42R,2.0500X2.0500*%
G04:AMPARAMS|DCode=55|XSize=1mm|YSize=2.2mm|CornerRadius=0.5mm|HoleSize=0mm|Usage=FLASHONLY|Rotation=270.000|XOffset=0mm|YOffset=0mm|HoleType=Round|Shape=RoundedRectangle|*
%AMROUNDEDRECTD55*
21,1,1.0000,1.2000,0,0,270.0*
21,1,0.0000,2.2000,0,0,270.0*
1,1,1.0000,-0.6000,0.0000*
1,1,1.0000,-0.6000,0.0000*
1,1,1.0000,0.6000,0.0000*
1,1,1.0000,0.6000,0.0000*
%
%ADD55ROUNDEDRECTD55*%
G04:AMPARAMS|DCode=56|XSize=1mm|YSize=1.8mm|CornerRadius=0.5mm|HoleSize=0mm|Usage=FLASHONLY|Rotation=270.000|XOffset=0mm|YOffset=0mm|HoleType=Round|Shape=RoundedRectangle|*
%AMROUNDEDRECTD56*
21,1,1.0000,0.8000,0,0,270.0*
21,1,0.0000,1.8000,0,0,270.0*
1,1,1.0000,-0.4000,0.0000*
1,1,1.0000,-0.4000,0.0000*
1,1,1.0000,0.4000,0.0000*
1,1,1.0000,0.4000,0.0000*
%
%ADD56ROUNDEDRECTD56*%
%ADD59R,0.4000X0.4000*%
%ADD60C,0.3810*%
%ADD61C,0.1532*%
%ADD62C,0.2596*%
%ADD63C,0.2591*%
%ADD64C,0.5080*%
%ADD65C,0.3048*%
%ADD66C,0.1582*%
%ADD67C,1.0160*%
%ADD68C,1.6256*%
%ADD69R,1.6256X1.6256*%
%ADD70R,1.0160X1.0160*%
%ADD71R,1.0160X1.0160*%
%ADD72C,0.6096*%
G36*
X645052Y224588D02*
Y219938D01*
X645302Y218684D01*
X646012Y217620D01*
X647076Y216910D01*
X648180Y216690D01*
X650240Y214630D01*
X650240Y211527D01*
X648444Y209731D01*
X642439D01*
X640080Y212090D01*
Y215900D01*
X637540Y218440D01*
X624521D01*
X622540Y219938D01*
Y224588D01*
X624837Y226060D01*
X642958D01*
X645052Y224588D01*
D02*
G37*
G36*
X229616Y199644D02*
X209423D01*
Y201803D01*
Y213741D01*
X215646Y219964D01*
X229616D01*
Y199644D01*
D02*
G37*
G36*
X155194Y169672D02*
X157716Y169672D01*
X159512Y167876D01*
X159512Y164313D01*
X157712Y162521D01*
X135945Y162607D01*
X126746Y153408D01*
Y142494D01*
X128270Y140970D01*
X138430D01*
Y134620D01*
X128270D01*
X122174Y140716D01*
X122174Y155194D01*
X134818Y167838D01*
X133350Y169307D01*
Y171858D01*
X133432Y172270D01*
Y176920D01*
X135351Y178562D01*
X146304D01*
X155194Y169672D01*
D02*
G37*
G36*
X635000Y94234D02*
X565658D01*
Y158750D01*
X635000D01*
Y94234D01*
D02*
G37*
G36*
X284734Y89862D02*
Y57404D01*
X271780Y44450D01*
X219287D01*
X193887Y59690D01*
X155575D01*
X151574Y56134D01*
X126125D01*
X125510Y56967D01*
Y82804D01*
X133350Y91440D01*
X153670D01*
X158750Y86360D01*
X195580D01*
X212090Y102870D01*
X271726D01*
X284734Y89862D01*
D02*
G37*
D13*
X144753Y29210D02*
X151384D01*
X161036Y38862D02*
X194908D01*
X151384Y29210D02*
X161036Y38862D01*
X139700Y24157D02*
X144753Y29210D01*
X205576Y28194D02*
X475234D01*
X194908Y38862D02*
X205576Y28194D01*
X475234D02*
X482600Y35560D01*
X537510Y38691D02*
X537713Y38487D01*
X537510Y38691D02*
Y42880D01*
X532130Y48260D02*
X537510Y42880D01*
X243436Y185824D02*
X251610D01*
X216154D02*
X243436D01*
X252730Y176530D01*
Y165610D02*
Y176530D01*
X200925Y195395D02*
X213869D01*
X215727D01*
X220218Y190904D01*
X191770Y214630D02*
X194062Y216922D01*
X191770Y209550D02*
Y214630D01*
X196949Y216922D02*
X197629Y217603D01*
X194062Y216922D02*
X196949D01*
X163576Y217932D02*
X163950Y217558D01*
X178682D01*
X181770Y209550D02*
Y214470D01*
X178682Y217558D02*
X181770Y214470D01*
Y171240D02*
X181828Y171182D01*
X188044Y151527D02*
Y159936D01*
X181828Y166152D02*
Y171182D01*
Y166152D02*
X188044Y159936D01*
X451931Y169500D02*
X530560D01*
X443885Y177546D02*
X451931Y169500D01*
X443230Y177546D02*
X443885D01*
X528560Y161000D02*
X530560D01*
X452120Y158957D02*
X526517D01*
X431777Y179301D02*
X452120Y158957D01*
X526517D02*
X528560Y161000D01*
X447388Y152500D02*
X530560D01*
X442161Y157728D02*
X447388Y152500D01*
X431800Y137160D02*
X519866D01*
X441960Y147320D02*
X442922D01*
X446242Y144000D01*
X530560D01*
X519866Y137160D02*
X521526Y135500D01*
X454325Y79502D02*
X455985Y77842D01*
X445262Y79502D02*
X454325D01*
X455985Y77842D02*
X455994D01*
X482600Y51236D01*
X660060Y57000D02*
Y67396D01*
Y47549D02*
Y57000D01*
X656336Y71120D02*
X660060Y67396D01*
X622082Y12918D02*
Y27976D01*
X629666Y35560D02*
X648071D01*
X622082Y27976D02*
X629666Y35560D01*
X622082Y12918D02*
X622300Y12700D01*
X642620Y40640D02*
X651510Y49530D01*
X624840Y40640D02*
X642620D01*
X596900Y12700D02*
X624840Y40640D01*
X648071Y35560D02*
X660060Y47549D01*
X407670Y76200D02*
Y107950D01*
X412750Y113030D01*
X444500Y120110D02*
X457962Y106648D01*
Y90678D02*
Y106648D01*
X407670Y76200D02*
X413260Y70610D01*
X419084D01*
X433610Y120110D02*
X449580Y104140D01*
X421371Y120110D02*
X433610D01*
X482600Y35560D02*
Y51236D01*
X313310Y41000D02*
X392810D01*
X303530Y135429D02*
Y166370D01*
X300482Y66548D02*
Y132381D01*
Y66548D02*
X313310Y53720D01*
X300482Y132381D02*
X303530Y135429D01*
X313310Y41000D02*
Y53720D01*
X300700Y169200D02*
X303530Y166370D01*
X291446Y169200D02*
X300700D01*
X392810Y41000D02*
X393700Y41890D01*
Y50800D01*
X399290Y56390D01*
X419100D01*
X139700Y12700D02*
Y24157D01*
X251610Y185824D02*
X262026Y196240D01*
X457962Y90678D02*
X500380Y48260D01*
X80645Y220345D02*
X98635D01*
X73660Y213360D02*
X80645Y220345D01*
X98635D02*
X103840Y215140D01*
X70900Y210600D02*
X73660Y213360D01*
X62900Y210600D02*
X70900D01*
X103840Y215140D02*
X104140D01*
X99982Y174590D02*
X100930D01*
X104140Y177800D01*
X75222Y180600D02*
X81197Y174625D01*
X99947D02*
X99982Y174590D01*
X81197Y174625D02*
X99947D01*
X104140Y177800D02*
Y181100D01*
X62900Y180600D02*
X75222D01*
X73660Y36830D02*
X76200Y34290D01*
X62900Y38400D02*
X72090D01*
X73660Y36830D01*
X76200Y31750D02*
Y34290D01*
Y31750D02*
X80010Y27940D01*
X90637D01*
X96477Y33780D01*
X102870D01*
X62900Y68400D02*
X73660D01*
X102428D02*
X102864Y68836D01*
X73660Y68400D02*
X102428D01*
X473456Y198120D02*
X478028Y202692D01*
X485900D01*
X473456Y191008D02*
Y198120D01*
X457962Y186436D02*
X468884D01*
X428498Y193548D02*
X450850D01*
X457962Y186436D01*
X468884D02*
X473456Y191008D01*
X420370Y185420D02*
X428498Y193548D01*
X420370Y178310D02*
Y185420D01*
X515112Y181102D02*
X520510Y186500D01*
X474726Y181438D02*
X475062Y181102D01*
X515112D01*
X558546Y228346D02*
X571500Y241300D01*
X485900Y220628D02*
X488490Y223218D01*
X485900Y216408D02*
Y220628D01*
X488490Y223218D02*
X498818D01*
X499026Y223010D02*
X604010D01*
X498818Y223218D02*
X499026Y223010D01*
X604010D02*
X622300Y241300D01*
X444246Y228346D02*
X558546D01*
X439420Y223520D02*
X444246Y228346D01*
X439420Y215570D02*
Y223520D01*
X447198Y185262D02*
X457880Y174580D01*
X517480D01*
X220218Y190904D02*
X249070D01*
X252730Y194564D01*
Y206500D01*
X211583Y190395D02*
X216154Y185824D01*
X200925Y190395D02*
X211583D01*
X200947Y185417D02*
X208178D01*
X208280Y185315D02*
X208711D01*
X208178Y185417D02*
X208280Y185315D01*
X208711D02*
X214380Y179647D01*
X200925Y185395D02*
X200947Y185417D01*
X214380Y179647D02*
X216894D01*
X217574Y178966D01*
X262026Y196240D02*
X272435D01*
X502498Y204810D02*
X632374D01*
X494540Y202692D02*
X500380D01*
X502498Y204810D01*
X634492Y197068D02*
X634560Y197000D01*
X634492Y197068D02*
Y202692D01*
X632374Y204810D02*
X634492Y202692D01*
X494540D02*
Y216408D01*
X258062Y156970D02*
X261366Y160274D01*
X252730Y156970D02*
X258062D01*
X261366Y160274D02*
Y175514D01*
X272043Y178308D02*
X272435Y178700D01*
X264160Y178308D02*
X272043D01*
X261366Y175514D02*
X264160Y178308D01*
X273652Y164883D02*
X283030Y174261D01*
X273652Y160917D02*
Y164883D01*
X272435Y159700D02*
X273652Y160917D01*
X283030Y174261D02*
Y199003D01*
X275533Y206500D02*
X283030Y199003D01*
X252730Y206500D02*
X275533D01*
X175476Y163910D02*
X176770Y165204D01*
Y171240D01*
X160782Y157298D02*
X171770Y168286D01*
Y171240D01*
X149860Y146560D02*
X157736D01*
X160782Y149606D01*
Y157298D01*
X135128Y146560D02*
X149860D01*
X191770Y165100D02*
X192960Y163910D01*
X194310Y162560D02*
X213360D01*
X192960Y163910D02*
X194310Y162560D01*
X191770Y165100D02*
Y171240D01*
X213360Y162560D02*
X217170Y158750D01*
Y142240D02*
Y158750D01*
Y142240D02*
X219710Y139700D01*
X226820D01*
Y154432D02*
Y168910D01*
X206505Y180337D02*
X217932Y168910D01*
X200983Y180337D02*
X206505D01*
X217932Y168910D02*
X226820D01*
X200925Y180395D02*
X200983Y180337D01*
X476758Y114300D02*
X512644D01*
X464820Y102362D02*
X476758Y114300D01*
X476250Y102362D02*
X476569D01*
X482157Y107950D02*
X509270D01*
X476569Y102362D02*
X482157Y107950D01*
X484274Y74906D02*
X491680Y67500D01*
X484274Y74906D02*
Y85956D01*
X491680Y67500D02*
X530560D01*
X515312Y94488D02*
X516800Y93000D01*
X530560D01*
X514350Y94488D02*
X515312D01*
X500380Y48260D02*
X532130D01*
X502412Y38608D02*
X512316D01*
X449580Y91440D02*
X502412Y38608D01*
X449580Y91440D02*
Y104140D01*
X521526Y135500D02*
X530560D01*
X315850Y168000D02*
Y192150D01*
X302260Y205740D02*
X315850Y192150D01*
X291446Y205740D02*
X302260D01*
X315850Y168000D02*
X395350D01*
Y175640D01*
X398020Y178310D01*
X420370D01*
X520900Y178000D02*
X530560D01*
X517480Y174580D02*
X520900Y178000D01*
X520510Y186500D02*
X530560D01*
X515720Y101500D02*
X530560D01*
X509270Y107950D02*
X515720Y101500D01*
X512644Y114300D02*
X516944Y110000D01*
X530560D01*
X493164Y91036D02*
X496974D01*
X512010Y76000D02*
X530560D01*
X492760Y91440D02*
X493164Y91036D01*
X496974D02*
X512010Y76000D01*
X504190Y93980D02*
X513670Y84500D01*
X530560D01*
X546100Y12700D02*
X546227Y12827D01*
Y38360D01*
X546353Y38487D01*
X553357Y29573D02*
X604883D01*
X553316Y29614D02*
X553357Y29573D01*
X604883D02*
X617560Y42250D01*
Y57000D01*
X520700Y12700D02*
X520828Y12828D01*
Y38480D01*
X520956Y38608D01*
X651510Y49530D02*
Y56950D01*
X651560Y57000D01*
X541020Y95250D02*
X541040Y95230D01*
Y57758D02*
Y95230D01*
X419084Y70610D02*
X419092Y70602D01*
Y56398D02*
Y70602D01*
Y56398D02*
X419100Y56390D01*
X450182Y42512D02*
X455621D01*
X448310Y44383D02*
Y52070D01*
Y44383D02*
X450182Y42512D01*
X445770Y54610D02*
X448310Y52070D01*
X440140Y54610D02*
X445770D01*
X440000Y54750D02*
X440140Y54610D01*
X549544Y57016D02*
X549735Y57207D01*
Y89995D02*
X549910Y90170D01*
X549735Y57207D02*
Y89995D01*
X557928Y81947D02*
X557994Y81882D01*
Y57274D02*
Y81882D01*
Y57274D02*
X558164Y57104D01*
X455059Y217170D02*
X455620Y217731D01*
X450850Y217170D02*
X455059D01*
X448145Y214465D02*
X450850Y217170D01*
X448145Y208775D02*
Y214465D01*
X445440Y206070D02*
X448145Y208775D01*
X439420Y206070D02*
X445440D01*
X617526Y173026D02*
Y197710D01*
X541136Y182746D02*
Y198104D01*
X626112Y57052D02*
Y81736D01*
X600544Y57016D02*
Y72374D01*
X609112Y57052D02*
Y81736D01*
X583544Y57016D02*
Y72374D01*
X592112Y57052D02*
Y81736D01*
X566544Y57016D02*
Y72374D01*
X575112Y57052D02*
Y81736D01*
X558154Y182492D02*
Y197850D01*
X549586Y173130D02*
Y197814D01*
X575076Y181626D02*
Y196984D01*
X566508Y172264D02*
Y196948D01*
X592076Y181626D02*
Y196984D01*
X583508Y172264D02*
Y196948D01*
X600508D02*
X600560Y197000D01*
X600456Y172212D02*
X600508Y172264D01*
Y196948D01*
X609060Y197000D02*
X609076Y196984D01*
Y181626D02*
X609092Y181610D01*
X609076Y181626D02*
Y196984D01*
X617390Y196830D02*
X617560Y197000D01*
X626060Y182930D02*
X626110Y182880D01*
X626060Y182930D02*
Y197000D01*
D17*
X313310Y86000D02*
D03*
X392810D02*
D03*
X313310Y41000D02*
D03*
X392810D02*
D03*
X395350Y168000D02*
D03*
X315850D02*
D03*
X395350Y213000D02*
D03*
X315850D02*
D03*
D18*
X178056Y121158D02*
D03*
X169416D02*
D03*
X157482Y120904D02*
D03*
X148842D02*
D03*
X235460Y216916D02*
D03*
X226820D02*
D03*
X137023Y189505D02*
D03*
X128383D02*
D03*
Y204866D02*
D03*
X137023D02*
D03*
X226820Y168910D02*
D03*
X235460D02*
D03*
X226820Y139700D02*
D03*
X235460D02*
D03*
Y154432D02*
D03*
X226820D02*
D03*
X485900Y202692D02*
D03*
X494540D02*
D03*
X485900Y216408D02*
D03*
X494540D02*
D03*
X512316Y38608D02*
D03*
X520956D02*
D03*
X537713Y38487D02*
D03*
X546353D02*
D03*
X375670Y128270D02*
D03*
X367030D02*
D03*
X344930D02*
D03*
X353570D02*
D03*
X375670Y107953D02*
D03*
X367030D02*
D03*
X344930Y107953D02*
D03*
X353570D02*
D03*
D19*
X135128Y146560D02*
D03*
Y137920D02*
D03*
X455621Y51152D02*
D03*
Y42512D02*
D03*
X455620Y217731D02*
D03*
Y209091D02*
D03*
X419084Y79250D02*
D03*
Y70610D02*
D03*
X252730Y156970D02*
D03*
Y165610D02*
D03*
Y215140D02*
D03*
Y206500D02*
D03*
X102864Y60196D02*
D03*
Y68836D02*
D03*
X102870Y33780D02*
D03*
Y42420D02*
D03*
X104140Y189740D02*
D03*
Y181100D02*
D03*
Y215140D02*
D03*
Y206500D02*
D03*
D20*
X62900Y63400D02*
D03*
Y53400D02*
D03*
Y48400D02*
D03*
Y58400D02*
D03*
Y215600D02*
D03*
Y205600D02*
D03*
Y195600D02*
D03*
Y185600D02*
D03*
Y180600D02*
D03*
Y210600D02*
D03*
Y200600D02*
D03*
Y190600D02*
D03*
Y73400D02*
D03*
Y68400D02*
D03*
Y43400D02*
D03*
Y38400D02*
D03*
D21*
X85790Y55671D02*
D03*
Y35712D02*
D03*
Y62171D02*
D03*
Y183850D02*
D03*
Y211956D02*
D03*
Y42212D02*
D03*
Y205456D02*
D03*
Y190350D02*
D03*
D22*
X530560Y127000D02*
D03*
X670560Y76000D02*
D03*
Y67500D02*
D03*
Y93000D02*
D03*
Y84500D02*
D03*
Y110000D02*
D03*
Y101500D02*
D03*
Y127000D02*
D03*
Y118500D02*
D03*
Y161000D02*
D03*
Y135500D02*
D03*
Y152500D02*
D03*
Y144000D02*
D03*
Y169500D02*
D03*
Y178000D02*
D03*
Y186500D02*
D03*
X530560Y118500D02*
D03*
Y186500D02*
D03*
Y178000D02*
D03*
Y169500D02*
D03*
Y161000D02*
D03*
Y152500D02*
D03*
Y144000D02*
D03*
Y135500D02*
D03*
Y110000D02*
D03*
Y101500D02*
D03*
Y93000D02*
D03*
Y84500D02*
D03*
Y76000D02*
D03*
Y67500D02*
D03*
D23*
X200925Y200395D02*
D03*
Y195395D02*
D03*
Y190395D02*
D03*
Y185395D02*
D03*
Y180395D02*
D03*
X162615D02*
D03*
Y185395D02*
D03*
Y190395D02*
D03*
Y195395D02*
D03*
Y200395D02*
D03*
D24*
X191770Y171240D02*
D03*
X186770D02*
D03*
X176770D02*
D03*
X171770D02*
D03*
Y209550D02*
D03*
X176770D02*
D03*
X186770D02*
D03*
X181770D02*
D03*
Y171240D02*
D03*
D25*
X191770Y209550D02*
D03*
D26*
X665298Y222263D02*
D03*
X673938D02*
D03*
X641715D02*
D03*
X673940Y35560D02*
D03*
X625877Y222263D02*
D03*
X116080Y93980D02*
D03*
X178310Y136144D02*
D03*
X114810Y160020D02*
D03*
X178310Y151130D02*
D03*
X128129Y174595D02*
D03*
X128467Y219852D02*
D03*
X235460Y201930D02*
D03*
X665300Y35560D02*
D03*
X617237Y222263D02*
D03*
X650355D02*
D03*
X137107Y219852D02*
D03*
X107440Y93980D02*
D03*
X106170Y160020D02*
D03*
X136769Y174595D02*
D03*
X169670Y151130D02*
D03*
Y136144D02*
D03*
X226820Y201930D02*
D03*
D27*
X643060Y197000D02*
D03*
X634560Y57000D02*
D03*
X643060D02*
D03*
X651560Y197000D02*
D03*
X660060D02*
D03*
X634560D02*
D03*
X626060D02*
D03*
X617560D02*
D03*
X609060D02*
D03*
X600560D02*
D03*
X592060D02*
D03*
X583560D02*
D03*
X575060D02*
D03*
X566560D02*
D03*
X558060D02*
D03*
X549560D02*
D03*
X541060D02*
D03*
Y57000D02*
D03*
X549560D02*
D03*
X558060D02*
D03*
X566560D02*
D03*
X575060D02*
D03*
X583560D02*
D03*
X592060D02*
D03*
X600560D02*
D03*
X609060D02*
D03*
X617560D02*
D03*
X626060D02*
D03*
X651560D02*
D03*
X660060D02*
D03*
D28*
X62900Y23900D02*
D03*
Y87900D02*
D03*
Y166100D02*
D03*
Y230100D02*
D03*
Y174100D02*
D03*
Y222100D02*
D03*
Y79900D02*
D03*
Y31900D02*
D03*
D29*
X83110Y93980D02*
D03*
Y160020D02*
D03*
X89610Y93980D02*
D03*
Y160020D02*
D03*
D30*
X131871Y59436D02*
D03*
X146857Y59130D02*
D03*
X146050Y88390D02*
D03*
X149860Y137920D02*
D03*
X419100Y47750D02*
D03*
X420370Y169670D02*
D03*
Y178310D02*
D03*
X149860Y146560D02*
D03*
X131871Y50796D02*
D03*
X146857Y50490D02*
D03*
X146050Y97030D02*
D03*
X419100Y56390D02*
D03*
D31*
X169120Y73660D02*
D03*
Y96660D02*
D03*
Y50660D02*
D03*
D32*
X227120Y73660D02*
D03*
D33*
X440000Y45250D02*
D03*
X439420Y215570D02*
D03*
Y206070D02*
D03*
X440000Y54750D02*
D03*
D34*
X530560Y57000D02*
D03*
X670560D02*
D03*
X530560Y197000D02*
D03*
X670560D02*
D03*
D35*
X584060Y110500D02*
D03*
Y127000D02*
D03*
X600560Y110500D02*
D03*
Y127000D02*
D03*
X617060Y110500D02*
D03*
Y127000D02*
D03*
X584060Y143500D02*
D03*
X600560D02*
D03*
D36*
X272435Y178700D02*
D03*
Y215240D02*
D03*
D37*
Y159700D02*
D03*
X291446Y169200D02*
D03*
X272435Y196240D02*
D03*
X291446Y205740D02*
D03*
D42*
X181770Y190395D02*
D03*
D55*
X17150Y12700D02*
D03*
Y99100D02*
D03*
Y154900D02*
D03*
Y241300D02*
D03*
D56*
X57150Y12700D02*
D03*
Y99100D02*
D03*
Y154900D02*
D03*
Y241300D02*
D03*
D59*
X617060Y143500D02*
D03*
D60*
X74930Y104929D02*
X78967D01*
X74649D02*
X74930D01*
X74422Y105156D02*
X74649Y104929D01*
X78967D02*
X83110Y100786D01*
Y93980D02*
Y100786D01*
X313690Y74930D02*
Y85620D01*
X392810Y86000D02*
X393700Y85110D01*
Y74168D02*
Y85110D01*
X235460Y201630D02*
X239601D01*
X242857Y198374D01*
X243475D01*
X617237Y218423D02*
Y222263D01*
Y218423D02*
X623316Y212344D01*
X632714D01*
X666877Y235077D02*
X673100Y241300D01*
X663067Y235077D02*
X666877D01*
X673100Y241300D02*
X673938Y240462D01*
Y222263D02*
Y240462D01*
X651150Y222463D02*
X655922D01*
X658153Y224695D02*
Y230163D01*
X655922Y222463D02*
X658153Y224695D01*
Y230163D02*
X663067Y235077D01*
X650950Y222263D02*
X651150Y222463D01*
X650355Y222263D02*
X650950D01*
X645485Y213181D02*
X645922Y213619D01*
X645485Y211724D02*
Y213181D01*
X355600Y224790D02*
X365827Y214563D01*
X665298Y216988D02*
Y222263D01*
X661416Y213106D02*
X665298Y216988D01*
X645922Y213106D02*
X661416D01*
X643060Y209299D02*
X645485Y211724D01*
X643060Y197000D02*
Y209299D01*
X642422Y217119D02*
Y221556D01*
Y217119D02*
X645922Y213619D01*
X641715Y222263D02*
X642422Y221556D01*
X190500Y107950D02*
X199390Y116840D01*
X139700Y107950D02*
X190500D01*
X107950Y139700D02*
X139700Y107950D01*
X207010Y132080D02*
X251460D01*
X255270Y135890D01*
X199390Y124460D02*
X207010Y132080D01*
X150114Y171196D02*
X155448Y165862D01*
X146715Y174595D02*
X150114Y171196D01*
X155448Y165862D02*
X155956D01*
X210566Y205078D02*
Y211582D01*
X208280Y202792D02*
X210566Y205078D01*
X647700Y238830D02*
Y241300D01*
X641715Y232845D02*
X647700Y238830D01*
X641715Y222263D02*
Y232845D01*
X625877Y222263D02*
X641715D01*
X419339Y78995D02*
X429005D01*
X429260Y78740D01*
X419084Y79250D02*
X419339Y78995D01*
X455621Y51152D02*
Y61921D01*
X673940Y13540D02*
Y35560D01*
X673100Y12700D02*
X673940Y13540D01*
Y35560D02*
Y42432D01*
X676910Y45402D01*
Y45720D01*
X178056Y121158D02*
X187722D01*
X235460Y216916D02*
Y222558D01*
X237692Y224790D01*
X355600D01*
X57150Y12700D02*
X75832D01*
X88900D01*
X66745Y21787D02*
X75832Y12700D01*
X17150D02*
X57150D01*
X63059Y23741D02*
X65809D01*
X66745Y21787D02*
Y22805D01*
X65809Y23741D02*
X66745Y22805D01*
X86885Y35867D02*
X88220D01*
X88370Y36017D01*
X90631D01*
X93235Y38621D01*
Y40188D01*
X95467Y42420D02*
X102870D01*
X93235Y40188D02*
X95467Y42420D01*
X113050D02*
X116191Y39279D01*
X116810D01*
X102870Y42420D02*
X113050D01*
X62900Y87900D02*
X65650D01*
X71730Y93980D01*
X17150Y99100D02*
X57150D01*
X71730Y93980D02*
X83110D01*
X94149Y60196D02*
X102864D01*
X92330Y62016D02*
X94149Y60196D01*
X102864D02*
X111006D01*
X114930Y64120D01*
X85945Y62016D02*
X92330D01*
X85790Y62171D02*
X85945Y62016D01*
X114930Y64120D02*
X115198D01*
X116080Y93980D02*
Y104120D01*
X148590Y73660D02*
Y74279D01*
X146050Y76819D02*
X148590Y74279D01*
X146050Y76819D02*
Y88390D01*
X177714Y136731D02*
X177904Y136541D01*
X178094Y136351D01*
X177904Y136541D02*
X188044D01*
X70683Y147757D02*
Y148632D01*
X71120Y147320D02*
X71557Y147757D01*
X70683D02*
X71120Y147320D01*
X58334Y153716D02*
X65599D01*
X17150Y154900D02*
X57150D01*
X58334Y153716D01*
X65599D02*
X70683Y148632D01*
X62900Y166100D02*
X72660D01*
X71557Y147757D02*
X78782D01*
X83110Y160020D02*
Y160396D01*
Y160020D02*
X83260Y159870D01*
X78782Y147757D02*
X83260Y152235D01*
Y159870D01*
X82955Y160551D02*
X83110Y160396D01*
X72660Y166100D02*
X78209Y160551D01*
X82955D01*
X85790Y183850D02*
X85945Y184005D01*
X89763D01*
X95498Y189740D02*
X104140D01*
X63455Y229545D02*
X70491D01*
X62900Y230100D02*
X63455Y229545D01*
X73976Y226060D02*
X77470D01*
X70491Y229545D02*
X73976Y226060D01*
X77470D02*
Y231140D01*
X57150Y241300D02*
X58334Y240116D01*
X17150Y241300D02*
X57150D01*
X68494Y240116D02*
X69848Y238762D01*
X77470Y231140D01*
X58334Y240116D02*
X68494D01*
X89763Y184005D02*
X95498Y189740D01*
X104140Y206500D02*
X104795Y207155D01*
X104140Y189740D02*
Y206500D01*
Y189740D02*
X104935Y188945D01*
X85790Y211956D02*
X94505D01*
X77470Y226060D02*
X99060D01*
X103345Y207295D02*
X104140Y206500D01*
X104795Y207155D02*
X109647D01*
X94505Y211956D02*
X99166Y207295D01*
X103345D01*
X149264Y138507D02*
X149454Y138317D01*
X114810Y160020D02*
Y168801D01*
X149454Y138317D02*
X159594D01*
X149454D02*
X149644Y138127D01*
X114810Y168801D02*
X116840Y170831D01*
Y171450D01*
X116983D01*
X120128Y174595D02*
X128129D01*
X116983Y171450D02*
X120128Y174595D01*
X177904Y151527D02*
X188044D01*
X177904D02*
X178094Y151337D01*
X235460Y139700D02*
X245110D01*
X234970D02*
X235460D01*
Y154432D01*
X177714Y151717D02*
X177904Y151527D01*
X109647Y207155D02*
X115414Y212923D01*
X116403D01*
X99060Y226060D02*
X114300Y241300D01*
X116403Y212923D02*
X116840Y213360D01*
X128467Y219852D02*
Y227133D01*
X114300Y241300D02*
X128467Y227133D01*
X419100Y47750D02*
X428597D01*
Y62838D02*
X431800Y66040D01*
X313310Y86000D02*
X313690Y85620D01*
X430785Y45563D02*
X439688D01*
X428597Y47750D02*
Y62838D01*
Y47750D02*
X430785Y45563D01*
X439688D02*
X440000Y45250D01*
X515667Y60198D02*
X516285D01*
X519170Y57313D02*
X530247D01*
X530560Y57000D01*
X516285Y60198D02*
X519170Y57313D01*
X569205Y110337D02*
X584563D01*
Y111003D01*
X592178Y118618D01*
X584563Y126497D02*
X592442Y118618D01*
X592178D02*
X592442D01*
X592582D01*
Y119022D02*
X600560Y127000D01*
X600710Y110990D02*
X601050D01*
X600710Y97790D02*
Y110990D01*
X616557Y110663D02*
Y111003D01*
X601050Y110990D02*
X608584Y118524D01*
X592582Y118618D02*
Y119022D01*
X600560Y127000D02*
X608584Y118976D01*
Y118618D02*
X608678D01*
X608942D01*
X608584D02*
Y118976D01*
Y118524D02*
Y118618D01*
X647700Y12700D02*
X648970Y13970D01*
Y24130D02*
X651510Y26670D01*
X648970Y13970D02*
Y24130D01*
X651510Y26670D02*
X661670D01*
X665047Y30047D01*
X634544Y57016D02*
Y72374D01*
X643044Y57016D02*
Y72374D01*
X665047Y30047D02*
Y35307D01*
X665300Y35560D01*
Y44707D01*
X670110Y49517D01*
Y56550D01*
X670560Y57000D02*
Y67480D01*
Y76000D02*
Y84405D01*
Y67500D02*
Y76000D01*
X670110Y56550D02*
X670560Y57000D01*
X608942Y118618D02*
X616557Y111003D01*
X608678Y118618D02*
X617060Y127000D01*
X616557Y110663D02*
X631915D01*
X670560Y84405D02*
X670692Y84537D01*
X655082Y92880D02*
X670440D01*
X655705Y84537D02*
X670692D01*
X671063D01*
X655082Y101516D02*
X670440D01*
X655197Y109937D02*
X670555D01*
X655590Y118280D02*
X670948D01*
X569205Y126837D02*
X584563D01*
X584060Y127000D02*
X591383Y134323D01*
Y134945D01*
X569205Y143337D02*
X584223D01*
X584060Y143500D02*
X584223Y143337D01*
X591383Y134945D02*
X591820Y135382D01*
X584223Y143337D02*
X584563D01*
X584223D02*
X591820Y135740D01*
X609092Y134968D02*
Y135382D01*
X616557Y142847D01*
X616897Y127163D02*
X617060Y127000D01*
X609092Y134968D02*
X616897Y127163D01*
X616557D02*
X616897D01*
X591820Y135382D02*
Y135740D01*
X600560Y143500D02*
X600710Y143350D01*
Y143310D02*
Y143350D01*
X608678Y135382D01*
X609092D01*
X616557Y142847D02*
Y143663D01*
X420370Y169670D02*
X429151D01*
X431181Y167640D01*
X396768Y211582D02*
X408940D01*
X431181Y167640D02*
X431800D01*
X600710Y143350D02*
Y154940D01*
X616897Y127163D02*
X631915D01*
X655590Y126916D02*
X670948D01*
X616557Y143663D02*
X631915D01*
X655590Y152570D02*
X670948D01*
X655590Y143934D02*
X670948D01*
X655705Y135337D02*
X671063D01*
X655705Y160991D02*
X671063D01*
X655828Y177954D02*
Y182880D01*
X659353Y186405D01*
X670465D01*
X655844Y169334D02*
X671202D01*
X655844Y177970D02*
X671202D01*
X632714Y212344D02*
X632968Y212090D01*
X660060Y197000D02*
X670560D01*
X651560D02*
X660060D01*
X670465Y186405D02*
X670560Y186500D01*
Y197000D01*
X670814Y197254D02*
Y207772D01*
X670560Y197000D02*
X670814Y197254D01*
Y207772D02*
X673938Y210896D01*
Y222263D01*
X227120Y74213D02*
X235965Y83058D01*
X246126D01*
X260858D01*
X275209Y82931D02*
X275336Y82804D01*
X260985Y82931D02*
X275209D01*
X260858Y83058D02*
X260985Y82931D01*
X275463Y66167D02*
X275590Y66040D01*
X246507Y66167D02*
X275463D01*
X246380Y66294D02*
X246507Y66167D01*
X234486Y66294D02*
X246380D01*
X227120Y73660D02*
X234486Y66294D01*
X315850Y213000D02*
X352658D01*
X358675Y206983D01*
X395350Y213000D02*
X396768Y211582D01*
X384117Y212413D02*
X394763D01*
X358675Y206983D02*
X378687D01*
X384117Y212413D01*
X394763D02*
X395350Y213000D01*
X147088Y39602D02*
X147320Y39370D01*
X147088Y39602D02*
Y50258D01*
X146857Y50490D02*
X147088Y50258D01*
X152514Y180395D02*
X154940D01*
X146715Y174595D02*
X152514Y180395D01*
X136769Y174595D02*
X146715D01*
X136769Y166487D02*
Y174595D01*
X136327Y125004D02*
X140427Y120904D01*
X135890Y127000D02*
X136327Y126563D01*
X140427Y120904D02*
X148842D01*
X136327Y125004D02*
Y126563D01*
X101908Y139700D02*
X107950D01*
X95250D02*
X101908D01*
X199390Y116840D02*
Y124460D01*
X255270Y135890D02*
Y144780D01*
X252095Y147955D02*
X255270Y144780D01*
X247015Y147955D02*
X252095D01*
X243840Y151130D02*
X247015Y147955D01*
X243840Y151130D02*
Y166678D01*
X241608Y168910D02*
X243840Y166678D01*
X235460Y168910D02*
X241608D01*
X44340Y79900D02*
X62900D01*
X101490D01*
X38100Y38100D02*
Y73660D01*
X44340Y79900D01*
X44092Y32108D02*
X62692D01*
X38100Y38100D02*
X44092Y32108D01*
X169035Y50575D02*
X169120Y50660D01*
X146942Y50575D02*
X169035D01*
X146857Y50490D02*
X146942Y50575D01*
X146704Y50643D02*
X146857Y50490D01*
X132024Y50643D02*
X146704D01*
X131871Y50796D02*
X132024Y50643D01*
X62750Y222250D02*
X62900Y222100D01*
X50800Y222250D02*
X62750D01*
X45720Y217170D02*
X50800Y222250D01*
X45720Y179290D02*
Y217170D01*
Y179290D02*
X50910Y174100D01*
X62900D01*
X73640D02*
X78830Y168910D01*
X62900Y174100D02*
X73640D01*
X97580Y168910D02*
X106170Y160320D01*
X78830Y168910D02*
X97580D01*
X106170Y160020D02*
Y160320D01*
Y143962D02*
Y160020D01*
X101908Y139700D02*
X106170Y143962D01*
X89610Y160020D02*
X106170D01*
X62692Y32108D02*
X62900Y31900D01*
X95250Y114300D02*
X104140D01*
X107440Y111000D01*
Y93980D02*
Y111000D01*
X101490Y79900D02*
X107440Y85850D01*
Y93980D01*
X89610D02*
X107440D01*
X210566Y211582D02*
X215900Y216916D01*
X226820Y201930D02*
Y216916D01*
X215900D02*
X226820D01*
X169515Y157949D02*
X175476Y163910D01*
X169515Y151285D02*
X169670Y151130D01*
X169515Y151285D02*
Y157949D01*
X169670Y151970D02*
X170210D01*
X169670Y136144D02*
Y151970D01*
X128018Y137920D02*
X135128D01*
X124460Y141478D02*
X128018Y137920D01*
X124460Y141478D02*
Y154178D01*
X136769Y166487D01*
X139700Y222745D02*
Y241300D01*
X137107Y219852D02*
Y220152D01*
X139700Y222745D01*
X157482Y120904D02*
X157609Y121031D01*
X169289D01*
X169416Y121158D01*
X169543Y121285D01*
Y136017D01*
X169670Y136144D01*
D61*
X317500Y128270D02*
X344930D01*
X312420Y123190D02*
X317500Y128270D01*
X96303Y53852D02*
X116082D01*
X119380Y57150D01*
X85790Y51620D02*
X86687Y50723D01*
X85790Y51620D02*
Y55671D01*
X86687Y50723D02*
X93174D01*
X96303Y53852D01*
X62900Y63400D02*
X71220D01*
X72390Y62230D01*
Y54610D02*
Y62230D01*
X71180Y53400D02*
X72390Y54610D01*
X62900Y53400D02*
X71180D01*
X80648Y50723D02*
X86687D01*
X71180Y53400D02*
X77971D01*
X80648Y50723D01*
X367030Y122433D02*
Y128270D01*
Y122433D02*
X369570Y119893D01*
X403103D01*
X412730Y129520D01*
X519450D02*
X521970Y127000D01*
X412730Y129520D02*
X519450D01*
X521970Y127000D02*
X530411D01*
X353570Y123193D02*
Y128270D01*
Y123193D02*
X356870Y119893D01*
X369570D01*
X369570Y119893D01*
X317500Y107950D02*
X344930D01*
X54610Y58430D02*
X62930D01*
X62900Y48400D02*
X62930Y48430D01*
X62870Y48370D02*
X62900Y48400D01*
X369570Y116330D02*
X369876D01*
X356870D02*
X369570D01*
X369570Y116330D01*
X367030Y113790D02*
X369570Y116330D01*
X85665Y190475D02*
X85790Y190350D01*
X63025Y190475D02*
X85665D01*
X62900Y190600D02*
X63025Y190475D01*
X71394Y205466D02*
X72390Y204470D01*
Y196770D02*
Y204470D01*
X62972Y205528D02*
X85718D01*
X71220Y195600D02*
X72390Y196770D01*
X62900Y195600D02*
X71220D01*
X54680Y190540D02*
X62840D01*
X53410Y191810D02*
X54680Y190540D01*
X53410Y191810D02*
Y199430D01*
X54580Y200600D01*
X62900D01*
Y48400D02*
X77932D01*
X79172Y47159D02*
X86687D01*
X88163D02*
X94650D01*
X86687D02*
X88163D01*
X77932Y48400D02*
X79172Y47159D01*
X88163D02*
X88163Y47159D01*
X53440Y57260D02*
X54610Y58430D01*
X53440Y49640D02*
Y57260D01*
Y49640D02*
X54710Y48370D01*
X62870D01*
X94650Y47159D02*
X97779Y50288D01*
X85790Y46262D02*
X86687Y47159D01*
X85790Y42212D02*
Y46262D01*
X97779Y50288D02*
X116082D01*
X119380Y46990D01*
X312420Y113030D02*
X317500Y107950D01*
X176018Y13597D02*
Y27182D01*
X175121Y12700D02*
X176018Y13597D01*
X165100Y12700D02*
X175121D01*
X171450Y31750D02*
X176018Y27182D01*
X179582D02*
X184150Y31750D01*
X179582Y13597D02*
Y27182D01*
Y13597D02*
X180479Y12700D01*
X190500D01*
X375670Y107953D02*
X387350D01*
X375670Y128270D02*
X387350D01*
X369876Y116330D02*
X404579D01*
X369876Y116330D02*
X369876Y116330D01*
X353570Y107953D02*
Y113030D01*
X356870Y116330D01*
X524120Y118500D02*
X530560D01*
X414206Y125956D02*
X516664D01*
X524120Y118500D01*
X404579Y116330D02*
X414206Y125956D01*
X367030Y107953D02*
Y113790D01*
D62*
X215553Y202092D02*
X226658D01*
X215392Y202253D02*
X215553Y202092D01*
X226658D02*
X226820Y201930D01*
D63*
X205883Y200395D02*
X208280Y202792D01*
X131871Y59436D02*
X132024Y59283D01*
X146704D02*
X146857Y59130D01*
X132024Y59283D02*
X146704D01*
X146857Y59130D02*
Y70978D01*
X148590Y72712D02*
Y73660D01*
X146857Y70978D02*
X148590Y72712D01*
X154940Y180395D02*
X162615D01*
X200925Y200395D02*
X205883D01*
X272384Y215190D02*
X272435Y215240D01*
X252780Y215190D02*
X272384D01*
X252730Y215140D02*
X252780Y215190D01*
D64*
X455620Y199700D02*
Y209091D01*
Y199700D02*
X459740Y195580D01*
X503668Y197000D02*
X530560D01*
X494823Y188154D02*
X503668Y197000D01*
X491451Y188154D02*
X494823D01*
X491257Y187960D02*
X491451Y188154D01*
D65*
X146050Y97030D02*
X168750D01*
X107950Y127000D02*
X137920Y97030D01*
X146050D01*
X95250Y127000D02*
X107950D01*
X168750Y97030D02*
X169120Y96660D01*
D66*
X85718Y205528D02*
X85790Y205456D01*
X62900Y205600D02*
X62972Y205528D01*
X117236Y189505D02*
X128383D01*
X116840Y204470D02*
X127987D01*
X128383Y204866D01*
X85790Y199758D02*
X88215Y197333D01*
X85790Y199758D02*
Y205456D01*
X82527Y197909D02*
X85790Y194647D01*
Y190350D02*
Y194647D01*
X88215Y197333D02*
X91923D01*
X92710Y198120D01*
X78447Y197909D02*
X82527D01*
X78236Y198120D02*
X78447Y197909D01*
X146479Y198993D02*
X155077Y190395D01*
X162615D01*
X144981Y195378D02*
X154965Y185395D01*
X138430Y198993D02*
X146479D01*
X154965Y185395D02*
X162615D01*
X138430Y195378D02*
X144981D01*
X137023Y193971D02*
X138430Y195378D01*
X137023Y189505D02*
Y193971D01*
Y200400D02*
X138430Y198993D01*
X137023Y200400D02*
Y204866D01*
D67*
X265580Y119677D02*
D03*
X95250Y114300D02*
D03*
Y127000D02*
D03*
D68*
X647700Y241300D02*
D03*
X88900Y12700D02*
D03*
X114300Y241300D02*
D03*
X647700Y12700D02*
D03*
X622300Y241300D02*
D03*
X571500D02*
D03*
X139700D02*
D03*
X88900D02*
D03*
X546100D02*
D03*
X368300D02*
D03*
X469900D02*
D03*
X292100D02*
D03*
X215900D02*
D03*
X393700D02*
D03*
X317500D02*
D03*
X495300D02*
D03*
X419100D02*
D03*
X241300D02*
D03*
X596900D02*
D03*
X342900D02*
D03*
X165100D02*
D03*
X520700D02*
D03*
X266700D02*
D03*
X444500D02*
D03*
X190500D02*
D03*
X165100Y12700D02*
D03*
X190500D02*
D03*
X393700D02*
D03*
X114300D02*
D03*
X520700D02*
D03*
X495300D02*
D03*
X266700D02*
D03*
X419100D02*
D03*
X546100D02*
D03*
X342900D02*
D03*
X139700D02*
D03*
X571500D02*
D03*
X444500D02*
D03*
X292100D02*
D03*
X368300D02*
D03*
X215900D02*
D03*
X596900D02*
D03*
X317500D02*
D03*
X469900D02*
D03*
X241300D02*
D03*
X622300D02*
D03*
D69*
X673100D02*
D03*
Y241300D02*
D03*
D70*
X95250Y139700D02*
D03*
D71*
X252880Y119677D02*
D03*
D72*
X74422Y105156D02*
D03*
X313690Y74168D02*
D03*
X312420Y123190D02*
D03*
X119380Y57150D02*
D03*
X155956Y165862D02*
D03*
X215392Y202253D02*
D03*
X197629Y217603D02*
D03*
X163576Y217932D02*
D03*
X461010Y194310D02*
D03*
X645922Y213106D02*
D03*
X429260Y78740D02*
D03*
X455621Y61921D02*
D03*
X676910Y45720D02*
D03*
X187977Y120903D02*
D03*
X365740Y214476D02*
D03*
X116810Y39279D02*
D03*
X115198Y64120D02*
D03*
X116080Y104120D02*
D03*
X163322Y31750D02*
D03*
X130810Y73660D02*
D03*
X139700D02*
D03*
X148590D02*
D03*
X193040Y31750D02*
D03*
X159594Y138317D02*
D03*
X188044Y136541D02*
D03*
X245110Y139700D02*
D03*
X71120Y147320D02*
D03*
X116840Y171450D02*
D03*
X188044Y151527D02*
D03*
X116840Y180340D02*
D03*
Y213360D02*
D03*
X175260Y184150D02*
D03*
Y195580D02*
D03*
X187960Y184150D02*
D03*
Y195580D02*
D03*
X393700Y74168D02*
D03*
X307340Y106680D02*
D03*
X431800Y66040D02*
D03*
X515667Y60198D02*
D03*
X600710Y97790D02*
D03*
X396240Y107950D02*
D03*
X569189Y110321D02*
D03*
Y126821D02*
D03*
X592582Y118618D02*
D03*
X608584D02*
D03*
X634528Y72390D02*
D03*
X643028D02*
D03*
X655066Y101500D02*
D03*
X631931Y110679D02*
D03*
X655689Y84521D02*
D03*
X655066Y92864D02*
D03*
X655181Y109921D02*
D03*
X655574Y118264D02*
D03*
X631931Y127179D02*
D03*
X655574Y126900D02*
D03*
X307340Y129540D02*
D03*
X396240Y128270D02*
D03*
X591820Y135382D02*
D03*
X569189Y143321D02*
D03*
X609092Y135382D02*
D03*
X431800Y167640D02*
D03*
X600710Y154940D02*
D03*
X631931Y143679D02*
D03*
X655574Y143918D02*
D03*
X655689Y135321D02*
D03*
X655574Y152554D02*
D03*
X655689Y160975D02*
D03*
X655828Y177954D02*
D03*
Y169318D02*
D03*
X632968Y212090D02*
D03*
X246126Y83058D02*
D03*
X275336Y82804D02*
D03*
X260858Y83058D02*
D03*
X261112Y66294D02*
D03*
X275590Y66040D02*
D03*
X246380Y66294D02*
D03*
X243475Y198374D02*
D03*
X408940Y211582D02*
D03*
X490982Y187960D02*
D03*
X443230Y177546D02*
D03*
X442161Y157728D02*
D03*
X431800Y137160D02*
D03*
X441960Y147320D02*
D03*
X445262Y79502D02*
D03*
X656336Y71120D02*
D03*
X412750Y113030D02*
D03*
X444500Y120110D02*
D03*
X421371D02*
D03*
X147320Y39370D02*
D03*
X135890Y127000D02*
D03*
X117236Y189505D02*
D03*
X116840Y204470D02*
D03*
X78236Y198120D02*
D03*
X92710D02*
D03*
X119380Y46990D02*
D03*
X312420Y113030D02*
D03*
X171450Y31750D02*
D03*
X184150D02*
D03*
X387350Y107953D02*
D03*
X387350Y128270D02*
D03*
X474726Y181438D02*
D03*
X431777Y179301D02*
D03*
X447198Y185262D02*
D03*
X217574Y178966D02*
D03*
X464820Y102362D02*
D03*
X476250D02*
D03*
X484274Y85956D02*
D03*
X514350Y94488D02*
D03*
X504190Y93980D02*
D03*
X492760Y91440D02*
D03*
X553316Y29614D02*
D03*
X541020Y95250D02*
D03*
X549910Y90170D02*
D03*
X557928Y81947D02*
D03*
X617474Y172974D02*
D03*
X541152Y182730D02*
D03*
X626164Y81788D02*
D03*
X600528Y72390D02*
D03*
X609164Y81788D02*
D03*
X583528Y72390D02*
D03*
X592164Y81788D02*
D03*
X566528Y72390D02*
D03*
X575164Y81788D02*
D03*
X558170Y182476D02*
D03*
X549534Y173078D02*
D03*
X575092Y181610D02*
D03*
X566456Y172212D02*
D03*
X592092Y181610D02*
D03*
X583456Y172212D02*
D03*
X600456D02*
D03*
X609092Y181610D02*
D03*
X626110Y182880D02*
D03*
M02*
