G04*
G04 #@! TF.GenerationSoftware,Altium Limited,Altium Designer,25.8.1 (18)*
G04*
G04 Layer_Color=32896*
%FSLAX44Y44*%
%MOMM*%
G71*
G04*
G04 #@! TF.SameCoordinates,F54E5B92-F0D5-4042-A45F-7CF7407C5741*
G04*
G04*
G04 #@! TF.FilePolarity,Positive*
G04*
G01*
G75*
%ADD13C,0.1524*%
%ADD65C,0.3048*%
%ADD83C,0.1778*%
D13*
X186439Y67056D02*
X194903D01*
X196596Y65363D01*
Y61978D01*
X194903Y60285D01*
X186439D01*
X188132Y50128D02*
X186439Y51821D01*
Y55206D01*
X188132Y56899D01*
X189825D01*
X191518Y55206D01*
Y51821D01*
X193210Y50128D01*
X194903D01*
X196596Y51821D01*
Y55206D01*
X194903Y56899D01*
X186439Y46743D02*
X196596D01*
Y41664D01*
X194903Y39971D01*
X193210D01*
X191518Y41664D01*
Y46743D01*
Y41664D01*
X189825Y39971D01*
X188132D01*
X186439Y41664D01*
Y46743D01*
X191518Y36586D02*
Y29815D01*
X188132Y33200D02*
X194903D01*
X262639Y67056D02*
Y63670D01*
Y65363D01*
X272796D01*
Y67056D01*
Y63670D01*
X262639Y53514D02*
Y56899D01*
X264332Y58592D01*
X271103D01*
X272796Y56899D01*
Y53514D01*
X271103Y51821D01*
X264332D01*
X262639Y53514D01*
X264332Y48435D02*
X262639Y46743D01*
Y43357D01*
X264332Y41664D01*
X266025D01*
X267718Y43357D01*
Y45050D01*
Y43357D01*
X269410Y41664D01*
X271103D01*
X272796Y43357D01*
Y46743D01*
X271103Y48435D01*
X264332Y38279D02*
X262639Y36586D01*
Y33200D01*
X264332Y31507D01*
X266025D01*
X267718Y33200D01*
Y34893D01*
Y33200D01*
X269410Y31507D01*
X271103D01*
X272796Y33200D01*
Y36586D01*
X271103Y38279D01*
X237239Y67056D02*
Y63670D01*
Y65363D01*
X247396D01*
Y67056D01*
Y63670D01*
X237239Y53514D02*
Y56899D01*
X238932Y58592D01*
X245703D01*
X247396Y56899D01*
Y53514D01*
X245703Y51821D01*
X238932D01*
X237239Y53514D01*
X247396Y41664D02*
Y48435D01*
X240625Y41664D01*
X238932D01*
X237239Y43357D01*
Y46743D01*
X238932Y48435D01*
X237239Y31507D02*
X238932Y34893D01*
X242318Y38279D01*
X245703D01*
X247396Y36586D01*
Y33200D01*
X245703Y31507D01*
X244010D01*
X242318Y33200D01*
Y38279D01*
X211839Y67056D02*
Y63670D01*
Y65363D01*
X221996D01*
Y67056D01*
Y63670D01*
X211839Y53514D02*
Y56899D01*
X213532Y58592D01*
X220303D01*
X221996Y56899D01*
Y53514D01*
X220303Y51821D01*
X213532D01*
X211839Y53514D01*
X221996Y41664D02*
Y48435D01*
X215225Y41664D01*
X213532D01*
X211839Y43357D01*
Y46743D01*
X213532Y48435D01*
X221996Y38279D02*
Y34893D01*
Y36586D01*
X211839D01*
X213532Y38279D01*
X135639Y67056D02*
Y63670D01*
Y65363D01*
X145796D01*
Y67056D01*
Y63670D01*
X135639Y53514D02*
Y56899D01*
X137332Y58592D01*
X144103D01*
X145796Y56899D01*
Y53514D01*
X144103Y51821D01*
X137332D01*
X135639Y53514D01*
X145796Y43357D02*
X135639D01*
X140718Y48435D01*
Y41664D01*
X137332Y38279D02*
X135639Y36586D01*
Y33200D01*
X137332Y31507D01*
X139025D01*
X140718Y33200D01*
X142410Y31507D01*
X144103D01*
X145796Y33200D01*
Y36586D01*
X144103Y38279D01*
X142410D01*
X140718Y36586D01*
X139025Y38279D01*
X137332D01*
X140718Y36586D02*
Y33200D01*
X161039Y67056D02*
X169503D01*
X171196Y65363D01*
Y61978D01*
X169503Y60285D01*
X161039D01*
X162732Y50128D02*
X161039Y51821D01*
Y55206D01*
X162732Y56899D01*
X164425D01*
X166118Y55206D01*
Y51821D01*
X167810Y50128D01*
X169503D01*
X171196Y51821D01*
Y55206D01*
X169503Y56899D01*
X161039Y46743D02*
X171196D01*
Y41664D01*
X169503Y39971D01*
X167810D01*
X166118Y41664D01*
Y46743D01*
Y41664D01*
X164425Y39971D01*
X162732D01*
X161039Y41664D01*
Y46743D01*
X166118Y36586D02*
Y29815D01*
X674118Y77216D02*
Y70445D01*
X670732Y73830D02*
X677503D01*
X670732Y67059D02*
X669039Y65367D01*
Y61981D01*
X670732Y60288D01*
X672425D01*
X674118Y61981D01*
Y63674D01*
Y61981D01*
X675810Y60288D01*
X677503D01*
X679196Y61981D01*
Y65367D01*
X677503Y67059D01*
X679196Y56903D02*
X677503D01*
Y55210D01*
X679196D01*
Y56903D01*
X670732Y48439D02*
X669039Y46746D01*
Y43360D01*
X670732Y41667D01*
X672425D01*
X674118Y43360D01*
Y45053D01*
Y43360D01*
X675810Y41667D01*
X677503D01*
X679196Y43360D01*
Y46746D01*
X677503Y48439D01*
X669039Y38282D02*
X675810D01*
X679196Y34896D01*
X675810Y31511D01*
X669039D01*
X440439Y67056D02*
Y63670D01*
Y65363D01*
X450596D01*
Y67056D01*
Y63670D01*
X440439Y53514D02*
Y56899D01*
X442132Y58592D01*
X448903D01*
X450596Y56899D01*
Y53514D01*
X448903Y51821D01*
X442132D01*
X440439Y53514D01*
X450596Y43357D02*
X440439D01*
X445518Y48435D01*
Y41664D01*
X442132Y38279D02*
X440439Y36586D01*
Y33200D01*
X442132Y31507D01*
X448903D01*
X450596Y33200D01*
Y36586D01*
X448903Y38279D01*
X442132D01*
X491239Y67056D02*
Y63670D01*
Y65363D01*
X501396D01*
Y67056D01*
Y63670D01*
X491239Y53514D02*
Y56899D01*
X492932Y58592D01*
X499703D01*
X501396Y56899D01*
Y53514D01*
X499703Y51821D01*
X492932D01*
X491239Y53514D01*
X501396Y43357D02*
X491239D01*
X496318Y48435D01*
Y41664D01*
X501396Y31507D02*
Y38279D01*
X494625Y31507D01*
X492932D01*
X491239Y33200D01*
Y36586D01*
X492932Y38279D01*
X465839Y67056D02*
Y63670D01*
Y65363D01*
X475996D01*
Y67056D01*
Y63670D01*
X465839Y53514D02*
Y56899D01*
X467532Y58592D01*
X474303D01*
X475996Y56899D01*
Y53514D01*
X474303Y51821D01*
X467532D01*
X465839Y53514D01*
X475996Y43357D02*
X465839D01*
X470918Y48435D01*
Y41664D01*
X475996Y38279D02*
Y34893D01*
Y36586D01*
X465839D01*
X467532Y38279D01*
X415039Y67056D02*
Y63670D01*
Y65363D01*
X425196D01*
Y67056D01*
Y63670D01*
X415039Y53514D02*
Y56899D01*
X416732Y58592D01*
X423503D01*
X425196Y56899D01*
Y53514D01*
X423503Y51821D01*
X416732D01*
X415039Y53514D01*
X416732Y48435D02*
X415039Y46743D01*
Y43357D01*
X416732Y41664D01*
X418425D01*
X420118Y43357D01*
Y45050D01*
Y43357D01*
X421810Y41664D01*
X423503D01*
X425196Y43357D01*
Y46743D01*
X423503Y48435D01*
Y38279D02*
X425196Y36586D01*
Y33200D01*
X423503Y31507D01*
X416732D01*
X415039Y33200D01*
Y36586D01*
X416732Y38279D01*
X418425D01*
X420118Y36586D01*
Y31507D01*
X567439Y67056D02*
Y63670D01*
Y65363D01*
X577596D01*
Y67056D01*
Y63670D01*
X567439Y53514D02*
Y56899D01*
X569132Y58592D01*
X575903D01*
X577596Y56899D01*
Y53514D01*
X575903Y51821D01*
X569132D01*
X567439Y53514D01*
X577596Y43357D02*
X567439D01*
X572518Y48435D01*
Y41664D01*
X567439Y31507D02*
Y38279D01*
X572518D01*
X570825Y34893D01*
Y33200D01*
X572518Y31507D01*
X575903D01*
X577596Y33200D01*
Y36586D01*
X575903Y38279D01*
X592839Y67056D02*
Y63670D01*
Y65363D01*
X602996D01*
Y67056D01*
Y63670D01*
X592839Y53514D02*
Y56899D01*
X594532Y58592D01*
X601303D01*
X602996Y56899D01*
Y53514D01*
X601303Y51821D01*
X594532D01*
X592839Y53514D01*
X602996Y43357D02*
X592839D01*
X597918Y48435D01*
Y41664D01*
X592839Y31507D02*
X594532Y34893D01*
X597918Y38279D01*
X601303D01*
X602996Y36586D01*
Y33200D01*
X601303Y31507D01*
X599610D01*
X597918Y33200D01*
Y38279D01*
X86532Y60285D02*
X84839Y61978D01*
Y65363D01*
X86532Y67056D01*
X93303D01*
X94996Y65363D01*
Y61978D01*
X93303Y60285D01*
X89918D01*
Y63670D01*
X94996Y56899D02*
X84839D01*
X94996Y50128D01*
X84839D01*
Y46743D02*
X94996D01*
Y41664D01*
X93303Y39971D01*
X86532D01*
X84839Y41664D01*
Y46743D01*
X338839Y67056D02*
Y63670D01*
Y65363D01*
X348996D01*
Y67056D01*
Y63670D01*
X338839Y53514D02*
Y56899D01*
X340532Y58592D01*
X347303D01*
X348996Y56899D01*
Y53514D01*
X347303Y51821D01*
X340532D01*
X338839Y53514D01*
X340532Y48435D02*
X338839Y46743D01*
Y43357D01*
X340532Y41664D01*
X342225D01*
X343918Y43357D01*
Y45050D01*
Y43357D01*
X345610Y41664D01*
X347303D01*
X348996Y43357D01*
Y46743D01*
X347303Y48435D01*
X338839Y31507D02*
X340532Y34893D01*
X343918Y38279D01*
X347303D01*
X348996Y36586D01*
Y33200D01*
X347303Y31507D01*
X345610D01*
X343918Y33200D01*
Y38279D01*
X542039Y67056D02*
Y60285D01*
Y63670D01*
X552196D01*
X542039Y56899D02*
X552196Y50128D01*
X542039D02*
X552196Y56899D01*
X542039Y46743D02*
X552196D01*
Y41664D01*
X550503Y39971D01*
X543732D01*
X542039Y41664D01*
Y46743D01*
X364239Y67056D02*
Y63670D01*
Y65363D01*
X374396D01*
Y67056D01*
Y63670D01*
X364239Y53514D02*
Y56899D01*
X365932Y58592D01*
X372703D01*
X374396Y56899D01*
Y53514D01*
X372703Y51821D01*
X365932D01*
X364239Y53514D01*
X365932Y48435D02*
X364239Y46743D01*
Y43357D01*
X365932Y41664D01*
X367625D01*
X369318Y43357D01*
Y45050D01*
Y43357D01*
X371010Y41664D01*
X372703D01*
X374396Y43357D01*
Y46743D01*
X372703Y48435D01*
X364239Y38279D02*
Y31507D01*
X365932D01*
X372703Y38279D01*
X374396D01*
X526796Y67056D02*
X516639D01*
Y61978D01*
X518332Y60285D01*
X521718D01*
X523410Y61978D01*
Y67056D01*
Y63670D02*
X526796Y60285D01*
X516639Y56899D02*
X526796Y50128D01*
X516639D02*
X526796Y56899D01*
X516639Y46743D02*
X526796D01*
Y41664D01*
X525103Y39971D01*
X518332D01*
X516639Y41664D01*
Y46743D01*
X389639Y67056D02*
Y63670D01*
Y65363D01*
X399796D01*
Y67056D01*
Y63670D01*
X389639Y53514D02*
Y56899D01*
X391332Y58592D01*
X398103D01*
X399796Y56899D01*
Y53514D01*
X398103Y51821D01*
X391332D01*
X389639Y53514D01*
X391332Y48435D02*
X389639Y46743D01*
Y43357D01*
X391332Y41664D01*
X393025D01*
X394718Y43357D01*
Y45050D01*
Y43357D01*
X396410Y41664D01*
X398103D01*
X399796Y43357D01*
Y46743D01*
X398103Y48435D01*
X391332Y38279D02*
X389639Y36586D01*
Y33200D01*
X391332Y31507D01*
X393025D01*
X394718Y33200D01*
X396410Y31507D01*
X398103D01*
X399796Y33200D01*
Y36586D01*
X398103Y38279D01*
X396410D01*
X394718Y36586D01*
X393025Y38279D01*
X391332D01*
X394718Y36586D02*
Y33200D01*
X313439Y67056D02*
Y63670D01*
Y65363D01*
X323596D01*
Y67056D01*
Y63670D01*
X313439Y53514D02*
Y56899D01*
X315132Y58592D01*
X321903D01*
X323596Y56899D01*
Y53514D01*
X321903Y51821D01*
X315132D01*
X313439Y53514D01*
X315132Y48435D02*
X313439Y46743D01*
Y43357D01*
X315132Y41664D01*
X316825D01*
X318518Y43357D01*
Y45050D01*
Y43357D01*
X320210Y41664D01*
X321903D01*
X323596Y43357D01*
Y46743D01*
X321903Y48435D01*
X313439Y31507D02*
Y38279D01*
X318518D01*
X316825Y34893D01*
Y33200D01*
X318518Y31507D01*
X321903D01*
X323596Y33200D01*
Y36586D01*
X321903Y38279D01*
X288039Y67056D02*
Y63670D01*
Y65363D01*
X298196D01*
Y67056D01*
Y63670D01*
X288039Y53514D02*
Y56899D01*
X289732Y58592D01*
X296503D01*
X298196Y56899D01*
Y53514D01*
X296503Y51821D01*
X289732D01*
X288039Y53514D01*
X289732Y48435D02*
X288039Y46743D01*
Y43357D01*
X289732Y41664D01*
X291425D01*
X293118Y43357D01*
Y45050D01*
Y43357D01*
X294810Y41664D01*
X296503D01*
X298196Y43357D01*
Y46743D01*
X296503Y48435D01*
X298196Y33200D02*
X288039D01*
X293118Y38279D01*
Y31507D01*
X110239Y67056D02*
Y63670D01*
Y65363D01*
X120396D01*
Y67056D01*
Y63670D01*
X110239Y53514D02*
Y56899D01*
X111932Y58592D01*
X118703D01*
X120396Y56899D01*
Y53514D01*
X118703Y51821D01*
X111932D01*
X110239Y53514D01*
X120396Y43357D02*
X110239D01*
X115318Y48435D01*
Y41664D01*
X110239Y38279D02*
Y31507D01*
X111932D01*
X118703Y38279D01*
X120396D01*
X618239Y57745D02*
Y64516D01*
X628396D01*
Y57745D01*
X623318Y64516D02*
Y61130D01*
X628396Y54359D02*
X618239D01*
X628396Y47588D01*
X618239D01*
X645332Y57745D02*
X643639Y59438D01*
Y62823D01*
X645332Y64516D01*
X652103D01*
X653796Y62823D01*
Y59438D01*
X652103Y57745D01*
X648718D01*
Y61130D01*
X653796Y54359D02*
X643639D01*
X653796Y47588D01*
X643639D01*
Y44203D02*
X653796D01*
Y39124D01*
X652103Y37431D01*
X645332D01*
X643639Y39124D01*
Y44203D01*
X94996Y224536D02*
X84839D01*
X94996Y217765D01*
X84839D01*
X86532Y207608D02*
X84839Y209301D01*
Y212687D01*
X86532Y214379D01*
X93303D01*
X94996Y212687D01*
Y209301D01*
X93303Y207608D01*
X616546Y224536D02*
Y221150D01*
Y222843D01*
X626703D01*
Y224536D01*
Y221150D01*
X616546Y210994D02*
Y214379D01*
X618239Y216072D01*
X625010D01*
X626703Y214379D01*
Y210994D01*
X625010Y209301D01*
X618239D01*
X616546Y210994D01*
X628396Y205915D02*
Y199144D01*
X618239Y195759D02*
X616546Y194066D01*
Y190680D01*
X618239Y188988D01*
X625010D01*
X626703Y190680D01*
Y194066D01*
X625010Y195759D01*
X618239D01*
X262639Y224536D02*
Y221150D01*
Y222843D01*
X272796D01*
Y224536D01*
Y221150D01*
X262639Y210994D02*
Y214379D01*
X264332Y216072D01*
X271103D01*
X272796Y214379D01*
Y210994D01*
X271103Y209301D01*
X264332D01*
X262639Y210994D01*
X272796Y205915D02*
Y202530D01*
Y204223D01*
X262639D01*
X264332Y205915D01*
X272796Y192373D02*
X262639D01*
X267718Y197451D01*
Y190680D01*
X237239Y224536D02*
Y221150D01*
Y222843D01*
X247396D01*
Y224536D01*
Y221150D01*
X237239Y210994D02*
Y214379D01*
X238932Y216072D01*
X245703D01*
X247396Y214379D01*
Y210994D01*
X245703Y209301D01*
X238932D01*
X237239Y210994D01*
X247396Y205915D02*
Y202530D01*
Y204223D01*
X237239D01*
X238932Y205915D01*
X237239Y190680D02*
Y197451D01*
X242318D01*
X240625Y194066D01*
Y192373D01*
X242318Y190680D01*
X245703D01*
X247396Y192373D01*
Y195759D01*
X245703Y197451D01*
X313439Y224536D02*
Y221150D01*
Y222843D01*
X323596D01*
Y224536D01*
Y221150D01*
X313439Y210994D02*
Y214379D01*
X315132Y216072D01*
X321903D01*
X323596Y214379D01*
Y210994D01*
X321903Y209301D01*
X315132D01*
X313439Y210994D01*
X323596Y205915D02*
Y202530D01*
Y204223D01*
X313439D01*
X315132Y205915D01*
X323596Y190680D02*
Y197451D01*
X316825Y190680D01*
X315132D01*
X313439Y192373D01*
Y195759D01*
X315132Y197451D01*
X288039Y224536D02*
Y221150D01*
Y222843D01*
X298196D01*
Y224536D01*
Y221150D01*
X288039Y210994D02*
Y214379D01*
X289732Y216072D01*
X296503D01*
X298196Y214379D01*
Y210994D01*
X296503Y209301D01*
X289732D01*
X288039Y210994D01*
X298196Y205915D02*
Y202530D01*
Y204223D01*
X288039D01*
X289732Y205915D01*
Y197451D02*
X288039Y195759D01*
Y192373D01*
X289732Y190680D01*
X291425D01*
X293118Y192373D01*
Y194066D01*
Y192373D01*
X294810Y190680D01*
X296503D01*
X298196Y192373D01*
Y195759D01*
X296503Y197451D01*
X338839Y224536D02*
Y221150D01*
Y222843D01*
X348996D01*
Y224536D01*
Y221150D01*
X338839Y210994D02*
Y214379D01*
X340532Y216072D01*
X347303D01*
X348996Y214379D01*
Y210994D01*
X347303Y209301D01*
X340532D01*
X338839Y210994D01*
X348996Y205915D02*
Y202530D01*
Y204223D01*
X338839D01*
X340532Y205915D01*
X348996Y197451D02*
Y194066D01*
Y195759D01*
X338839D01*
X340532Y197451D01*
X389639Y224536D02*
Y221150D01*
Y222843D01*
X399796D01*
Y224536D01*
Y221150D01*
X389639Y210994D02*
Y214379D01*
X391332Y216072D01*
X398103D01*
X399796Y214379D01*
Y210994D01*
X398103Y209301D01*
X391332D01*
X389639Y210994D01*
X398103Y205915D02*
X399796Y204223D01*
Y200837D01*
X398103Y199144D01*
X391332D01*
X389639Y200837D01*
Y204223D01*
X391332Y205915D01*
X393025D01*
X394718Y204223D01*
Y199144D01*
X364239Y224536D02*
Y221150D01*
Y222843D01*
X374396D01*
Y224536D01*
Y221150D01*
X364239Y210994D02*
Y214379D01*
X365932Y216072D01*
X372703D01*
X374396Y214379D01*
Y210994D01*
X372703Y209301D01*
X365932D01*
X364239Y210994D01*
X374396Y205915D02*
Y202530D01*
Y204223D01*
X364239D01*
X365932Y205915D01*
Y197451D02*
X364239Y195759D01*
Y192373D01*
X365932Y190680D01*
X372703D01*
X374396Y192373D01*
Y195759D01*
X372703Y197451D01*
X365932D01*
X440439Y224536D02*
Y221150D01*
Y222843D01*
X450596D01*
Y224536D01*
Y221150D01*
X440439Y210994D02*
Y214379D01*
X442132Y216072D01*
X448903D01*
X450596Y214379D01*
Y210994D01*
X448903Y209301D01*
X442132D01*
X440439Y210994D01*
Y205915D02*
Y199144D01*
X442132D01*
X448903Y205915D01*
X450596D01*
X415039Y224536D02*
Y221150D01*
Y222843D01*
X425196D01*
Y224536D01*
Y221150D01*
X415039Y210994D02*
Y214379D01*
X416732Y216072D01*
X423503D01*
X425196Y214379D01*
Y210994D01*
X423503Y209301D01*
X416732D01*
X415039Y210994D01*
X416732Y205915D02*
X415039Y204223D01*
Y200837D01*
X416732Y199144D01*
X418425D01*
X420118Y200837D01*
X421810Y199144D01*
X423503D01*
X425196Y200837D01*
Y204223D01*
X423503Y205915D01*
X421810D01*
X420118Y204223D01*
X418425Y205915D01*
X416732D01*
X420118Y204223D02*
Y200837D01*
X542039Y224536D02*
Y221150D01*
Y222843D01*
X552196D01*
Y224536D01*
Y221150D01*
X542039Y210994D02*
Y214379D01*
X543732Y216072D01*
X550503D01*
X552196Y214379D01*
Y210994D01*
X550503Y209301D01*
X543732D01*
X542039Y210994D01*
X543732Y205915D02*
X542039Y204223D01*
Y200837D01*
X543732Y199144D01*
X545425D01*
X547118Y200837D01*
Y202530D01*
Y200837D01*
X548810Y199144D01*
X550503D01*
X552196Y200837D01*
Y204223D01*
X550503Y205915D01*
X567439Y224536D02*
Y221150D01*
Y222843D01*
X577596D01*
Y224536D01*
Y221150D01*
X567439Y210994D02*
Y214379D01*
X569132Y216072D01*
X575903D01*
X577596Y214379D01*
Y210994D01*
X575903Y209301D01*
X569132D01*
X567439Y210994D01*
X577596Y199144D02*
Y205915D01*
X570825Y199144D01*
X569132D01*
X567439Y200837D01*
Y204223D01*
X569132Y205915D01*
X516639Y224536D02*
Y221150D01*
Y222843D01*
X526796D01*
Y224536D01*
Y221150D01*
X516639Y210994D02*
Y214379D01*
X518332Y216072D01*
X525103D01*
X526796Y214379D01*
Y210994D01*
X525103Y209301D01*
X518332D01*
X516639Y210994D01*
X526796Y200837D02*
X516639D01*
X521718Y205915D01*
Y199144D01*
X491239Y224536D02*
Y221150D01*
Y222843D01*
X501396D01*
Y224536D01*
Y221150D01*
X491239Y210994D02*
Y214379D01*
X492932Y216072D01*
X499703D01*
X501396Y214379D01*
Y210994D01*
X499703Y209301D01*
X492932D01*
X491239Y210994D01*
Y199144D02*
Y205915D01*
X496318D01*
X494625Y202530D01*
Y200837D01*
X496318Y199144D01*
X499703D01*
X501396Y200837D01*
Y204223D01*
X499703Y205915D01*
X465839Y224536D02*
Y221150D01*
Y222843D01*
X475996D01*
Y224536D01*
Y221150D01*
X465839Y210994D02*
Y214379D01*
X467532Y216072D01*
X474303D01*
X475996Y214379D01*
Y210994D01*
X474303Y209301D01*
X467532D01*
X465839Y210994D01*
Y199144D02*
X467532Y202530D01*
X470918Y205915D01*
X474303D01*
X475996Y204223D01*
Y200837D01*
X474303Y199144D01*
X472610D01*
X470918Y200837D01*
Y205915D01*
X592839Y224536D02*
Y221150D01*
Y222843D01*
X602996D01*
Y224536D01*
Y221150D01*
X594532Y216072D02*
X592839Y214379D01*
Y210994D01*
X594532Y209301D01*
X601303D01*
X602996Y210994D01*
Y214379D01*
X601303Y216072D01*
X594532D01*
X602996Y205915D02*
Y202530D01*
Y204223D01*
X592839D01*
X594532Y205915D01*
X648718Y224536D02*
Y217765D01*
X645332Y221150D02*
X652103D01*
X645332Y214379D02*
X643639Y212687D01*
Y209301D01*
X645332Y207608D01*
X647025D01*
X648718Y209301D01*
Y210994D01*
Y209301D01*
X650410Y207608D01*
X652103D01*
X653796Y209301D01*
Y212687D01*
X652103Y214379D01*
X653796Y204223D02*
X652103D01*
Y202530D01*
X653796D01*
Y204223D01*
X645332Y195759D02*
X643639Y194066D01*
Y190680D01*
X645332Y188988D01*
X647025D01*
X648718Y190680D01*
Y192373D01*
Y190680D01*
X650410Y188988D01*
X652103D01*
X653796Y190680D01*
Y194066D01*
X652103Y195759D01*
X643639Y185602D02*
X650410D01*
X653796Y182216D01*
X650410Y178831D01*
X643639D01*
X670732Y217765D02*
X669039Y219458D01*
Y222843D01*
X670732Y224536D01*
X677503D01*
X679196Y222843D01*
Y219458D01*
X677503Y217765D01*
X674118D01*
Y221150D01*
X679196Y214379D02*
X669039D01*
X679196Y207608D01*
X669039D01*
Y204223D02*
X679196D01*
Y199144D01*
X677503Y197451D01*
X670732D01*
X669039Y199144D01*
Y204223D01*
X186439Y224536D02*
Y221150D01*
Y222843D01*
X196596D01*
Y224536D01*
Y221150D01*
X186439Y210994D02*
Y214379D01*
X188132Y216072D01*
X194903D01*
X196596Y214379D01*
Y210994D01*
X194903Y209301D01*
X188132D01*
X186439Y210994D01*
X196596Y205915D02*
Y202530D01*
Y204223D01*
X186439D01*
X188132Y205915D01*
X186439Y197451D02*
Y190680D01*
X188132D01*
X194903Y197451D01*
X196596D01*
X161039Y224536D02*
Y221150D01*
Y222843D01*
X171196D01*
Y224536D01*
Y221150D01*
X161039Y210994D02*
Y214379D01*
X162732Y216072D01*
X169503D01*
X171196Y214379D01*
Y210994D01*
X169503Y209301D01*
X162732D01*
X161039Y210994D01*
X171196Y205915D02*
Y202530D01*
Y204223D01*
X161039D01*
X162732Y205915D01*
Y197451D02*
X161039Y195759D01*
Y192373D01*
X162732Y190680D01*
X164425D01*
X166118Y192373D01*
X167810Y190680D01*
X169503D01*
X171196Y192373D01*
Y195759D01*
X169503Y197451D01*
X167810D01*
X166118Y195759D01*
X164425Y197451D01*
X162732D01*
X166118Y195759D02*
Y192373D01*
X140718Y224536D02*
Y217765D01*
X137332Y221150D02*
X144103D01*
X135639Y207608D02*
Y214379D01*
X140718D01*
X139025Y210994D01*
Y209301D01*
X140718Y207608D01*
X144103D01*
X145796Y209301D01*
Y212687D01*
X144103Y214379D01*
X135639Y204223D02*
X142410D01*
X145796Y200837D01*
X142410Y197451D01*
X135639D01*
X211839Y224536D02*
Y221150D01*
Y222843D01*
X221996D01*
Y224536D01*
Y221150D01*
X211839Y210994D02*
Y214379D01*
X213532Y216072D01*
X220303D01*
X221996Y214379D01*
Y210994D01*
X220303Y209301D01*
X213532D01*
X211839Y210994D01*
X221996Y205915D02*
Y202530D01*
Y204223D01*
X211839D01*
X213532Y205915D01*
X211839Y190680D02*
X213532Y194066D01*
X216918Y197451D01*
X220303D01*
X221996Y195759D01*
Y192373D01*
X220303Y190680D01*
X218610D01*
X216918Y192373D01*
Y197451D01*
X111932Y217765D02*
X110239Y219458D01*
Y222843D01*
X111932Y224536D01*
X118703D01*
X120396Y222843D01*
Y219458D01*
X118703Y217765D01*
X115318D01*
Y221150D01*
X120396Y214379D02*
X110239D01*
X120396Y207608D01*
X110239D01*
Y204223D02*
X120396D01*
Y199144D01*
X118703Y197451D01*
X111932D01*
X110239Y199144D01*
Y204223D01*
D65*
X502415Y145284D02*
X504954Y147823D01*
X510033D01*
X512572Y145284D01*
Y135127D01*
X510033Y132588D01*
X504954D01*
X502415Y135127D01*
X497337Y147823D02*
Y135127D01*
X494798Y132588D01*
X489719D01*
X487180Y135127D01*
Y147823D01*
X471945Y145284D02*
X474484Y147823D01*
X479563D01*
X482102Y145284D01*
Y142745D01*
X479563Y140205D01*
X474484D01*
X471945Y137666D01*
Y135127D01*
X474484Y132588D01*
X479563D01*
X482102Y135127D01*
X466867Y147823D02*
X456710D01*
X461788D01*
Y132588D01*
X444014Y147823D02*
X449092D01*
X451632Y145284D01*
Y135127D01*
X449092Y132588D01*
X444014D01*
X441475Y135127D01*
Y145284D01*
X444014Y147823D01*
X436397Y132588D02*
Y147823D01*
X431318Y142745D01*
X426240Y147823D01*
Y132588D01*
X395770Y147823D02*
X405927D01*
Y132588D01*
X395770D01*
X405927Y140205D02*
X400848D01*
X380535Y145284D02*
X383074Y147823D01*
X388152D01*
X390691Y145284D01*
Y142745D01*
X388152Y140205D01*
X383074D01*
X380535Y137666D01*
Y135127D01*
X383074Y132588D01*
X388152D01*
X390691Y135127D01*
X375456Y132588D02*
Y147823D01*
X367839D01*
X365300Y145284D01*
Y140205D01*
X367839Y137666D01*
X375456D01*
X360221Y145284D02*
X357682Y147823D01*
X352604D01*
X350065Y145284D01*
Y142745D01*
X352604Y140205D01*
X355143D01*
X352604D01*
X350065Y137666D01*
Y135127D01*
X352604Y132588D01*
X357682D01*
X360221Y135127D01*
X334829Y132588D02*
X344986D01*
X334829Y142745D01*
Y145284D01*
X337369Y147823D01*
X342447D01*
X344986Y145284D01*
X314516Y147823D02*
Y132588D01*
X306898D01*
X304359Y135127D01*
Y137666D01*
X306898Y140205D01*
X314516D01*
X306898D01*
X304359Y142745D01*
Y145284D01*
X306898Y147823D01*
X314516D01*
X291663D02*
X296742D01*
X299281Y145284D01*
Y135127D01*
X296742Y132588D01*
X291663D01*
X289124Y135127D01*
Y145284D01*
X291663Y147823D01*
X284046Y132588D02*
Y142745D01*
X278968Y147823D01*
X273889Y142745D01*
Y132588D01*
Y140205D01*
X284046D01*
X268811Y132588D02*
Y147823D01*
X261193D01*
X258654Y145284D01*
Y140205D01*
X261193Y137666D01*
X268811D01*
X263732D02*
X258654Y132588D01*
X253576Y147823D02*
Y132588D01*
X245958D01*
X243419Y135127D01*
Y145284D01*
X245958Y147823D01*
X253576D01*
D83*
X685800Y228600D02*
Y254000D01*
X76200D02*
X685800D01*
X76200Y228600D02*
Y254000D01*
Y228600D02*
X685800D01*
X76200Y0D02*
X685800D01*
X76200D02*
Y25400D01*
X685800D01*
Y0D02*
Y25400D01*
M02*
