G04*
G04 #@! TF.GenerationSoftware,Altium Limited,Altium Designer,25.8.1 (18)*
G04*
G04 Layer_Color=16711935*
%FSLAX44Y44*%
%MOMM*%
G71*
G04*
G04 #@! TF.SameCoordinates,F54E5B92-F0D5-4042-A45F-7CF7407C5741*
G04*
G04*
G04 #@! TF.FilePolarity,Negative*
G04*
G01*
G75*
%ADD52C,1.1176*%
%ADD53C,1.7272*%
%ADD54R,1.7272X1.7272*%
G04:AMPARAMS|DCode=55|XSize=1mm|YSize=2.2mm|CornerRadius=0.5mm|HoleSize=0mm|Usage=FLASHONLY|Rotation=270.000|XOffset=0mm|YOffset=0mm|HoleType=Round|Shape=RoundedRectangle|*
%AMROUNDEDRECTD55*
21,1,1.0000,1.2000,0,0,270.0*
21,1,0.0000,2.2000,0,0,270.0*
1,1,1.0000,-0.6000,0.0000*
1,1,1.0000,-0.6000,0.0000*
1,1,1.0000,0.6000,0.0000*
1,1,1.0000,0.6000,0.0000*
%
%ADD55ROUNDEDRECTD55*%
G04:AMPARAMS|DCode=56|XSize=1mm|YSize=1.8mm|CornerRadius=0.5mm|HoleSize=0mm|Usage=FLASHONLY|Rotation=270.000|XOffset=0mm|YOffset=0mm|HoleType=Round|Shape=RoundedRectangle|*
%AMROUNDEDRECTD56*
21,1,1.0000,0.8000,0,0,270.0*
21,1,0.0000,1.8000,0,0,270.0*
1,1,1.0000,-0.4000,0.0000*
1,1,1.0000,-0.4000,0.0000*
1,1,1.0000,0.4000,0.0000*
1,1,1.0000,0.4000,0.0000*
%
%ADD56ROUNDEDRECTD56*%
%ADD57R,1.1176X1.1176*%
%ADD58R,1.1176X1.1176*%
D52*
X265580Y119677D02*
D03*
X95250Y114300D02*
D03*
Y127000D02*
D03*
D53*
X647700Y241300D02*
D03*
X88900Y12700D02*
D03*
X114300Y241300D02*
D03*
X647700Y12700D02*
D03*
X622300Y241300D02*
D03*
X571500D02*
D03*
X139700D02*
D03*
X88900D02*
D03*
X546100D02*
D03*
X368300D02*
D03*
X469900D02*
D03*
X292100D02*
D03*
X215900D02*
D03*
X393700D02*
D03*
X317500D02*
D03*
X495300D02*
D03*
X419100D02*
D03*
X241300D02*
D03*
X596900D02*
D03*
X342900D02*
D03*
X165100D02*
D03*
X520700D02*
D03*
X266700D02*
D03*
X444500D02*
D03*
X190500D02*
D03*
X165100Y12700D02*
D03*
X190500D02*
D03*
X393700D02*
D03*
X114300D02*
D03*
X520700D02*
D03*
X495300D02*
D03*
X266700D02*
D03*
X419100D02*
D03*
X546100D02*
D03*
X342900D02*
D03*
X139700D02*
D03*
X571500D02*
D03*
X444500D02*
D03*
X292100D02*
D03*
X368300D02*
D03*
X215900D02*
D03*
X596900D02*
D03*
X317500D02*
D03*
X469900D02*
D03*
X241300D02*
D03*
X622300D02*
D03*
D54*
X673100D02*
D03*
Y241300D02*
D03*
D55*
X17150Y12700D02*
D03*
Y99100D02*
D03*
Y154900D02*
D03*
Y241300D02*
D03*
D56*
X57150Y12700D02*
D03*
Y99100D02*
D03*
Y154900D02*
D03*
Y241300D02*
D03*
D57*
X95250Y139700D02*
D03*
D58*
X252880Y119677D02*
D03*
M02*
