G04*
G04 #@! TF.GenerationSoftware,Altium Limited,Altium Designer,25.8.1 (18)*
G04*
G04 Layer_Color=8388736*
%FSLAX44Y44*%
%MOMM*%
G71*
G04*
G04 #@! TF.SameCoordinates,F54E5B92-F0D5-4042-A45F-7CF7407C5741*
G04*
G04*
G04 #@! TF.FilePolarity,Negative*
G04*
G01*
G75*
%ADD17R,1.5500X1.3000*%
%ADD20R,1.1500X0.3000*%
G04:AMPARAMS|DCode=23|XSize=0.2425mm|YSize=0.8397mm|CornerRadius=0.1212mm|HoleSize=0mm|Usage=FLASHONLY|Rotation=270.000|XOffset=0mm|YOffset=0mm|HoleType=Round|Shape=RoundedRectangle|*
%AMROUNDEDRECTD23*
21,1,0.2425,0.5972,0,0,270.0*
21,1,0.0000,0.8397,0,0,270.0*
1,1,0.2425,-0.2986,0.0000*
1,1,0.2425,-0.2986,0.0000*
1,1,0.2425,0.2986,0.0000*
1,1,0.2425,0.2986,0.0000*
%
%ADD23ROUNDEDRECTD23*%
G04:AMPARAMS|DCode=24|XSize=0.8397mm|YSize=0.2425mm|CornerRadius=0.1212mm|HoleSize=0mm|Usage=FLASHONLY|Rotation=270.000|XOffset=0mm|YOffset=0mm|HoleType=Round|Shape=RoundedRectangle|*
%AMROUNDEDRECTD24*
21,1,0.8397,0.0000,0,0,270.0*
21,1,0.5972,0.2425,0,0,270.0*
1,1,0.2425,0.0000,-0.2986*
1,1,0.2425,0.0000,0.2986*
1,1,0.2425,0.0000,0.2986*
1,1,0.2425,0.0000,-0.2986*
%
%ADD24ROUNDEDRECTD24*%
%ADD25R,0.2425X0.8397*%
%ADD28R,1.1500X0.6000*%
%ADD36R,1.3571X0.5721*%
G04:AMPARAMS|DCode=37|XSize=1.3571mm|YSize=0.5721mm|CornerRadius=0.2861mm|HoleSize=0mm|Usage=FLASHONLY|Rotation=0.000|XOffset=0mm|YOffset=0mm|HoleType=Round|Shape=RoundedRectangle|*
%AMROUNDEDRECTD37*
21,1,1.3571,0.0000,0,0,0.0*
21,1,0.7850,0.5721,0,0,0.0*
1,1,0.5721,0.3925,0.0000*
1,1,0.5721,-0.3925,0.0000*
1,1,0.5721,-0.3925,0.0000*
1,1,0.5721,0.3925,0.0000*
%
%ADD37ROUNDEDRECTD37*%
%ADD38R,0.6416X0.7016*%
%ADD39R,0.7016X0.6416*%
%ADD40R,0.7016X0.4516*%
%ADD41R,0.9016X0.5016*%
%ADD42R,2.0500X2.0500*%
G04:AMPARAMS|DCode=43|XSize=0.6416mm|YSize=0.7016mm|CornerRadius=0.1183mm|HoleSize=0mm|Usage=FLASHONLY|Rotation=0.000|XOffset=0mm|YOffset=0mm|HoleType=Round|Shape=RoundedRectangle|*
%AMROUNDEDRECTD43*
21,1,0.6416,0.4650,0,0,0.0*
21,1,0.4050,0.7016,0,0,0.0*
1,1,0.2366,0.2025,-0.2325*
1,1,0.2366,-0.2025,-0.2325*
1,1,0.2366,-0.2025,0.2325*
1,1,0.2366,0.2025,0.2325*
%
%ADD43ROUNDEDRECTD43*%
%ADD44R,0.5016X0.9016*%
%ADD45R,0.4516X0.7016*%
G04:AMPARAMS|DCode=46|XSize=0.6416mm|YSize=0.7016mm|CornerRadius=0.1183mm|HoleSize=0mm|Usage=FLASHONLY|Rotation=270.000|XOffset=0mm|YOffset=0mm|HoleType=Round|Shape=RoundedRectangle|*
%AMROUNDEDRECTD46*
21,1,0.6416,0.4650,0,0,270.0*
21,1,0.4050,0.7016,0,0,270.0*
1,1,0.2366,-0.2325,-0.2025*
1,1,0.2366,-0.2325,0.2025*
1,1,0.2366,0.2325,0.2025*
1,1,0.2366,0.2325,-0.2025*
%
%ADD46ROUNDEDRECTD46*%
%ADD47R,2.2516X1.0516*%
%ADD48R,2.2516X3.3516*%
%ADD49R,0.8016X0.7016*%
%ADD50R,0.9016X0.9016*%
%ADD51R,1.3016X1.3016*%
%ADD52C,1.1176*%
%ADD53C,1.7272*%
%ADD54R,1.7272X1.7272*%
G04:AMPARAMS|DCode=55|XSize=1mm|YSize=2.2mm|CornerRadius=0.5mm|HoleSize=0mm|Usage=FLASHONLY|Rotation=270.000|XOffset=0mm|YOffset=0mm|HoleType=Round|Shape=RoundedRectangle|*
%AMROUNDEDRECTD55*
21,1,1.0000,1.2000,0,0,270.0*
21,1,0.0000,2.2000,0,0,270.0*
1,1,1.0000,-0.6000,0.0000*
1,1,1.0000,-0.6000,0.0000*
1,1,1.0000,0.6000,0.0000*
1,1,1.0000,0.6000,0.0000*
%
%ADD55ROUNDEDRECTD55*%
G04:AMPARAMS|DCode=56|XSize=1mm|YSize=1.8mm|CornerRadius=0.5mm|HoleSize=0mm|Usage=FLASHONLY|Rotation=270.000|XOffset=0mm|YOffset=0mm|HoleType=Round|Shape=RoundedRectangle|*
%AMROUNDEDRECTD56*
21,1,1.0000,0.8000,0,0,270.0*
21,1,0.0000,1.8000,0,0,270.0*
1,1,1.0000,-0.4000,0.0000*
1,1,1.0000,-0.4000,0.0000*
1,1,1.0000,0.4000,0.0000*
1,1,1.0000,0.4000,0.0000*
%
%ADD56ROUNDEDRECTD56*%
%ADD57R,1.1176X1.1176*%
%ADD58R,1.1176X1.1176*%
G36*
X624060Y144000D02*
Y136500D01*
X610060D01*
Y150500D01*
X617560D01*
X624060Y144000D01*
D02*
G37*
G36*
X255707Y57175D02*
X255723Y57169D01*
X255972Y57164D01*
X255989Y57159D01*
X256129Y57153D01*
X256146Y57148D01*
X256200Y57142D01*
X256360Y57129D01*
X256446Y57123D01*
X256560Y57118D01*
X256657Y57113D01*
X256706Y57107D01*
X256749Y57102D01*
X256771Y57096D01*
X256804Y57091D01*
X256825Y57085D01*
X256898Y57077D01*
X257001Y57072D01*
X257023Y57067D01*
X257137Y57061D01*
X257153Y57056D01*
X257218Y57050D01*
X257234Y57045D01*
X257256Y57039D01*
X257291Y57031D01*
X257334Y57026D01*
X257394Y57021D01*
X257464Y57015D01*
X257562Y57004D01*
X257627Y56993D01*
X257692Y56977D01*
X257724Y56972D01*
X257784Y56966D01*
X257849Y56961D01*
X257914Y56950D01*
X257979Y56934D01*
X258006Y56929D01*
X258038Y56923D01*
X258081Y56918D01*
X258155Y56909D01*
X258176Y56904D01*
X258225Y56899D01*
X258241Y56893D01*
X258279Y56883D01*
X258301Y56877D01*
X258339Y56872D01*
X258360Y56866D01*
X258423Y56858D01*
X258455Y56853D01*
X258482Y56847D01*
X258526Y56836D01*
X258571Y56823D01*
X258593Y56817D01*
X258669Y56807D01*
X258731Y56799D01*
X258753Y56793D01*
X258780Y56782D01*
X258810Y56774D01*
X258831Y56769D01*
X258869Y56763D01*
X258891Y56758D01*
X258937Y56750D01*
X258980Y56739D01*
X259010Y56731D01*
X259081Y56709D01*
X259143Y56701D01*
X259197Y56690D01*
X259224Y56679D01*
X259286Y56660D01*
X259324Y56655D01*
X259346Y56650D01*
X259386Y56642D01*
X259408Y56636D01*
X259451Y56620D01*
X259476Y56612D01*
X259497Y56606D01*
X259535Y56601D01*
X259557Y56596D01*
X259592Y56587D01*
X259636Y56571D01*
X259671Y56558D01*
X259692Y56552D01*
X259749Y56544D01*
X259771Y56539D01*
X259790Y56530D01*
X259839Y56509D01*
X259882Y56498D01*
X259933Y56490D01*
X259977Y56474D01*
X260006Y56460D01*
X260050Y56449D01*
X260112Y56436D01*
X260155Y56420D01*
X260212Y56395D01*
X260283Y56384D01*
X260315Y56363D01*
X260342Y56352D01*
X260399Y56338D01*
X260442Y56327D01*
X260510Y56298D01*
X260575Y56281D01*
X260610Y56268D01*
X260618Y56260D01*
X260656Y56244D01*
X260713Y56230D01*
X260756Y56214D01*
X260765Y56206D01*
X260792Y56195D01*
X260835Y56184D01*
X260870Y56176D01*
X260897Y56165D01*
X260905Y56157D01*
X260916Y56151D01*
X260954Y56135D01*
X260989Y56127D01*
X261011Y56122D01*
X261030Y56114D01*
X261062Y56092D01*
X261089Y56081D01*
X261111Y56076D01*
X261141Y56068D01*
X261168Y56057D01*
X261176Y56049D01*
X261203Y56038D01*
X261225Y56032D01*
X261263Y56021D01*
X261311Y55995D01*
X261360Y55973D01*
X261390Y55965D01*
X261479Y55924D01*
X261514Y55916D01*
X261533Y55908D01*
X261555Y55886D01*
X261582Y55875D01*
X261604Y55870D01*
X261636Y55865D01*
X261690Y55827D01*
X261734Y55816D01*
X261769Y55802D01*
X261777Y55794D01*
X261788Y55789D01*
X261799Y55778D01*
X261826Y55767D01*
X261866Y55759D01*
X261896Y55740D01*
X261907Y55729D01*
X261934Y55718D01*
X261969Y55705D01*
X262002Y55683D01*
X262037Y55670D01*
X262067Y55661D01*
X262110Y55634D01*
X262118Y55626D01*
X262145Y55615D01*
X262189Y55599D01*
X262221Y55578D01*
X262259Y55561D01*
X262294Y55548D01*
X262313Y55534D01*
X262346Y55512D01*
X262375Y55504D01*
X262419Y55477D01*
X262443Y55464D01*
X262486Y55448D01*
X262540Y55410D01*
X262584Y55393D01*
X262622Y55366D01*
X262660Y55350D01*
X262698Y55328D01*
X262708Y55318D01*
X262719Y55312D01*
X262746Y55301D01*
X262790Y55285D01*
X262817Y55258D01*
X262871Y55236D01*
X262882Y55231D01*
X262920Y55204D01*
X262955Y55190D01*
X263012Y55150D01*
X263033Y55144D01*
X263071Y55117D01*
X263104Y55096D01*
X263125Y55090D01*
X263174Y55052D01*
X263201Y55041D01*
X263236Y55028D01*
X263266Y54998D01*
X263293Y54987D01*
X263304Y54982D01*
X263334Y54957D01*
X263369Y54939D01*
X263407Y54917D01*
X263428Y54895D01*
X263483Y54874D01*
X263512Y54849D01*
X263526Y54836D01*
X263548Y54830D01*
X263577Y54806D01*
X263591Y54792D01*
X263650Y54760D01*
X263667Y54744D01*
X263678Y54738D01*
X263726Y54711D01*
X263743Y54695D01*
X263753Y54689D01*
X263791Y54668D01*
X263821Y54644D01*
X263856Y54625D01*
X263867Y54619D01*
X263886Y54606D01*
X263892Y54595D01*
X263905Y54581D01*
X263954Y54554D01*
X263970Y54538D01*
X263981Y54532D01*
X264032Y54497D01*
X264051Y54478D01*
X264089Y54457D01*
X264111Y54435D01*
X264122Y54430D01*
X264160Y54408D01*
X264187Y54381D01*
X264197Y54376D01*
X264208Y54365D01*
X264235Y54348D01*
X264257Y54327D01*
X264268Y54321D01*
X264306Y54294D01*
X264317Y54283D01*
X264327Y54278D01*
X264338Y54267D01*
X264349Y54262D01*
X264379Y54237D01*
X264419Y54208D01*
X264447Y54191D01*
X264479Y54159D01*
X264490Y54153D01*
X264520Y54129D01*
X264538Y54110D01*
X264549Y54105D01*
X264579Y54080D01*
X264593Y54067D01*
X264604Y54061D01*
X264652Y54023D01*
X264674Y54002D01*
X264685Y53996D01*
X264715Y53972D01*
X264720Y53961D01*
X264752Y53940D01*
X264793Y53899D01*
X264804Y53893D01*
X264842Y53856D01*
X264853Y53850D01*
X264863Y53839D01*
X264874Y53834D01*
X264888Y53815D01*
X264901Y53801D01*
X264912Y53796D01*
X264942Y53772D01*
X264953Y53766D01*
X264958Y53755D01*
X264966Y53747D01*
X264977Y53742D01*
X264988Y53731D01*
X264999Y53726D01*
X265037Y53688D01*
X265047Y53682D01*
X265145Y53585D01*
X265156Y53580D01*
X265205Y53531D01*
X265215Y53525D01*
X265224Y53517D01*
X265229Y53506D01*
X265248Y53487D01*
X265259Y53482D01*
X265289Y53452D01*
X265294Y53441D01*
X265313Y53428D01*
X265343Y53398D01*
X265348Y53387D01*
X265356Y53379D01*
X265367Y53374D01*
X265386Y53355D01*
X265391Y53344D01*
X265416Y53320D01*
X265427Y53314D01*
X265440Y53301D01*
X265445Y53290D01*
X265459Y53276D01*
X265470Y53271D01*
X265483Y53257D01*
X265489Y53246D01*
X265508Y53222D01*
X265519Y53217D01*
X265586Y53149D01*
X265592Y53138D01*
X265616Y53114D01*
X265627Y53108D01*
X265640Y53095D01*
X265646Y53084D01*
X265670Y53054D01*
X265689Y53035D01*
X265695Y53025D01*
X265705Y53014D01*
X265711Y53003D01*
X265730Y52989D01*
X265738Y52981D01*
X265743Y52970D01*
X265754Y52959D01*
X265760Y52949D01*
X265808Y52900D01*
X265814Y52889D01*
X265852Y52851D01*
X265857Y52840D01*
X265881Y52811D01*
X265906Y52786D01*
X265911Y52775D01*
X265935Y52746D01*
X265954Y52727D01*
X265960Y52716D01*
X266003Y52673D01*
X266025Y52635D01*
X266063Y52597D01*
X266079Y52570D01*
X266090Y52559D01*
X266095Y52548D01*
X266112Y52532D01*
X266117Y52521D01*
X266141Y52491D01*
X266155Y52478D01*
X266160Y52467D01*
X266212Y52399D01*
X266241Y52353D01*
X266263Y52331D01*
X266269Y52320D01*
X266293Y52285D01*
X266304Y52280D01*
X266344Y52212D01*
X266361Y52196D01*
X266366Y52185D01*
X266401Y52134D01*
X266420Y52115D01*
X266447Y52066D01*
X266458Y52055D01*
X266464Y52044D01*
X266485Y52012D01*
X266491Y52001D01*
X266515Y51971D01*
X266523Y51963D01*
X266537Y51928D01*
X266556Y51898D01*
X266577Y51877D01*
X266610Y51817D01*
X266626Y51801D01*
X266637Y51774D01*
X266658Y51736D01*
X266680Y51714D01*
X266694Y51679D01*
X266715Y51646D01*
X266723Y51638D01*
X266729Y51627D01*
X266761Y51568D01*
X266777Y51552D01*
X266788Y51525D01*
X266815Y51476D01*
X266826Y51465D01*
X266842Y51427D01*
X266875Y51368D01*
X266891Y51340D01*
X266924Y51281D01*
X266945Y51248D01*
X266951Y51227D01*
X266973Y51189D01*
X266994Y51156D01*
X267002Y51127D01*
X267029Y51083D01*
X267037Y51075D01*
X267064Y50999D01*
X267092Y50961D01*
X267102Y50924D01*
X267129Y50875D01*
X267157Y50815D01*
X267173Y50772D01*
X267194Y50739D01*
X267205Y50701D01*
X267219Y50666D01*
X267232Y50647D01*
X267249Y50620D01*
X267265Y50555D01*
X267308Y50463D01*
X267314Y50442D01*
X267327Y50406D01*
X267351Y50360D01*
X267362Y50322D01*
X267370Y50287D01*
X267381Y50260D01*
X267406Y50220D01*
X267425Y50136D01*
X267460Y50057D01*
X267465Y50019D01*
X267471Y49998D01*
X267479Y49968D01*
X267509Y49900D01*
X267514Y49879D01*
X267528Y49816D01*
X267538Y49789D01*
X267552Y49759D01*
X267563Y49732D01*
X267571Y49675D01*
X267576Y49643D01*
X267606Y49548D01*
X267617Y49505D01*
X267625Y49453D01*
X267630Y49432D01*
X267641Y49378D01*
X267647Y49356D01*
X267660Y49321D01*
X267666Y49299D01*
X267671Y49245D01*
X267682Y49169D01*
X267687Y49148D01*
X267703Y49088D01*
X267714Y49023D01*
X267720Y48985D01*
X267725Y48963D01*
X267731Y48877D01*
X267736Y48839D01*
X267744Y48787D01*
X267755Y48733D01*
X267760Y48701D01*
X267766Y48657D01*
X267771Y48598D01*
X267777Y48511D01*
X267782Y48387D01*
X267787Y48235D01*
X267790Y47843D01*
X267785Y47826D01*
X267779Y47534D01*
X267774Y47518D01*
X267766Y47380D01*
X267758Y47306D01*
X267752Y47269D01*
X267741Y47204D01*
X267736Y47182D01*
X267728Y47076D01*
X267722Y47022D01*
X267712Y46952D01*
X267706Y46925D01*
X267695Y46865D01*
X267690Y46844D01*
X267682Y46814D01*
X267676Y46760D01*
X267668Y46687D01*
X267663Y46654D01*
X267657Y46632D01*
X267633Y46554D01*
X267622Y46489D01*
X267609Y46410D01*
X267584Y46332D01*
X267574Y46289D01*
X267565Y46242D01*
X267560Y46216D01*
X267544Y46172D01*
X267525Y46110D01*
X267519Y46088D01*
X267514Y46050D01*
X267509Y46029D01*
X267476Y45958D01*
X267468Y45912D01*
X267463Y45891D01*
X267457Y45863D01*
X267446Y45836D01*
X267422Y45780D01*
X267416Y45758D01*
X267408Y45728D01*
X267403Y45707D01*
X267373Y45644D01*
X267368Y45623D01*
X267360Y45587D01*
X267354Y45566D01*
X267330Y45520D01*
X267314Y45482D01*
X267300Y45425D01*
X267259Y45346D01*
X267251Y45317D01*
X267246Y45295D01*
X267219Y45252D01*
X267205Y45206D01*
X267192Y45170D01*
X267178Y45157D01*
X267173Y45146D01*
X267162Y45119D01*
X267157Y45097D01*
X267143Y45062D01*
X267108Y45000D01*
X267089Y44948D01*
X267081Y44940D01*
X267075Y44929D01*
X267054Y44881D01*
X267043Y44854D01*
X267037Y44843D01*
X267013Y44813D01*
X266999Y44778D01*
X266967Y44718D01*
X266924Y44637D01*
X266913Y44626D01*
X266897Y44588D01*
X266886Y44561D01*
X266880Y44550D01*
X266859Y44529D01*
X266853Y44518D01*
X266810Y44437D01*
X266777Y44377D01*
X266767Y44366D01*
X266761Y44356D01*
X266750Y44345D01*
X266745Y44334D01*
X266718Y44285D01*
X266707Y44274D01*
X266702Y44263D01*
X266669Y44204D01*
X266653Y44188D01*
X266648Y44177D01*
X266621Y44128D01*
X266599Y44106D01*
X266593Y44096D01*
X266558Y44044D01*
X266545Y44025D01*
X266523Y43987D01*
X266499Y43958D01*
X266491Y43949D01*
X266485Y43938D01*
X266450Y43887D01*
X266436Y43874D01*
X266431Y43863D01*
X266409Y43825D01*
X266388Y43803D01*
X266382Y43792D01*
X266353Y43746D01*
X266344Y43744D01*
X266339Y43733D01*
X266328Y43722D01*
X266323Y43711D01*
X266296Y43673D01*
X266274Y43652D01*
X266252Y43614D01*
X266220Y43581D01*
X266214Y43570D01*
X266201Y43551D01*
X266190Y43546D01*
X266182Y43538D01*
X266176Y43527D01*
X266166Y43516D01*
X266160Y43505D01*
X266139Y43484D01*
X266133Y43473D01*
X266122Y43462D01*
X266117Y43451D01*
X266093Y43422D01*
X266074Y43403D01*
X266068Y43392D01*
X266044Y43362D01*
X266014Y43332D01*
X266009Y43321D01*
X265995Y43302D01*
X265984Y43297D01*
X265965Y43278D01*
X265960Y43267D01*
X265941Y43243D01*
X265930Y43237D01*
X265911Y43218D01*
X265906Y43208D01*
X265884Y43186D01*
X265881Y43178D01*
X265873Y43175D01*
X265868Y43164D01*
X265803Y43099D01*
X265798Y43088D01*
X265784Y43075D01*
X265773Y43070D01*
X265765Y43061D01*
X265760Y43050D01*
X265684Y42975D01*
X265678Y42964D01*
X265567Y42853D01*
X265557Y42847D01*
X265537Y42834D01*
X265532Y42823D01*
X265508Y42793D01*
X265405Y42691D01*
X265394Y42685D01*
X265386Y42677D01*
X265380Y42666D01*
X265351Y42636D01*
X265340Y42631D01*
X265315Y42607D01*
X265310Y42596D01*
X265297Y42582D01*
X265286Y42577D01*
X265213Y42504D01*
X265207Y42493D01*
X265199Y42485D01*
X265188Y42479D01*
X265177Y42468D01*
X265167Y42463D01*
X265053Y42349D01*
X265045Y42347D01*
X265039Y42336D01*
X265021Y42317D01*
X265010Y42311D01*
X264974Y42276D01*
X264972Y42268D01*
X264961Y42263D01*
X264950Y42252D01*
X264939Y42246D01*
X264920Y42228D01*
X264918Y42219D01*
X264907Y42214D01*
X264872Y42179D01*
X264866Y42168D01*
X264853Y42154D01*
X264842Y42149D01*
X264823Y42130D01*
X264817Y42119D01*
X264799Y42100D01*
X264788Y42095D01*
X264612Y41919D01*
X264606Y41908D01*
X264598Y41900D01*
X264587Y41894D01*
X264563Y41870D01*
X264557Y41859D01*
X264544Y41846D01*
X264533Y41840D01*
X264509Y41816D01*
X264503Y41805D01*
X264490Y41792D01*
X264479Y41786D01*
X264455Y41762D01*
X264449Y41751D01*
X264346Y41648D01*
X264341Y41637D01*
X264333Y41629D01*
X264322Y41624D01*
X264308Y41610D01*
X264303Y41599D01*
X264284Y41580D01*
X264273Y41575D01*
X264254Y41556D01*
X264249Y41545D01*
X264224Y41515D01*
X264214Y41505D01*
X264203Y41499D01*
X264195Y41491D01*
X264189Y41480D01*
X264162Y41442D01*
X264146Y41426D01*
X264140Y41415D01*
X264114Y41377D01*
X264103Y41367D01*
X264097Y41356D01*
X264086Y41329D01*
X264065Y41291D01*
X264054Y41280D01*
X264043Y41253D01*
X264038Y41231D01*
X264046Y41191D01*
X264062Y41174D01*
X264116Y41158D01*
X264197Y41153D01*
X264214Y41147D01*
X264252Y41142D01*
X264273Y41136D01*
X264338Y41126D01*
X264476Y41118D01*
X266875Y41112D01*
X266948Y41109D01*
X266964Y41115D01*
X268123Y41109D01*
X269368Y41115D01*
X269385Y41120D01*
X269425Y41128D01*
X269466Y41153D01*
X269496Y41161D01*
X269523Y41172D01*
X269553Y41191D01*
X269563Y41201D01*
X269612Y41228D01*
X269642Y41253D01*
X269650Y41261D01*
X269661Y41266D01*
X269691Y41291D01*
X269707Y41307D01*
X269712Y41318D01*
X269761Y41367D01*
X269767Y41377D01*
X269799Y41410D01*
X269804Y41421D01*
X269815Y41431D01*
X269831Y41459D01*
X269858Y41486D01*
X269864Y41497D01*
X269888Y41526D01*
X269907Y41545D01*
X269923Y41572D01*
X269937Y41591D01*
X269948Y41597D01*
X269956Y41605D01*
X269961Y41616D01*
X269999Y41664D01*
X270016Y41681D01*
X270037Y41719D01*
X270075Y41756D01*
X270091Y41783D01*
X270118Y41811D01*
X270124Y41821D01*
X270148Y41851D01*
X270173Y41870D01*
X270200Y41919D01*
X270232Y41951D01*
X270238Y41962D01*
X270262Y41992D01*
X270275Y42006D01*
X270292Y42033D01*
X270324Y42065D01*
X270340Y42092D01*
X270354Y42106D01*
X270387Y42100D01*
X270400Y42092D01*
X270405Y42081D01*
X270441Y42030D01*
X270454Y42011D01*
X270476Y41989D01*
X270497Y41951D01*
X270525Y41924D01*
X270546Y41886D01*
X270568Y41865D01*
X270573Y41854D01*
X270600Y41805D01*
X270633Y41773D01*
X270655Y41735D01*
X270676Y41713D01*
X270703Y41664D01*
X270730Y41637D01*
X270736Y41627D01*
X270763Y41589D01*
X270768Y41578D01*
X270784Y41561D01*
X270812Y41513D01*
X270828Y41497D01*
X270833Y41486D01*
X270860Y41437D01*
X270887Y41410D01*
X270898Y41383D01*
X270920Y41345D01*
X270936Y41329D01*
X270941Y41318D01*
X270952Y41291D01*
X270958Y41280D01*
X270982Y41250D01*
X270990Y41242D01*
X271001Y41204D01*
X270996Y41144D01*
X270958Y41090D01*
X270931Y41042D01*
X270903Y41004D01*
X270893Y40977D01*
X270887Y40966D01*
X270863Y40936D01*
X270855Y40928D01*
X270839Y40890D01*
X270833Y40879D01*
X270809Y40849D01*
X270774Y40787D01*
X270757Y40771D01*
X270752Y40760D01*
X270730Y40728D01*
X270714Y40701D01*
X270703Y40690D01*
X270698Y40679D01*
X270665Y40619D01*
X270649Y40603D01*
X270644Y40592D01*
X270617Y40543D01*
X270595Y40522D01*
X270568Y40473D01*
X270557Y40462D01*
X270552Y40451D01*
X270541Y40441D01*
X270535Y40430D01*
X270514Y40392D01*
X270497Y40376D01*
X270492Y40365D01*
X270457Y40313D01*
X270443Y40300D01*
X270438Y40289D01*
X270411Y40251D01*
X270405Y40240D01*
X270389Y40224D01*
X270368Y40186D01*
X270359Y40178D01*
X270348Y40173D01*
X270335Y40159D01*
X270330Y40148D01*
X270305Y40118D01*
X270297Y40110D01*
X270292Y40100D01*
X270281Y40089D01*
X270257Y40048D01*
X270246Y40043D01*
X270235Y40032D01*
X270227Y40029D01*
X270221Y40018D01*
X270205Y40002D01*
X270202Y39994D01*
X270191Y39989D01*
X270143Y39961D01*
X270121Y39940D01*
X270110Y39934D01*
X270083Y39924D01*
X270048Y39915D01*
X270021Y39905D01*
X270013Y39897D01*
X269986Y39886D01*
X269942Y39875D01*
X269858Y39867D01*
X269815Y39861D01*
X268770Y39856D01*
X268767Y39853D01*
X268751Y39859D01*
X268735Y39853D01*
X267720Y39850D01*
X267717Y39853D01*
X267701Y39848D01*
X267690Y39853D01*
X267674Y39848D01*
X267611Y39850D01*
X267593Y39848D01*
X267587Y39853D01*
X267571Y39848D01*
X267503Y39850D01*
X267490Y39848D01*
X267484Y39853D01*
X267468Y39848D01*
X267400Y39850D01*
X267387Y39848D01*
X267381Y39853D01*
X267365Y39848D01*
X267270Y39850D01*
X267203Y39848D01*
X267197Y39853D01*
X267181Y39848D01*
X267170Y39853D01*
X267154Y39848D01*
X267081Y39850D01*
X260028Y39848D01*
X260023Y39853D01*
X260006Y39848D01*
X259917Y39845D01*
X259923Y39878D01*
X259933Y39888D01*
X259939Y39899D01*
X259952Y39913D01*
X259979Y39929D01*
X260006Y39956D01*
X260017Y39961D01*
X260047Y39986D01*
X260077Y40016D01*
X260088Y40021D01*
X260117Y40045D01*
X260131Y40059D01*
X260142Y40064D01*
X260177Y40089D01*
X260182Y40100D01*
X260201Y40118D01*
X260212Y40124D01*
X260242Y40148D01*
X260266Y40173D01*
X260277Y40178D01*
X260307Y40202D01*
X260331Y40227D01*
X260342Y40232D01*
X260375Y40265D01*
X260385Y40270D01*
X260415Y40294D01*
X260440Y40319D01*
X260450Y40324D01*
X260488Y40351D01*
X260497Y40359D01*
X260502Y40370D01*
X260515Y40384D01*
X260526Y40389D01*
X260556Y40414D01*
X260575Y40433D01*
X260586Y40438D01*
X260605Y40451D01*
X260610Y40462D01*
X260629Y40481D01*
X260640Y40487D01*
X260670Y40511D01*
X260694Y40535D01*
X260705Y40541D01*
X260743Y40579D01*
X260754Y40584D01*
X260792Y40611D01*
X260805Y40630D01*
X260838Y40652D01*
X260873Y40687D01*
X260884Y40692D01*
X260894Y40703D01*
X260905Y40709D01*
X260938Y40741D01*
X260949Y40747D01*
X261003Y40801D01*
X261014Y40806D01*
X261033Y40820D01*
X261038Y40830D01*
X261046Y40839D01*
X261057Y40844D01*
X261068Y40855D01*
X261078Y40860D01*
X261116Y40898D01*
X261127Y40904D01*
X261165Y40942D01*
X261176Y40947D01*
X261206Y40971D01*
X261236Y41001D01*
X261246Y41006D01*
X261257Y41017D01*
X261268Y41023D01*
X261282Y41042D01*
X261301Y41061D01*
X261311Y41066D01*
X261341Y41090D01*
X261346Y41101D01*
X261366Y41115D01*
X261414Y41164D01*
X261425Y41169D01*
X261439Y41177D01*
X261444Y41188D01*
X261474Y41218D01*
X261485Y41223D01*
X261533Y41272D01*
X261544Y41277D01*
X261558Y41291D01*
X261563Y41302D01*
X261582Y41315D01*
X261607Y41340D01*
X261612Y41350D01*
X261625Y41364D01*
X261636Y41369D01*
X261685Y41418D01*
X261696Y41423D01*
X261715Y41442D01*
X261720Y41453D01*
X261734Y41467D01*
X261744Y41472D01*
X261763Y41491D01*
X261769Y41502D01*
X261782Y41515D01*
X261793Y41521D01*
X261823Y41551D01*
X261828Y41561D01*
X261847Y41575D01*
X261866Y41594D01*
X261872Y41605D01*
X261975Y41708D01*
X261980Y41719D01*
X262023Y41762D01*
X262029Y41773D01*
X262037Y41781D01*
X262048Y41786D01*
X262067Y41805D01*
X262072Y41816D01*
X262083Y41827D01*
X262088Y41838D01*
X262099Y41843D01*
X262105Y41854D01*
X262121Y41870D01*
X262126Y41881D01*
X262170Y41924D01*
X262175Y41935D01*
X262194Y41960D01*
X262205Y41965D01*
X262213Y41973D01*
X262218Y41984D01*
X262229Y41995D01*
X262235Y42006D01*
X262267Y42038D01*
X262272Y42049D01*
X262297Y42089D01*
X262308Y42095D01*
X262332Y42119D01*
X262337Y42130D01*
X262362Y42160D01*
X262375Y42173D01*
X262381Y42184D01*
X262405Y42214D01*
X262424Y42233D01*
X262430Y42244D01*
X262454Y42274D01*
X262495Y42330D01*
X262500Y42341D01*
X262527Y42368D01*
X262532Y42379D01*
X262549Y42406D01*
X262581Y42439D01*
X262603Y42477D01*
X262619Y42493D01*
X262624Y42504D01*
X262635Y42515D01*
X262662Y42563D01*
X262689Y42590D01*
X262711Y42628D01*
X262727Y42644D01*
X262733Y42655D01*
X262754Y42693D01*
X262792Y42747D01*
X262814Y42785D01*
X262830Y42801D01*
X262836Y42812D01*
X262857Y42845D01*
X262879Y42883D01*
X262901Y42915D01*
X262922Y42953D01*
X262949Y42991D01*
X262960Y43018D01*
X262966Y43029D01*
X262993Y43067D01*
X263014Y43116D01*
X263020Y43126D01*
X263047Y43164D01*
X263058Y43191D01*
X263079Y43229D01*
X263106Y43267D01*
X263114Y43297D01*
X263141Y43340D01*
X263150Y43348D01*
X263169Y43400D01*
X263188Y43430D01*
X263209Y43462D01*
X263217Y43492D01*
X263236Y43522D01*
X263258Y43554D01*
X263266Y43589D01*
X263277Y43616D01*
X263291Y43635D01*
X263312Y43668D01*
X263318Y43689D01*
X263337Y43741D01*
X263350Y43754D01*
X263366Y43792D01*
X263385Y43844D01*
X263407Y43876D01*
X263420Y43911D01*
X263426Y43933D01*
X263464Y44014D01*
X263475Y44052D01*
X263488Y44088D01*
X263512Y44128D01*
X263534Y44204D01*
X263572Y44285D01*
X263583Y44328D01*
X263599Y44366D01*
X263605Y44377D01*
X263621Y44415D01*
X263629Y44445D01*
X263634Y44472D01*
X263650Y44515D01*
X263659Y44523D01*
X263675Y44561D01*
X263694Y44645D01*
X263724Y44713D01*
X263729Y44735D01*
X263737Y44786D01*
X263753Y44829D01*
X263778Y44886D01*
X263791Y44965D01*
X263797Y44986D01*
X263808Y45013D01*
X263827Y45059D01*
X263837Y45124D01*
X263851Y45181D01*
X263862Y45208D01*
X263875Y45254D01*
X263886Y45298D01*
X263900Y45376D01*
X263905Y45398D01*
X263918Y45433D01*
X263929Y45471D01*
X263935Y45493D01*
X263946Y45568D01*
X263965Y45658D01*
X263983Y45720D01*
X263989Y45758D01*
X263994Y45812D01*
X264008Y45874D01*
X264021Y45920D01*
X264027Y45942D01*
X264032Y45980D01*
X264038Y46002D01*
X264043Y46040D01*
X264051Y46118D01*
X264057Y46167D01*
X264062Y46194D01*
X264078Y46259D01*
X264084Y46286D01*
X264089Y46318D01*
X264095Y46378D01*
X264100Y46465D01*
X264105Y46513D01*
X264111Y46557D01*
X264132Y46687D01*
X264138Y46735D01*
X264143Y46833D01*
X264149Y46925D01*
X264160Y47250D01*
X264165Y47396D01*
X264168Y47659D01*
X264162Y47675D01*
X264154Y47954D01*
X264143Y48197D01*
X264138Y48268D01*
X264132Y48311D01*
X264127Y48343D01*
X264116Y48398D01*
X264111Y48463D01*
X264103Y48536D01*
X264097Y48590D01*
X264092Y48660D01*
X264086Y48682D01*
X264081Y48741D01*
X264076Y48758D01*
X264070Y48779D01*
X264059Y48817D01*
X264054Y48855D01*
X264046Y48917D01*
X264035Y49015D01*
X264024Y49058D01*
X264013Y49085D01*
X264005Y49115D01*
X264000Y49137D01*
X263994Y49191D01*
X263989Y49229D01*
X263975Y49291D01*
X263956Y49353D01*
X263927Y49497D01*
X263921Y49518D01*
X263910Y49545D01*
X263902Y49575D01*
X263892Y49619D01*
X263878Y49686D01*
X263856Y49746D01*
X263843Y49781D01*
X263829Y49860D01*
X263824Y49881D01*
X263794Y49949D01*
X263783Y49992D01*
X263770Y50049D01*
X263751Y50084D01*
X263734Y50138D01*
X263726Y50174D01*
X263713Y50209D01*
X263686Y50268D01*
X263678Y50304D01*
X263672Y50325D01*
X263661Y50352D01*
X263642Y50388D01*
X263632Y50425D01*
X263626Y50447D01*
X263613Y50482D01*
X263583Y50539D01*
X263575Y50574D01*
X263559Y50618D01*
X263550Y50626D01*
X263534Y50664D01*
X263523Y50701D01*
X263518Y50723D01*
X263496Y50761D01*
X263475Y50810D01*
X263456Y50861D01*
X263447Y50869D01*
X263442Y50880D01*
X263426Y50918D01*
X263402Y50986D01*
X263393Y50994D01*
X263372Y51043D01*
X263339Y51102D01*
X263318Y51151D01*
X263304Y51186D01*
X263291Y51200D01*
X263274Y51238D01*
X263255Y51289D01*
X263236Y51308D01*
X263231Y51319D01*
X263215Y51357D01*
X263201Y51392D01*
X263182Y51411D01*
X263177Y51422D01*
X263160Y51460D01*
X263139Y51498D01*
X263128Y51508D01*
X263106Y51562D01*
X263085Y51600D01*
X263074Y51611D01*
X263058Y51649D01*
X263036Y51687D01*
X263025Y51698D01*
X263020Y51709D01*
X262982Y51779D01*
X262960Y51812D01*
X262928Y51871D01*
X262890Y51941D01*
X262865Y51971D01*
X262857Y51979D01*
X262825Y52039D01*
X262803Y52071D01*
X262776Y52120D01*
X262754Y52142D01*
X262743Y52169D01*
X262722Y52207D01*
X262706Y52223D01*
X262684Y52261D01*
X262660Y52291D01*
X262652Y52299D01*
X262624Y52348D01*
X262597Y52386D01*
X262576Y52423D01*
X262543Y52456D01*
X262511Y52516D01*
X262500Y52526D01*
X262495Y52537D01*
X262459Y52589D01*
X262451Y52591D01*
X262446Y52602D01*
X262435Y52613D01*
X262419Y52640D01*
X262386Y52673D01*
X262359Y52721D01*
X262343Y52737D01*
X262337Y52748D01*
X262300Y52797D01*
X262278Y52819D01*
X262256Y52857D01*
X262235Y52878D01*
X262229Y52889D01*
X262205Y52919D01*
X262180Y52943D01*
X262175Y52954D01*
X262151Y52984D01*
X262124Y53016D01*
X262115Y53025D01*
X262110Y53035D01*
X262083Y53062D01*
X262078Y53073D01*
X262067Y53084D01*
X262061Y53095D01*
X262013Y53144D01*
X261996Y53171D01*
X261964Y53203D01*
X261958Y53214D01*
X261921Y53252D01*
X261915Y53263D01*
X261872Y53306D01*
X261866Y53317D01*
X261818Y53366D01*
X261812Y53376D01*
X261801Y53387D01*
X261796Y53398D01*
X261788Y53406D01*
X261777Y53412D01*
X261758Y53431D01*
X261755Y53439D01*
X261744Y53444D01*
X261709Y53479D01*
X261704Y53490D01*
X261617Y53577D01*
X261612Y53588D01*
X261517Y53682D01*
X261506Y53688D01*
X261436Y53758D01*
X261425Y53764D01*
X261395Y53793D01*
X261390Y53804D01*
X261376Y53818D01*
X261366Y53823D01*
X261311Y53877D01*
X261303Y53880D01*
X261298Y53891D01*
X261249Y53923D01*
X261244Y53934D01*
X261219Y53959D01*
X261208Y53964D01*
X261184Y53983D01*
X261179Y53994D01*
X261149Y54023D01*
X261138Y54029D01*
X261111Y54056D01*
X261100Y54061D01*
X261070Y54091D01*
X261068Y54099D01*
X261057Y54105D01*
X261019Y54132D01*
X260992Y54159D01*
X260954Y54180D01*
X260916Y54218D01*
X260905Y54224D01*
X260875Y54248D01*
X260862Y54262D01*
X260851Y54267D01*
X260821Y54292D01*
X260792Y54321D01*
X260754Y54343D01*
X260732Y54365D01*
X260721Y54370D01*
X260710Y54381D01*
X260683Y54397D01*
X260645Y54424D01*
X260634Y54430D01*
X260605Y54454D01*
X260586Y54473D01*
X260548Y54495D01*
X260532Y54511D01*
X260521Y54516D01*
X260472Y54543D01*
X260440Y54576D01*
X260391Y54603D01*
X260364Y54630D01*
X260315Y54657D01*
X260299Y54673D01*
X260288Y54679D01*
X260250Y54700D01*
X260228Y54722D01*
X260218Y54727D01*
X260180Y54744D01*
X260153Y54760D01*
X260131Y54782D01*
X260093Y54798D01*
X260082Y54803D01*
X260066Y54819D01*
X260055Y54825D01*
X260044Y54836D01*
X260017Y54847D01*
X259990Y54863D01*
X259968Y54884D01*
X259917Y54903D01*
X259898Y54917D01*
X259882Y54933D01*
X259855Y54944D01*
X259817Y54966D01*
X259806Y54977D01*
X259795Y54982D01*
X259746Y55003D01*
X259698Y55031D01*
X259687Y55041D01*
X259649Y55058D01*
X259611Y55079D01*
X259600Y55090D01*
X259590Y55096D01*
X259552Y55112D01*
X259459Y55155D01*
X259411Y55182D01*
X259400Y55193D01*
X259373Y55204D01*
X259321Y55223D01*
X259303Y55242D01*
X259275Y55253D01*
X259240Y55261D01*
X259213Y55272D01*
X259205Y55280D01*
X259194Y55285D01*
X259183Y55296D01*
X259146Y55312D01*
X259124Y55318D01*
X259075Y55345D01*
X259037Y55361D01*
X259016Y55366D01*
X258978Y55388D01*
X258967Y55399D01*
X258923Y55410D01*
X258872Y55429D01*
X258837Y55448D01*
X258810Y55458D01*
X258772Y55469D01*
X258737Y55483D01*
X258718Y55496D01*
X258680Y55512D01*
X258639Y55521D01*
X258612Y55532D01*
X258555Y55556D01*
X258501Y55572D01*
X258466Y55586D01*
X258398Y55615D01*
X258363Y55623D01*
X258341Y55629D01*
X258314Y55640D01*
X258257Y55664D01*
X258214Y55675D01*
X258179Y55683D01*
X258136Y55699D01*
X258111Y55713D01*
X258090Y55718D01*
X258052Y55724D01*
X258030Y55729D01*
X258003Y55735D01*
X257933Y55767D01*
X257911Y55773D01*
X257827Y55791D01*
X257800Y55802D01*
X257765Y55816D01*
X257721Y55827D01*
X257632Y55845D01*
X257589Y55862D01*
X257543Y55875D01*
X257505Y55881D01*
X257483Y55886D01*
X257421Y55900D01*
X257399Y55905D01*
X257369Y55919D01*
X257348Y55924D01*
X257258Y55938D01*
X257199Y55948D01*
X257177Y55954D01*
X257142Y55967D01*
X257104Y55978D01*
X257066Y55984D01*
X257045Y55989D01*
X256974Y55995D01*
X256958Y56000D01*
X256920Y56011D01*
X256898Y56016D01*
X256863Y56024D01*
X256842Y56030D01*
X256809Y56035D01*
X256755Y56041D01*
X256712Y56046D01*
X256684Y56051D01*
X256641Y56062D01*
X256560Y56078D01*
X256517Y56084D01*
X256457Y56089D01*
X256408Y56095D01*
X256354Y56100D01*
X256311Y56105D01*
X256257Y56116D01*
X256235Y56122D01*
X256208Y56127D01*
X256175Y56132D01*
X256078Y56138D01*
X256013Y56143D01*
X255872Y56154D01*
X255829Y56160D01*
X255756Y56168D01*
X255702Y56173D01*
X255631Y56179D01*
X255528Y56184D01*
X255442Y56189D01*
X254981Y56195D01*
X254611Y56187D01*
X254481Y56181D01*
X254437Y56176D01*
X254367Y56170D01*
X254318Y56165D01*
X254264Y56160D01*
X254167Y56149D01*
X254091Y56143D01*
X254020Y56138D01*
X253904Y56130D01*
X253888Y56124D01*
X253853Y56116D01*
X253825Y56111D01*
X253793Y56105D01*
X253682Y56092D01*
X253644Y56087D01*
X253590Y56081D01*
X253538Y56073D01*
X253517Y56068D01*
X253471Y56054D01*
X253449Y56049D01*
X253395Y56043D01*
X253357Y56038D01*
X253311Y56030D01*
X253251Y56019D01*
X253225Y56008D01*
X253195Y56000D01*
X253081Y55984D01*
X253059Y55978D01*
X253024Y55970D01*
X252989Y55957D01*
X252951Y55946D01*
X252910Y55938D01*
X252845Y55927D01*
X252818Y55921D01*
X252775Y55905D01*
X252729Y55892D01*
X252686Y55881D01*
X252629Y55873D01*
X252602Y55862D01*
X252545Y55837D01*
X252499Y55829D01*
X252472Y55824D01*
X252450Y55819D01*
X252423Y55808D01*
X252393Y55794D01*
X252307Y55773D01*
X252277Y55764D01*
X252250Y55753D01*
X252204Y55735D01*
X252160Y55724D01*
X252131Y55716D01*
X252104Y55705D01*
X252047Y55680D01*
X251990Y55667D01*
X251963Y55656D01*
X251906Y55632D01*
X251868Y55621D01*
X251817Y55602D01*
X251776Y55578D01*
X251741Y55569D01*
X251719Y55564D01*
X251676Y55548D01*
X251668Y55540D01*
X251630Y55523D01*
X251608Y55518D01*
X251565Y55502D01*
X251527Y55475D01*
X251481Y55466D01*
X251459Y55461D01*
X251416Y55434D01*
X251408Y55426D01*
X251381Y55415D01*
X251340Y55407D01*
X251313Y55396D01*
X251299Y55383D01*
X251289Y55377D01*
X251262Y55366D01*
X251210Y55347D01*
X251197Y55334D01*
X251186Y55328D01*
X251148Y55312D01*
X251118Y55304D01*
X251075Y55277D01*
X251018Y55253D01*
X250969Y55226D01*
X250921Y55204D01*
X250893Y55193D01*
X250856Y55166D01*
X250818Y55150D01*
X250769Y55123D01*
X250720Y55101D01*
X250682Y55079D01*
X250666Y55063D01*
X250598Y55039D01*
X250574Y55014D01*
X250520Y54993D01*
X250509Y54987D01*
X250476Y54955D01*
X250417Y54933D01*
X250390Y54906D01*
X250363Y54895D01*
X250328Y54882D01*
X250298Y54852D01*
X250271Y54841D01*
X250233Y54819D01*
X250217Y54803D01*
X250146Y54765D01*
X250135Y54755D01*
X250124Y54749D01*
X250076Y54722D01*
X250049Y54695D01*
X249989Y54662D01*
X249978Y54652D01*
X249967Y54646D01*
X249930Y54625D01*
X249897Y54592D01*
X249886Y54587D01*
X249837Y54560D01*
X249827Y54549D01*
X249816Y54543D01*
X249748Y54492D01*
X249740Y54484D01*
X249681Y54451D01*
X249670Y54440D01*
X249659Y54435D01*
X249648Y54424D01*
X249637Y54419D01*
X249610Y54392D01*
X249599Y54386D01*
X249561Y54359D01*
X249551Y54354D01*
X249543Y54346D01*
X249540Y54338D01*
X249529Y54332D01*
X249480Y54294D01*
X249464Y54278D01*
X249453Y54273D01*
X249423Y54248D01*
X249410Y54235D01*
X249399Y54229D01*
X249361Y54202D01*
X249334Y54175D01*
X249323Y54170D01*
X249293Y54145D01*
X249269Y54121D01*
X249258Y54116D01*
X249228Y54091D01*
X249199Y54061D01*
X249188Y54056D01*
X249158Y54032D01*
X249144Y54018D01*
X249134Y54013D01*
X249090Y53969D01*
X249079Y53964D01*
X249031Y53915D01*
X249020Y53910D01*
X248990Y53885D01*
X248950Y53845D01*
X248939Y53839D01*
X248931Y53831D01*
X248925Y53820D01*
X248912Y53807D01*
X248901Y53801D01*
X248871Y53777D01*
X248847Y53747D01*
X248836Y53742D01*
X248801Y53707D01*
X248798Y53699D01*
X248787Y53693D01*
X248771Y53677D01*
X248763Y53674D01*
X248757Y53663D01*
X248738Y53644D01*
X248727Y53639D01*
X248709Y53620D01*
X248703Y53609D01*
X248684Y53590D01*
X248673Y53585D01*
X248649Y53561D01*
X248644Y53550D01*
X248630Y53536D01*
X248619Y53531D01*
X248606Y53517D01*
X248600Y53506D01*
X248576Y53482D01*
X248565Y53477D01*
X248557Y53468D01*
X248552Y53458D01*
X248541Y53447D01*
X248535Y53436D01*
X248503Y53409D01*
X248478Y53379D01*
X248443Y53344D01*
X248438Y53333D01*
X248362Y53257D01*
X248357Y53246D01*
X248335Y53225D01*
X248330Y53214D01*
X248286Y53171D01*
X248281Y53160D01*
X248243Y53122D01*
X248237Y53111D01*
X248219Y53081D01*
X248208Y53076D01*
X248183Y53052D01*
X248178Y53041D01*
X248154Y53011D01*
X248129Y52987D01*
X248124Y52976D01*
X248113Y52965D01*
X248108Y52954D01*
X248086Y52932D01*
X248081Y52922D01*
X248056Y52892D01*
X248032Y52867D01*
X248026Y52857D01*
X248015Y52846D01*
X248010Y52835D01*
X247983Y52808D01*
X247978Y52797D01*
X247950Y52759D01*
X247929Y52737D01*
X247907Y52700D01*
X247899Y52691D01*
X247888Y52686D01*
X247875Y52667D01*
X247840Y52616D01*
X247821Y52597D01*
X247815Y52586D01*
X247788Y52548D01*
X247766Y52516D01*
X247761Y52505D01*
X247750Y52494D01*
X247745Y52483D01*
X247723Y52461D01*
X247696Y52413D01*
X247669Y52386D01*
X247642Y52337D01*
X247620Y52315D01*
X247593Y52266D01*
X247577Y52250D01*
X247572Y52239D01*
X247544Y52191D01*
X247517Y52164D01*
X247490Y52115D01*
X247469Y52093D01*
X247458Y52066D01*
X247444Y52031D01*
X247420Y52007D01*
X247414Y51996D01*
X247393Y51963D01*
X247387Y51952D01*
X247360Y51915D01*
X247328Y51855D01*
X247312Y51839D01*
X247295Y51801D01*
X247274Y51763D01*
X247257Y51747D01*
X247241Y51709D01*
X247220Y51671D01*
X247198Y51638D01*
X247192Y51617D01*
X247157Y51565D01*
X247144Y51535D01*
X247117Y51487D01*
X247095Y51454D01*
X247079Y51411D01*
X247052Y51373D01*
X247038Y51338D01*
X247027Y51311D01*
X247014Y51292D01*
X246992Y51259D01*
X246987Y51238D01*
X246981Y51221D01*
X246960Y51184D01*
X246933Y51124D01*
X246919Y51089D01*
X246905Y51070D01*
X246878Y51010D01*
X246873Y50988D01*
X246846Y50951D01*
X246835Y50924D01*
X246830Y50902D01*
X246816Y50867D01*
X246794Y50834D01*
X246781Y50804D01*
X246773Y50764D01*
X246762Y50737D01*
X246754Y50729D01*
X246749Y50718D01*
X246727Y50669D01*
X246719Y50639D01*
X246708Y50612D01*
X246684Y50572D01*
X246673Y50528D01*
X246665Y50493D01*
X246654Y50466D01*
X246629Y50425D01*
X246618Y50388D01*
X246605Y50331D01*
X246581Y50290D01*
X246564Y50236D01*
X246556Y50195D01*
X246548Y50176D01*
X246527Y50128D01*
X246518Y50092D01*
X246507Y50049D01*
X246494Y50014D01*
X246478Y49976D01*
X246470Y49946D01*
X246453Y49865D01*
X246424Y49792D01*
X246413Y49749D01*
X246407Y49711D01*
X246397Y49667D01*
X246375Y49613D01*
X246364Y49548D01*
X246359Y49527D01*
X246353Y49489D01*
X246334Y49437D01*
X246321Y49391D01*
X246310Y49315D01*
X246304Y49294D01*
X246296Y49242D01*
X246291Y49221D01*
X246272Y49158D01*
X246266Y49120D01*
X246261Y49099D01*
X246253Y49031D01*
X246245Y48958D01*
X246237Y48928D01*
X246226Y48901D01*
X246220Y48874D01*
X246215Y48842D01*
X246204Y48723D01*
X246199Y48690D01*
X246193Y48647D01*
X246183Y48582D01*
X246177Y48555D01*
X246172Y48533D01*
X246166Y48500D01*
X246161Y48436D01*
X246155Y48365D01*
X246150Y48289D01*
X246145Y48224D01*
X246134Y48105D01*
X246129Y48073D01*
X246123Y48024D01*
X246118Y47964D01*
X246110Y47805D01*
X246104Y47621D01*
X246110Y46863D01*
X246115Y46846D01*
X246123Y46724D01*
X246131Y46651D01*
X246137Y46630D01*
X246145Y46551D01*
X246164Y46283D01*
X246169Y46267D01*
X246183Y46205D01*
X246188Y46178D01*
X246207Y46029D01*
X246215Y45950D01*
X246220Y45918D01*
X246226Y45896D01*
X246237Y45869D01*
X246242Y45847D01*
X246248Y45820D01*
X246256Y45747D01*
X246261Y45709D01*
X246266Y45687D01*
X246272Y45650D01*
X246277Y45628D01*
X246285Y45598D01*
X246299Y45568D01*
X246304Y45547D01*
X246313Y45474D01*
X246318Y45441D01*
X246323Y45420D01*
X246340Y45376D01*
X246353Y45330D01*
X246359Y45292D01*
X246369Y45249D01*
X246378Y45208D01*
X246383Y45187D01*
X246402Y45141D01*
X246413Y45103D01*
X246432Y45013D01*
X246462Y44940D01*
X246470Y44894D01*
X246475Y44873D01*
X246486Y44845D01*
X246499Y44816D01*
X246510Y44778D01*
X246518Y44748D01*
X246529Y44705D01*
X246540Y44678D01*
X246564Y44621D01*
X246578Y44559D01*
X246589Y44531D01*
X246597Y44523D01*
X246613Y44485D01*
X246624Y44442D01*
X246643Y44391D01*
X246673Y44323D01*
X246681Y44288D01*
X246692Y44261D01*
X246700Y44253D01*
X246721Y44204D01*
X246730Y44174D01*
X246746Y44131D01*
X246754Y44123D01*
X246770Y44085D01*
X246781Y44047D01*
X246794Y44012D01*
X246816Y43979D01*
X246824Y43955D01*
X246843Y43903D01*
X246868Y43863D01*
X246873Y43841D01*
X246884Y43814D01*
X246911Y43765D01*
X246938Y43706D01*
X246987Y43603D01*
X247014Y43554D01*
X247025Y43543D01*
X247038Y43508D01*
X247049Y43481D01*
X247111Y43365D01*
X247138Y43327D01*
X247144Y43305D01*
X247171Y43256D01*
X247182Y43246D01*
X247192Y43218D01*
X247220Y43170D01*
X247230Y43159D01*
X247236Y43148D01*
X247312Y43007D01*
X247322Y42996D01*
X247328Y42986D01*
X247366Y42915D01*
X247376Y42904D01*
X247382Y42894D01*
X247393Y42883D01*
X247431Y42812D01*
X247458Y42769D01*
X247474Y42742D01*
X247496Y42720D01*
X247528Y42661D01*
X247544Y42644D01*
X247577Y42585D01*
X247599Y42563D01*
X247626Y42515D01*
X247642Y42498D01*
X247647Y42487D01*
X247682Y42431D01*
X247693Y42425D01*
X247701Y42417D01*
X247707Y42406D01*
X247742Y42355D01*
X247756Y42341D01*
X247777Y42303D01*
X247799Y42282D01*
X247804Y42271D01*
X247840Y42219D01*
X247864Y42195D01*
X247885Y42157D01*
X247899Y42144D01*
X247907Y42141D01*
X247913Y42130D01*
X247940Y42092D01*
X247961Y42070D01*
X247967Y42060D01*
X247994Y42022D01*
X248021Y41995D01*
X248026Y41984D01*
X248051Y41954D01*
X248075Y41930D01*
X248091Y41903D01*
X248124Y41870D01*
X248129Y41859D01*
X248172Y41816D01*
X248189Y41789D01*
X248202Y41770D01*
X248213Y41764D01*
X248221Y41756D01*
X248227Y41746D01*
X248237Y41735D01*
X248243Y41724D01*
X248286Y41681D01*
X248292Y41670D01*
X248340Y41621D01*
X248346Y41610D01*
X248395Y41561D01*
X248400Y41551D01*
X248419Y41532D01*
X248430Y41526D01*
X248438Y41518D01*
X248443Y41507D01*
X248492Y41459D01*
X248497Y41448D01*
X248516Y41429D01*
X248527Y41423D01*
X248552Y41399D01*
X248557Y41388D01*
X248570Y41375D01*
X248581Y41369D01*
X248600Y41350D01*
X248606Y41340D01*
X248654Y41291D01*
X248660Y41280D01*
X248673Y41266D01*
X248684Y41261D01*
X248727Y41218D01*
X248738Y41212D01*
X248757Y41193D01*
X248763Y41182D01*
X248776Y41169D01*
X248787Y41164D01*
X248836Y41115D01*
X248847Y41109D01*
X248895Y41061D01*
X248906Y41055D01*
X248920Y41042D01*
X248925Y41031D01*
X248944Y41012D01*
X248955Y41006D01*
X248985Y40982D01*
X249014Y40952D01*
X249025Y40947D01*
X249036Y40936D01*
X249047Y40931D01*
X249090Y40887D01*
X249101Y40882D01*
X249134Y40849D01*
X249144Y40844D01*
X249182Y40806D01*
X249193Y40801D01*
X249223Y40776D01*
X249237Y40757D01*
X249247Y40752D01*
X249296Y40714D01*
X249307Y40703D01*
X249318Y40698D01*
X249347Y40673D01*
X249366Y40655D01*
X249377Y40649D01*
X249415Y40622D01*
X249442Y40595D01*
X249480Y40573D01*
X249488Y40565D01*
X249494Y40554D01*
X249507Y40541D01*
X249545Y40519D01*
X249572Y40492D01*
X249610Y40470D01*
X249643Y40438D01*
X249681Y40416D01*
X249697Y40400D01*
X249708Y40395D01*
X249737Y40370D01*
X249762Y40346D01*
X249821Y40313D01*
X249848Y40286D01*
X249886Y40265D01*
X249913Y40238D01*
X249962Y40210D01*
X249984Y40189D01*
X250022Y40173D01*
X250033Y40167D01*
X250065Y40135D01*
X250114Y40108D01*
X250135Y40086D01*
X250206Y40048D01*
X250222Y40032D01*
X250260Y40016D01*
X250271Y40010D01*
X250303Y39978D01*
X250444Y39902D01*
X250447Y39883D01*
X250433Y39869D01*
X250395Y39864D01*
X250309Y39869D01*
X250292Y39864D01*
X250254Y39859D01*
X250152Y39853D01*
X250065Y39848D01*
X241141Y39842D01*
X241125Y39837D01*
X241079Y39840D01*
X241049Y39837D01*
X241033Y39842D01*
X241017Y39837D01*
X240922Y39840D01*
X240887Y39837D01*
X240882Y39842D01*
X240865Y39837D01*
X240819Y39840D01*
X240481Y39837D01*
X240465Y39842D01*
X240351Y39848D01*
X240335Y39853D01*
X240313Y39859D01*
X240202Y39883D01*
X240183Y39891D01*
X240145Y39918D01*
X240115Y39926D01*
X240086Y39945D01*
X240058Y39972D01*
X240048Y39978D01*
X239985Y40040D01*
X239980Y40051D01*
X239942Y40100D01*
X239910Y40159D01*
X239883Y40186D01*
X239866Y40230D01*
X239842Y40259D01*
X239828Y40273D01*
X239812Y40311D01*
X239807Y40321D01*
X239780Y40349D01*
X239747Y40408D01*
X239731Y40424D01*
X239726Y40435D01*
X239690Y40487D01*
X239682Y40495D01*
X239677Y40506D01*
X239650Y40554D01*
X239623Y40581D01*
X239596Y40630D01*
X239579Y40646D01*
X239574Y40657D01*
X239552Y40690D01*
X239547Y40701D01*
X239522Y40730D01*
X239485Y40790D01*
X239471Y40803D01*
X239444Y40852D01*
X239420Y40882D01*
X239406Y40912D01*
X239390Y40939D01*
X239363Y40966D01*
X239330Y41025D01*
X239309Y41047D01*
X239298Y41074D01*
X239282Y41101D01*
X239271Y41112D01*
X239265Y41123D01*
X239254Y41150D01*
X239249Y41172D01*
X239263Y41207D01*
X239271Y41215D01*
X239276Y41226D01*
X239287Y41237D01*
X239319Y41296D01*
X239336Y41312D01*
X239341Y41323D01*
X239374Y41383D01*
X239390Y41399D01*
X239395Y41410D01*
X239406Y41421D01*
X239428Y41459D01*
X239439Y41469D01*
X239444Y41480D01*
X239471Y41529D01*
X239493Y41551D01*
X239498Y41561D01*
X239544Y41629D01*
X239552Y41637D01*
X239558Y41648D01*
X239585Y41686D01*
X239623Y41740D01*
X239628Y41751D01*
X239653Y41781D01*
X239677Y41827D01*
X239699Y41849D01*
X239704Y41859D01*
X239726Y41897D01*
X239739Y41916D01*
X239750Y41922D01*
X239758Y41930D01*
X239764Y41940D01*
X239785Y41978D01*
X239812Y42006D01*
X239839Y42054D01*
X239866Y42081D01*
X239872Y42092D01*
X239880Y42100D01*
X239912Y42095D01*
X239926Y42081D01*
X239931Y42070D01*
X239958Y42043D01*
X239964Y42033D01*
X239988Y42003D01*
X240018Y41973D01*
X240023Y41962D01*
X240048Y41932D01*
X240061Y41919D01*
X240083Y41881D01*
X240115Y41849D01*
X240121Y41838D01*
X240145Y41808D01*
X240175Y41778D01*
X240197Y41740D01*
X240205Y41732D01*
X240213Y41729D01*
X240218Y41719D01*
X240229Y41708D01*
X240235Y41697D01*
X240267Y41664D01*
X240272Y41653D01*
X240299Y41616D01*
X240327Y41589D01*
X240332Y41578D01*
X240356Y41548D01*
X240375Y41529D01*
X240381Y41518D01*
X240392Y41507D01*
X240397Y41497D01*
X240429Y41464D01*
X240435Y41453D01*
X240459Y41423D01*
X240470Y41418D01*
X240484Y41405D01*
X240489Y41394D01*
X240508Y41369D01*
X240519Y41364D01*
X240538Y41345D01*
X240554Y41318D01*
X240611Y41261D01*
X240622Y41255D01*
X240654Y41223D01*
X240665Y41218D01*
X240703Y41196D01*
X240719Y41180D01*
X240768Y41158D01*
X240798Y41150D01*
X240825Y41139D01*
X240849Y41126D01*
X240892Y41115D01*
X240998Y41118D01*
X242682Y41112D01*
X243686Y41109D01*
X243703Y41115D01*
X243724Y41109D01*
X244721Y41115D01*
X245982Y41120D01*
X245998Y41126D01*
X246112Y41131D01*
X246129Y41136D01*
X246188Y41153D01*
X246223Y41161D01*
X246242Y41169D01*
X246250Y41177D01*
X246261Y41215D01*
X246256Y41247D01*
X246234Y41280D01*
X246218Y41318D01*
X246212Y41329D01*
X246188Y41358D01*
X246175Y41372D01*
X246169Y41383D01*
X246150Y41418D01*
X246139Y41423D01*
X246110Y41453D01*
X246104Y41464D01*
X246055Y41513D01*
X246050Y41524D01*
X246042Y41532D01*
X246031Y41537D01*
X246001Y41567D01*
X245996Y41578D01*
X245988Y41586D01*
X245977Y41591D01*
X245958Y41610D01*
X245952Y41621D01*
X245909Y41664D01*
X245904Y41675D01*
X245855Y41724D01*
X245850Y41735D01*
X245812Y41762D01*
X245806Y41773D01*
X245771Y41808D01*
X245760Y41813D01*
X245733Y41846D01*
X245703Y41870D01*
X245668Y41905D01*
X245657Y41911D01*
X245644Y41924D01*
X245638Y41935D01*
X245630Y41943D01*
X245620Y41949D01*
X245590Y41973D01*
X245560Y42003D01*
X245549Y42008D01*
X245500Y42057D01*
X245490Y42062D01*
X245446Y42106D01*
X245435Y42111D01*
X245406Y42136D01*
X245381Y42160D01*
X245343Y42182D01*
X245335Y42190D01*
X245330Y42200D01*
X245316Y42214D01*
X245305Y42219D01*
X245276Y42244D01*
X245251Y42268D01*
X245240Y42274D01*
X245208Y42306D01*
X245197Y42311D01*
X245148Y42360D01*
X245138Y42366D01*
X245094Y42409D01*
X245083Y42414D01*
X245048Y42449D01*
X245046Y42458D01*
X245035Y42463D01*
X245018Y42479D01*
X245008Y42485D01*
X244818Y42674D01*
X244807Y42680D01*
X244742Y42745D01*
X244732Y42750D01*
X244718Y42764D01*
X244713Y42774D01*
X244702Y42785D01*
X244696Y42796D01*
X244677Y42815D01*
X244667Y42820D01*
X244658Y42828D01*
X244653Y42839D01*
X244604Y42888D01*
X244599Y42899D01*
X244550Y42948D01*
X244545Y42958D01*
X244520Y42983D01*
X244512Y42986D01*
X244507Y42996D01*
X244491Y43013D01*
X244485Y43024D01*
X244471Y43037D01*
X244461Y43042D01*
X244453Y43050D01*
X244447Y43061D01*
X244423Y43091D01*
X244398Y43116D01*
X244393Y43126D01*
X244350Y43170D01*
X244344Y43180D01*
X244320Y43210D01*
X244290Y43240D01*
X244285Y43251D01*
X244274Y43262D01*
X244268Y43273D01*
X244247Y43294D01*
X244241Y43305D01*
X244231Y43316D01*
X244225Y43327D01*
X244193Y43359D01*
X244187Y43370D01*
X244163Y43400D01*
X244139Y43424D01*
X244122Y43451D01*
X244090Y43484D01*
X244068Y43522D01*
X244041Y43549D01*
X244019Y43587D01*
X243987Y43619D01*
X243981Y43630D01*
X243946Y43681D01*
X243925Y43714D01*
X243911Y43733D01*
X243890Y43754D01*
X243862Y43803D01*
X243854Y43817D01*
X243843Y43822D01*
X243835Y43830D01*
X243803Y43890D01*
X243781Y43911D01*
X243749Y43971D01*
X243738Y43982D01*
X243732Y43993D01*
X243705Y44036D01*
X243700Y44047D01*
X243689Y44058D01*
X243684Y44068D01*
X243673Y44079D01*
X243651Y44117D01*
X243624Y44155D01*
X243597Y44204D01*
X243581Y44220D01*
X243565Y44258D01*
X243554Y44285D01*
X243529Y44315D01*
X243521Y44323D01*
X243510Y44350D01*
X243489Y44388D01*
X243478Y44399D01*
X243472Y44410D01*
X243429Y44491D01*
X243381Y44583D01*
X243370Y44594D01*
X243359Y44621D01*
X243345Y44656D01*
X243326Y44686D01*
X243310Y44702D01*
X243291Y44753D01*
X243270Y44786D01*
X243242Y44856D01*
X243234Y44865D01*
X243229Y44875D01*
X243218Y44886D01*
X243202Y44924D01*
X243194Y44959D01*
X243167Y45003D01*
X243153Y45027D01*
X243142Y45070D01*
X243121Y45108D01*
X243110Y45119D01*
X243099Y45146D01*
X243093Y45168D01*
X243080Y45203D01*
X243056Y45244D01*
X243050Y45276D01*
X243039Y45303D01*
X242996Y45395D01*
X242988Y45430D01*
X242977Y45457D01*
X242953Y45503D01*
X242942Y45541D01*
X242923Y45593D01*
X242915Y45601D01*
X242904Y45628D01*
X242893Y45666D01*
X242885Y45701D01*
X242869Y45744D01*
X242839Y45812D01*
X242823Y45888D01*
X242790Y45958D01*
X242782Y46010D01*
X242777Y46031D01*
X242747Y46094D01*
X242736Y46137D01*
X242723Y46216D01*
X242717Y46237D01*
X242706Y46264D01*
X242693Y46299D01*
X242682Y46343D01*
X242677Y46402D01*
X242655Y46456D01*
X242633Y46543D01*
X242622Y46619D01*
X242609Y46681D01*
X242590Y46743D01*
X242584Y46765D01*
X242576Y46838D01*
X242571Y46892D01*
X242560Y46957D01*
X242544Y47022D01*
X242539Y47055D01*
X242528Y47152D01*
X242522Y47206D01*
X242511Y47347D01*
X242501Y47412D01*
X242493Y47485D01*
X242487Y47523D01*
X242482Y47723D01*
X242476Y47740D01*
X242482Y48341D01*
X242487Y48357D01*
X242495Y48457D01*
X242501Y48506D01*
X242511Y48571D01*
X242517Y48614D01*
X242522Y48728D01*
X242528Y48793D01*
X242544Y48890D01*
X242549Y48912D01*
X242558Y48942D01*
X242566Y48993D01*
X242571Y49042D01*
X242576Y49102D01*
X242587Y49166D01*
X242593Y49188D01*
X242606Y49234D01*
X242617Y49278D01*
X242622Y49315D01*
X242628Y49337D01*
X242636Y49399D01*
X242641Y49426D01*
X242663Y49486D01*
X242668Y49508D01*
X242674Y49535D01*
X242679Y49567D01*
X242690Y49621D01*
X242701Y49648D01*
X242715Y49684D01*
X242725Y49727D01*
X242731Y49765D01*
X242736Y49787D01*
X242744Y49816D01*
X242755Y49843D01*
X242769Y49879D01*
X242779Y49922D01*
X242788Y49957D01*
X242793Y49979D01*
X242809Y50022D01*
X242823Y50052D01*
X242834Y50090D01*
X242839Y50128D01*
X242852Y50163D01*
X242861Y50171D01*
X242877Y50209D01*
X242899Y50296D01*
X242936Y50377D01*
X242947Y50420D01*
X242961Y50455D01*
X242969Y50463D01*
X242972Y50471D01*
X242974Y50474D01*
X242980Y50485D01*
X242991Y50512D01*
X242996Y50555D01*
X243012Y50582D01*
X243034Y50615D01*
X243042Y50645D01*
X243048Y50672D01*
X243066Y50712D01*
X243077Y50723D01*
X243088Y50750D01*
X243099Y50794D01*
X243121Y50831D01*
X243142Y50864D01*
X243150Y50894D01*
X243156Y50915D01*
X243188Y50970D01*
X243202Y51005D01*
X243207Y51026D01*
X243223Y51054D01*
X243245Y51086D01*
X243251Y51108D01*
X243264Y51143D01*
X243278Y51162D01*
X243299Y51194D01*
X243307Y51224D01*
X243318Y51251D01*
X243337Y51270D01*
X243343Y51281D01*
X243359Y51319D01*
X243386Y51368D01*
X243402Y51395D01*
X243413Y51422D01*
X243435Y51460D01*
X243445Y51470D01*
X243451Y51481D01*
X243527Y51622D01*
X243551Y51652D01*
X243592Y51725D01*
X243603Y51736D01*
X243608Y51747D01*
X243640Y51806D01*
X243657Y51822D01*
X243673Y51860D01*
X243678Y51871D01*
X243703Y51901D01*
X243716Y51915D01*
X243730Y51950D01*
X243738Y51958D01*
X243743Y51969D01*
X243765Y51990D01*
X243792Y52039D01*
X243816Y52069D01*
X243843Y52112D01*
X243862Y52131D01*
X243868Y52142D01*
X243895Y52191D01*
X243922Y52218D01*
X243949Y52266D01*
X243976Y52294D01*
X243998Y52331D01*
X244019Y52353D01*
X244025Y52364D01*
X244052Y52402D01*
X244068Y52418D01*
X244074Y52429D01*
X244084Y52440D01*
X244090Y52450D01*
X244114Y52480D01*
X244122Y52488D01*
X244128Y52499D01*
X244155Y52537D01*
X244187Y52570D01*
X244209Y52607D01*
X244225Y52618D01*
X244231Y52629D01*
X244241Y52640D01*
X244247Y52651D01*
X244279Y52683D01*
X244285Y52694D01*
X244296Y52705D01*
X244312Y52732D01*
X244350Y52770D01*
X244355Y52781D01*
X244393Y52819D01*
X244398Y52829D01*
X244423Y52859D01*
X244453Y52889D01*
X244458Y52900D01*
X244496Y52938D01*
X244501Y52949D01*
X244539Y52987D01*
X244545Y52997D01*
X244564Y53022D01*
X244574Y53027D01*
X244593Y53046D01*
X244599Y53057D01*
X244623Y53087D01*
X244653Y53111D01*
X244691Y53149D01*
X244696Y53160D01*
X244772Y53236D01*
X244778Y53246D01*
X244796Y53265D01*
X244807Y53271D01*
X244918Y53382D01*
X244924Y53393D01*
X244953Y53422D01*
X244964Y53428D01*
X244989Y53452D01*
X244994Y53463D01*
X245002Y53471D01*
X245013Y53477D01*
X245067Y53531D01*
X245078Y53536D01*
X245170Y53628D01*
X245181Y53634D01*
X245197Y53650D01*
X245208Y53655D01*
X245216Y53663D01*
X245222Y53674D01*
X245230Y53682D01*
X245240Y53688D01*
X245270Y53712D01*
X245300Y53742D01*
X245311Y53747D01*
X245354Y53791D01*
X245365Y53796D01*
X245408Y53839D01*
X245419Y53845D01*
X245457Y53883D01*
X245468Y53888D01*
X245514Y53923D01*
X245519Y53934D01*
X245527Y53942D01*
X245538Y53948D01*
X245549Y53959D01*
X245560Y53964D01*
X245592Y53996D01*
X245603Y54002D01*
X245633Y54026D01*
X245657Y54051D01*
X245695Y54072D01*
X245722Y54099D01*
X245733Y54105D01*
X245763Y54129D01*
X245782Y54148D01*
X245793Y54153D01*
X245833Y54183D01*
X245839Y54194D01*
X245847Y54202D01*
X245896Y54229D01*
X245928Y54262D01*
X245966Y54283D01*
X245977Y54294D01*
X245988Y54300D01*
X245998Y54310D01*
X246009Y54316D01*
X246039Y54340D01*
X246058Y54359D01*
X246096Y54381D01*
X246123Y54408D01*
X246172Y54435D01*
X246193Y54457D01*
X246242Y54484D01*
X246269Y54511D01*
X246307Y54532D01*
X246334Y54560D01*
X246345Y54565D01*
X246383Y54587D01*
X246410Y54614D01*
X246421Y54619D01*
X246467Y54644D01*
X246472Y54654D01*
X246480Y54662D01*
X246491Y54668D01*
X246540Y54695D01*
X246562Y54717D01*
X246621Y54749D01*
X246643Y54771D01*
X246702Y54803D01*
X246719Y54819D01*
X246730Y54825D01*
X246789Y54857D01*
X246800Y54868D01*
X246811Y54874D01*
X246859Y54901D01*
X246881Y54922D01*
X246892Y54928D01*
X246941Y54955D01*
X246962Y54977D01*
X246989Y54987D01*
X247027Y55009D01*
X247043Y55025D01*
X247054Y55031D01*
X247103Y55058D01*
X247119Y55074D01*
X247130Y55079D01*
X247157Y55090D01*
X247195Y55112D01*
X247217Y55134D01*
X247268Y55153D01*
X247287Y55166D01*
X247304Y55182D01*
X247341Y55198D01*
X247390Y55226D01*
X247401Y55236D01*
X247412Y55242D01*
X247471Y55274D01*
X247482Y55285D01*
X247509Y55296D01*
X247558Y55323D01*
X247569Y55334D01*
X247580Y55339D01*
X247634Y55361D01*
X247645Y55366D01*
X247674Y55391D01*
X247720Y55410D01*
X247758Y55431D01*
X247775Y55448D01*
X247826Y55466D01*
X247869Y55494D01*
X247899Y55507D01*
X247948Y55534D01*
X247980Y55556D01*
X248002Y55561D01*
X248037Y55575D01*
X248070Y55596D01*
X248099Y55610D01*
X248135Y55618D01*
X248164Y55637D01*
X248175Y55648D01*
X248186Y55653D01*
X248213Y55664D01*
X248248Y55678D01*
X248256Y55686D01*
X248267Y55691D01*
X248278Y55702D01*
X248362Y55732D01*
X248376Y55745D01*
X248386Y55751D01*
X248424Y55767D01*
X248476Y55786D01*
X248495Y55799D01*
X248533Y55816D01*
X248584Y55835D01*
X248603Y55848D01*
X248614Y55859D01*
X248652Y55870D01*
X248673Y55875D01*
X248709Y55889D01*
X248717Y55897D01*
X248727Y55902D01*
X248776Y55924D01*
X248806Y55932D01*
X248833Y55943D01*
X248841Y55951D01*
X248852Y55957D01*
X248890Y55973D01*
X248928Y55984D01*
X248963Y55997D01*
X248971Y56005D01*
X248982Y56011D01*
X249009Y56021D01*
X249052Y56032D01*
X249090Y56054D01*
X249117Y56070D01*
X249139Y56076D01*
X249174Y56084D01*
X249196Y56089D01*
X249226Y56108D01*
X249274Y56130D01*
X249331Y56143D01*
X249394Y56173D01*
X249431Y56184D01*
X249499Y56208D01*
X249507Y56216D01*
X249529Y56222D01*
X249545Y56227D01*
X249589Y56238D01*
X249640Y56257D01*
X249648Y56265D01*
X249659Y56271D01*
X249686Y56281D01*
X249729Y56292D01*
X249764Y56300D01*
X249792Y56311D01*
X249837Y56330D01*
X249881Y56341D01*
X249911Y56349D01*
X249984Y56379D01*
X250022Y56390D01*
X250057Y56398D01*
X250100Y56414D01*
X250157Y56438D01*
X250208Y56447D01*
X250236Y56452D01*
X250257Y56457D01*
X250284Y56468D01*
X250330Y56487D01*
X250352Y56493D01*
X250390Y56498D01*
X250441Y56517D01*
X250468Y56528D01*
X250498Y56536D01*
X250520Y56541D01*
X250558Y56547D01*
X250623Y56563D01*
X250677Y56585D01*
X250739Y56598D01*
X250772Y56604D01*
X250799Y56609D01*
X250820Y56614D01*
X250850Y56628D01*
X250877Y56639D01*
X250899Y56644D01*
X250937Y56650D01*
X250988Y56658D01*
X251010Y56663D01*
X251037Y56674D01*
X251072Y56687D01*
X251115Y56698D01*
X251183Y56707D01*
X251216Y56712D01*
X251243Y56717D01*
X251321Y56742D01*
X251343Y56747D01*
X251419Y56758D01*
X251535Y56782D01*
X251570Y56796D01*
X251592Y56801D01*
X251630Y56807D01*
X251695Y56812D01*
X251711Y56817D01*
X251773Y56831D01*
X251803Y56839D01*
X251846Y56850D01*
X251898Y56858D01*
X251963Y56863D01*
X252066Y56880D01*
X252128Y56899D01*
X252150Y56904D01*
X252188Y56909D01*
X252293Y56918D01*
X252347Y56923D01*
X252374Y56929D01*
X252401Y56939D01*
X252426Y56947D01*
X252464Y56953D01*
X252623Y56966D01*
X252683Y56972D01*
X252726Y56977D01*
X252791Y56988D01*
X252813Y56993D01*
X252840Y56999D01*
X252900Y57004D01*
X252943Y57010D01*
X253062Y57021D01*
X253111Y57026D01*
X253154Y57031D01*
X253203Y57037D01*
X253225Y57042D01*
X253249Y57050D01*
X253382Y57064D01*
X253430Y57069D01*
X253549Y57075D01*
X253609Y57085D01*
X253631Y57091D01*
X253660Y57099D01*
X253682Y57105D01*
X253771Y57113D01*
X253836Y57118D01*
X254020Y57129D01*
X254167Y57145D01*
X254278Y57159D01*
X254380Y57164D01*
X254418Y57169D01*
X254749Y57175D01*
X254803Y57180D01*
X255707Y57175D01*
D02*
G37*
G36*
X254028Y39247D02*
X254213Y39241D01*
X254229Y39236D01*
X254310Y39230D01*
X254337Y39220D01*
X254391Y39203D01*
X254429Y39198D01*
X254451Y39193D01*
X254497Y39184D01*
X254540Y39157D01*
X254548Y39149D01*
X254570Y39144D01*
X254597Y39133D01*
X254608Y39128D01*
X254638Y39103D01*
X254646Y39095D01*
X254684Y39073D01*
X254716Y39041D01*
X254727Y39035D01*
X254735Y39027D01*
X254741Y39017D01*
X254784Y38973D01*
X254789Y38962D01*
X254814Y38933D01*
X254827Y38919D01*
X254838Y38892D01*
X254860Y38854D01*
X254881Y38822D01*
X254892Y38778D01*
X254911Y38727D01*
X254925Y38697D01*
X254935Y38654D01*
X254941Y38616D01*
X254952Y38508D01*
X254946Y38302D01*
X254941Y38286D01*
X254935Y38231D01*
X254925Y38204D01*
X254909Y38166D01*
X254898Y38128D01*
X254887Y38101D01*
X254860Y38053D01*
X254827Y37993D01*
X254803Y37963D01*
X254795Y37955D01*
X254789Y37945D01*
X254730Y37885D01*
X254724Y37874D01*
X254705Y37855D01*
X254695Y37850D01*
X254646Y37812D01*
X254635Y37801D01*
X254565Y37763D01*
X254554Y37752D01*
X254516Y37741D01*
X254494Y37736D01*
X254413Y37698D01*
X254391Y37693D01*
X254356Y37685D01*
X254329Y37679D01*
X254280Y37674D01*
X254253Y37663D01*
X254242Y37652D01*
X254248Y37614D01*
X254272Y37590D01*
X254307Y37576D01*
X254337Y37557D01*
X254364Y37530D01*
X254375Y37525D01*
X254405Y37500D01*
X254424Y37482D01*
X254435Y37476D01*
X254464Y37452D01*
X254475Y37441D01*
X254481Y37430D01*
X254524Y37387D01*
X254529Y37376D01*
X254538Y37368D01*
X254548Y37362D01*
X254567Y37343D01*
X254589Y37306D01*
X254622Y37273D01*
X254648Y37224D01*
X254670Y37203D01*
X254676Y37192D01*
X254711Y37140D01*
X254724Y37127D01*
X254757Y37067D01*
X254768Y37056D01*
X254773Y37046D01*
X254806Y36986D01*
X254827Y36964D01*
X254865Y36894D01*
X254876Y36883D01*
X254909Y36824D01*
X254925Y36807D01*
X254930Y36797D01*
X254963Y36737D01*
X254973Y36726D01*
X254979Y36715D01*
X255006Y36672D01*
X255022Y36645D01*
X255033Y36634D01*
X255071Y36564D01*
X255087Y36548D01*
X255131Y36466D01*
X255147Y36450D01*
X255152Y36439D01*
X255168Y36412D01*
X255163Y36396D01*
X255155Y36388D01*
X255133Y36382D01*
X255109Y36380D01*
X254502Y36385D01*
X254486Y36396D01*
X254459Y36445D01*
X254432Y36472D01*
X254400Y36531D01*
X254383Y36548D01*
X254356Y36596D01*
X254340Y36612D01*
X254335Y36623D01*
X254313Y36661D01*
X254289Y36691D01*
X254280Y36699D01*
X254248Y36759D01*
X254226Y36780D01*
X254199Y36829D01*
X254177Y36851D01*
X254145Y36910D01*
X254129Y36927D01*
X254123Y36937D01*
X254102Y36975D01*
X254091Y36986D01*
X254085Y36997D01*
X254069Y37013D01*
X254042Y37062D01*
X254031Y37073D01*
X254026Y37083D01*
X253999Y37127D01*
X253993Y37138D01*
X253972Y37159D01*
X253966Y37170D01*
X253931Y37222D01*
X253923Y37230D01*
X253920Y37238D01*
X253918Y37241D01*
X253896Y37278D01*
X253863Y37311D01*
X253836Y37360D01*
X253804Y37392D01*
X253798Y37403D01*
X253780Y37427D01*
X253769Y37433D01*
X253750Y37452D01*
X253744Y37462D01*
X253736Y37471D01*
X253725Y37476D01*
X253687Y37503D01*
X253671Y37519D01*
X253633Y37536D01*
X253612Y37541D01*
X253560Y37560D01*
X253525Y37573D01*
X253471Y37579D01*
X253222Y37584D01*
X253187Y37565D01*
X253181Y37544D01*
X253176Y36401D01*
X253157Y36382D01*
X253124Y36377D01*
X253108Y36382D01*
X252651Y36380D01*
X252629Y36385D01*
X252618Y36390D01*
X252613Y36401D01*
X252607Y36418D01*
X252613Y39233D01*
X252626Y39247D01*
X252648Y39252D01*
X253993Y39249D01*
X254012Y39252D01*
X254028Y39247D01*
D02*
G37*
G36*
X248619Y39252D02*
X249058Y39247D01*
X249066Y39239D01*
X249077Y39211D01*
Y37722D01*
Y37717D01*
X249071Y36401D01*
X249058Y36388D01*
X249036Y36382D01*
X249017Y36380D01*
X248570Y36382D01*
X248554Y36377D01*
X248514Y36385D01*
X248459Y36439D01*
X248454Y36450D01*
X248427Y36499D01*
X248411Y36515D01*
X248405Y36526D01*
X248373Y36585D01*
X248351Y36618D01*
X248324Y36667D01*
X248297Y36704D01*
X248265Y36764D01*
X248254Y36775D01*
X248221Y36834D01*
X248210Y36845D01*
X248205Y36856D01*
X248194Y36867D01*
X248181Y36902D01*
X248167Y36921D01*
X248146Y36943D01*
X248129Y36981D01*
X248108Y37018D01*
X248097Y37029D01*
X248059Y37100D01*
X248043Y37116D01*
X248037Y37127D01*
X248010Y37176D01*
X247983Y37213D01*
X247956Y37262D01*
X247940Y37278D01*
X247929Y37306D01*
X247907Y37343D01*
X247891Y37360D01*
X247885Y37371D01*
X247853Y37430D01*
X247831Y37462D01*
X247826Y37473D01*
X247772Y37560D01*
X247766Y37576D01*
X247742Y37606D01*
X247701Y37674D01*
X247674Y37712D01*
X247663Y37739D01*
X247658Y37750D01*
X247634Y37779D01*
X247615Y37815D01*
X247599Y37842D01*
X247572Y37880D01*
X247539Y37939D01*
X247528Y37950D01*
X247523Y37961D01*
X247490Y38020D01*
X247466Y38050D01*
X247442Y38096D01*
X247431Y38107D01*
X247425Y38118D01*
X247409Y38156D01*
X247387Y38194D01*
X247363Y38202D01*
X247341Y38196D01*
X247336Y38175D01*
X247333Y38134D01*
X247339Y38118D01*
X247333Y36407D01*
X247325Y36393D01*
X247298Y36382D01*
X246822Y36388D01*
X246803Y36401D01*
X246797Y36423D01*
X246803Y36542D01*
X246800Y39079D01*
X246803Y39163D01*
X246797Y39179D01*
X246803Y39228D01*
X246822Y39247D01*
X246859Y39252D01*
X247312Y39255D01*
X247339Y39249D01*
X247382Y39222D01*
X247404Y39190D01*
X247431Y39141D01*
X247442Y39130D01*
X247447Y39120D01*
X247474Y39071D01*
X247485Y39060D01*
X247490Y39049D01*
X247501Y39038D01*
X247512Y39011D01*
X247534Y38973D01*
X247544Y38962D01*
X247550Y38952D01*
X247577Y38903D01*
X247604Y38865D01*
X247637Y38805D01*
X247647Y38795D01*
X247653Y38784D01*
X247685Y38724D01*
X247696Y38713D01*
X247701Y38702D01*
X247734Y38643D01*
X247745Y38632D01*
X247750Y38621D01*
X247761Y38610D01*
X247775Y38575D01*
X247783Y38567D01*
X247788Y38556D01*
X247799Y38545D01*
X247804Y38535D01*
X247831Y38486D01*
X247859Y38448D01*
X247891Y38389D01*
X247913Y38367D01*
X247929Y38329D01*
X247945Y38302D01*
X247972Y38264D01*
X248005Y38204D01*
X248015Y38194D01*
X248048Y38134D01*
X248064Y38118D01*
X248070Y38107D01*
X248108Y38036D01*
X248129Y38004D01*
X248151Y37966D01*
X248167Y37950D01*
X248205Y37880D01*
X248232Y37842D01*
X248243Y37815D01*
X248248Y37804D01*
X248281Y37755D01*
X248302Y37717D01*
X248327Y37687D01*
X248340Y37657D01*
X248362Y37620D01*
X248378Y37603D01*
X248416Y37533D01*
X248427Y37522D01*
X248470Y37441D01*
X248492Y37408D01*
X248497Y37398D01*
X248511Y37379D01*
X248527Y37373D01*
X248541Y37381D01*
X248552Y37408D01*
X248546Y37576D01*
X248552Y37592D01*
X248546Y37679D01*
X248549Y38093D01*
X248546Y39217D01*
X248562Y39244D01*
X248570Y39252D01*
X248603Y39258D01*
X248619Y39252D01*
D02*
G37*
G36*
X246150Y39247D02*
X246164Y39233D01*
X246175Y39195D01*
X246169Y39092D01*
X246172Y38933D01*
X246169Y36455D01*
X246175Y36439D01*
X246169Y36407D01*
X246150Y36388D01*
X246129Y36382D01*
X245628Y36380D01*
X245606Y36385D01*
X245573Y36418D01*
X245568Y36428D01*
X245546Y36450D01*
X245533Y36485D01*
X245511Y36518D01*
X245492Y36537D01*
X245479Y36572D01*
X245452Y36615D01*
X245443Y36623D01*
X245438Y36634D01*
X245416Y36672D01*
X245389Y36710D01*
X245357Y36769D01*
X245341Y36786D01*
X245335Y36797D01*
X245303Y36856D01*
X245287Y36872D01*
X245273Y36907D01*
X245246Y36940D01*
X245227Y36975D01*
X245205Y37013D01*
X245178Y37051D01*
X245146Y37111D01*
X245135Y37121D01*
X245102Y37181D01*
X245078Y37211D01*
X245065Y37241D01*
X245048Y37268D01*
X245037Y37278D01*
X245032Y37289D01*
X245005Y37338D01*
X244983Y37360D01*
X244967Y37398D01*
X244945Y37436D01*
X244918Y37473D01*
X244913Y37484D01*
X244891Y37522D01*
X244880Y37533D01*
X244875Y37544D01*
X244842Y37603D01*
X244826Y37620D01*
X244821Y37630D01*
X244788Y37690D01*
X244778Y37701D01*
X244772Y37712D01*
X244745Y37760D01*
X244707Y37815D01*
X244702Y37836D01*
X244653Y37907D01*
X244631Y37945D01*
X244615Y37961D01*
X244577Y38031D01*
X244561Y38047D01*
X244555Y38058D01*
X244528Y38107D01*
X244512Y38134D01*
X244501Y38161D01*
X244488Y38196D01*
X244477Y38207D01*
X244455Y38212D01*
X244436Y38194D01*
X244431Y38172D01*
X244434Y36420D01*
X244428Y36399D01*
X244417Y36388D01*
X244396Y36382D01*
X243919Y36388D01*
X243900Y36407D01*
X243895Y36428D01*
X243898Y36485D01*
X243895Y37192D01*
Y37197D01*
X243898Y39014D01*
X243895Y39136D01*
X243900Y39152D01*
X243895Y39174D01*
X243892Y39209D01*
X243900Y39228D01*
X243914Y39241D01*
X243941Y39252D01*
X244445Y39247D01*
X244471Y39230D01*
X244485Y39217D01*
X244499Y39182D01*
X244518Y39157D01*
X244523Y39146D01*
X244534Y39136D01*
X244550Y39098D01*
X244555Y39087D01*
X244580Y39057D01*
X244604Y39017D01*
X244610Y39000D01*
X244634Y38970D01*
X244675Y38897D01*
X244691Y38881D01*
X244696Y38870D01*
X244723Y38822D01*
X244750Y38784D01*
X244756Y38762D01*
X244767Y38751D01*
X244772Y38740D01*
X244799Y38702D01*
X244805Y38681D01*
X244832Y38643D01*
X244842Y38632D01*
X244848Y38621D01*
X244880Y38562D01*
X244897Y38545D01*
X244907Y38518D01*
X244913Y38508D01*
X244940Y38470D01*
X244956Y38443D01*
X244983Y38394D01*
X244994Y38383D01*
X245000Y38372D01*
X245032Y38313D01*
X245048Y38296D01*
X245086Y38226D01*
X245102Y38210D01*
X245119Y38172D01*
X245135Y38145D01*
X245151Y38128D01*
X245156Y38118D01*
X245194Y38047D01*
X245205Y38036D01*
X245243Y37966D01*
X245259Y37950D01*
X245292Y37890D01*
X245319Y37852D01*
X245352Y37793D01*
X245362Y37782D01*
X245400Y37712D01*
X245411Y37701D01*
X245416Y37690D01*
X245449Y37630D01*
X245465Y37614D01*
X245498Y37555D01*
X245514Y37538D01*
X245530Y37500D01*
X245552Y37462D01*
X245573Y37430D01*
X245600Y37381D01*
X245609Y37373D01*
X245630Y37379D01*
X245638Y37387D01*
X245644Y37408D01*
X245646Y37444D01*
X245641Y37498D01*
X245638Y37549D01*
X245644Y37565D01*
X245641Y37671D01*
X245644Y39168D01*
X245638Y39184D01*
X245644Y39228D01*
X245657Y39247D01*
X245679Y39252D01*
X246150Y39247D01*
D02*
G37*
G36*
X265827Y39252D02*
X266596Y39247D01*
X266621Y39222D01*
X266626Y39190D01*
X266621Y39174D01*
X266623Y36426D01*
X266618Y36404D01*
X266602Y36388D01*
X266547Y36382D01*
X266103Y36388D01*
X266090Y36396D01*
X266079Y36423D01*
X266084Y36526D01*
X266079Y36580D01*
X266082Y37297D01*
X266076Y38483D01*
X266071Y38510D01*
X266066Y38521D01*
X266049Y38526D01*
X266030Y38508D01*
X266014Y38443D01*
X266003Y38367D01*
X265998Y38345D01*
X265990Y38315D01*
X265976Y38269D01*
X265971Y38248D01*
X265965Y38210D01*
X265960Y38188D01*
X265946Y38126D01*
X265935Y38099D01*
X265922Y38064D01*
X265917Y38026D01*
X265911Y38004D01*
X265906Y37966D01*
X265900Y37945D01*
X265892Y37909D01*
X265873Y37863D01*
X265865Y37828D01*
X265854Y37774D01*
X265849Y37741D01*
X265844Y37714D01*
X265833Y37687D01*
X265819Y37652D01*
X265808Y37587D01*
X265803Y37565D01*
X265795Y37514D01*
X265789Y37492D01*
X265776Y37462D01*
X265770Y37452D01*
Y37446D01*
X265765Y37430D01*
X265760Y37408D01*
X265751Y37362D01*
X265746Y37330D01*
X265735Y37287D01*
X265722Y37257D01*
X265711Y37219D01*
X265697Y37135D01*
X265692Y37108D01*
X265676Y37064D01*
X265662Y37018D01*
X265657Y36997D01*
X265649Y36951D01*
X265643Y36918D01*
X265638Y36891D01*
X265632Y36870D01*
X265621Y36843D01*
X265608Y36807D01*
X265592Y36715D01*
X265581Y36672D01*
X265570Y36645D01*
X265559Y36607D01*
X265554Y36585D01*
X265548Y36548D01*
X265543Y36526D01*
X265529Y36463D01*
X265524Y36442D01*
X265513Y36415D01*
X265500Y36396D01*
X265492Y36388D01*
X265470Y36382D01*
X265007Y36380D01*
X264974Y36385D01*
X264956Y36399D01*
X264942Y36412D01*
X264931Y36450D01*
X264926Y36488D01*
X264920Y36510D01*
X264912Y36550D01*
X264896Y36593D01*
X264888Y36623D01*
X264882Y36645D01*
X264877Y36683D01*
X264872Y36704D01*
X264858Y36761D01*
X264839Y36824D01*
X264828Y36862D01*
X264823Y36883D01*
X264815Y36935D01*
X264804Y36978D01*
X264785Y37040D01*
X264774Y37083D01*
X264766Y37135D01*
X264760Y37162D01*
X264725Y37273D01*
X264720Y37295D01*
X264715Y37349D01*
X264709Y37371D01*
X264685Y37438D01*
X264674Y37482D01*
X264669Y37514D01*
X264658Y37568D01*
X264628Y37663D01*
X264617Y37706D01*
X264609Y37774D01*
X264604Y37796D01*
X264574Y37869D01*
X264568Y37907D01*
X264563Y37928D01*
X264555Y37985D01*
X264520Y38096D01*
X264514Y38118D01*
X264509Y38156D01*
X264503Y38177D01*
X264495Y38212D01*
X264487Y38242D01*
X264476Y38280D01*
X264471Y38302D01*
X264465Y38340D01*
X264460Y38361D01*
X264455Y38416D01*
X264449Y38432D01*
X264430Y38483D01*
X264417Y38502D01*
X264392Y38526D01*
X264379Y38524D01*
X264373Y38453D01*
X264379Y38139D01*
X264376Y37850D01*
X264379Y37831D01*
X264373Y37815D01*
X264368Y36401D01*
X264360Y36393D01*
X264322Y36382D01*
X263856Y36388D01*
X263843Y36401D01*
X263837Y36423D01*
X263843Y39233D01*
X263856Y39247D01*
X263894Y39252D01*
X264696Y39247D01*
X264709Y39233D01*
X264720Y39195D01*
X264728Y39155D01*
X264739Y39128D01*
X264747Y39120D01*
X264755Y39084D01*
X264760Y39057D01*
X264766Y39035D01*
X264771Y39009D01*
X264777Y38976D01*
X264782Y38954D01*
X264793Y38927D01*
X264807Y38892D01*
X264815Y38846D01*
X264825Y38792D01*
X264836Y38749D01*
X264847Y38721D01*
X264855Y38697D01*
X264866Y38659D01*
X264885Y38570D01*
X264909Y38491D01*
X264915Y38470D01*
X264928Y38407D01*
X264934Y38380D01*
X264950Y38337D01*
X264969Y38275D01*
X264974Y38237D01*
X264980Y38215D01*
X264988Y38185D01*
X264993Y38164D01*
X265004Y38137D01*
X265018Y38091D01*
X265023Y38069D01*
X265031Y38012D01*
X265053Y37953D01*
X265067Y37907D01*
X265085Y37817D01*
X265091Y37796D01*
X265102Y37768D01*
X265110Y37739D01*
X265131Y37652D01*
X265140Y37601D01*
X265156Y37557D01*
X265169Y37522D01*
X265175Y37500D01*
X265180Y37446D01*
X265186Y37425D01*
X265191Y37381D01*
X265205Y37357D01*
X265226Y37352D01*
X265242Y37357D01*
X265256Y37371D01*
X265267Y37398D01*
X265278Y37441D01*
X265289Y37506D01*
X265299Y37549D01*
X265313Y37584D01*
X265332Y37647D01*
X265362Y37785D01*
X265375Y37820D01*
X265386Y37858D01*
X265391Y37896D01*
X265397Y37917D01*
X265405Y37958D01*
X265427Y38012D01*
X265435Y38042D01*
X265440Y38064D01*
X265448Y38110D01*
X265454Y38131D01*
X265459Y38158D01*
X265475Y38202D01*
X265489Y38248D01*
X265494Y38286D01*
X265500Y38307D01*
X265513Y38364D01*
X265529Y38407D01*
X265543Y38453D01*
X265548Y38491D01*
X265562Y38554D01*
X265567Y38575D01*
X265592Y38637D01*
X265597Y38659D01*
X265602Y38697D01*
X265608Y38719D01*
X265616Y38754D01*
X265646Y38849D01*
X265651Y38870D01*
X265657Y38908D01*
X265662Y38930D01*
X265684Y39000D01*
X265695Y39038D01*
X265705Y39081D01*
X265714Y39128D01*
X265727Y39174D01*
X265746Y39225D01*
X265768Y39247D01*
X265806Y39258D01*
X265827Y39252D01*
D02*
G37*
G36*
X270186D02*
X270668Y39247D01*
X270682Y39239D01*
X270687Y39228D01*
X270709Y39190D01*
X270719Y39179D01*
X270725Y39168D01*
X270741Y39141D01*
X270768Y39092D01*
X270784Y39076D01*
X270822Y39006D01*
X270833Y38995D01*
X270871Y38925D01*
X270882Y38914D01*
X270887Y38903D01*
X270914Y38854D01*
X270941Y38816D01*
X270974Y38757D01*
X271001Y38719D01*
X271028Y38670D01*
X271039Y38659D01*
X271077Y38589D01*
X271088Y38578D01*
X271093Y38567D01*
X271131Y38497D01*
X271147Y38481D01*
X271180Y38421D01*
X271190Y38410D01*
X271196Y38399D01*
X271234Y38329D01*
X271255Y38307D01*
X271266Y38280D01*
X271288Y38242D01*
X271304Y38226D01*
X271342Y38156D01*
X271364Y38123D01*
X271391Y38074D01*
X271407Y38058D01*
X271445Y37988D01*
X271456Y37977D01*
X271494Y37907D01*
X271510Y37890D01*
X271526Y37852D01*
X271532Y37842D01*
X271580Y37771D01*
X271586Y37750D01*
X271602Y37733D01*
X271607Y37722D01*
X271635Y37674D01*
X271659Y37644D01*
X271678Y37609D01*
X271700Y37571D01*
X271716Y37555D01*
X271754Y37484D01*
X271802Y37392D01*
X271827Y37384D01*
X271851Y37398D01*
X271857Y37436D01*
X271851Y37452D01*
X271857Y39233D01*
X271865Y39241D01*
X271892Y39252D01*
X272363Y39247D01*
X272382Y39233D01*
X272393Y39206D01*
X272390Y39090D01*
X272393Y39033D01*
X272387Y39017D01*
X272393Y38946D01*
Y38892D01*
Y38887D01*
X272387Y38518D01*
X272393Y38502D01*
X272387Y37690D01*
X272393Y37674D01*
X272390Y36458D01*
X272393Y36423D01*
X272376Y36396D01*
X272368Y36388D01*
X272330Y36382D01*
X271805Y36388D01*
X271797Y36396D01*
X271792Y36407D01*
X271770Y36445D01*
X271732Y36499D01*
X271710Y36537D01*
X271689Y36569D01*
X271656Y36629D01*
X271640Y36645D01*
X271602Y36715D01*
X271591Y36726D01*
X271559Y36786D01*
X271542Y36802D01*
X271505Y36872D01*
X271488Y36889D01*
X271472Y36927D01*
X271456Y36953D01*
X271440Y36970D01*
X271402Y37040D01*
X271380Y37062D01*
X271367Y37097D01*
X271348Y37127D01*
X271331Y37143D01*
X271293Y37213D01*
X271283Y37224D01*
X271245Y37295D01*
X271234Y37306D01*
X271228Y37316D01*
X271196Y37376D01*
X271180Y37392D01*
X271142Y37462D01*
X271126Y37479D01*
X271088Y37549D01*
X271077Y37560D01*
X271071Y37571D01*
X271044Y37614D01*
X271017Y37663D01*
X270996Y37701D01*
X270985Y37712D01*
X270979Y37722D01*
X270963Y37739D01*
X270950Y37774D01*
X270928Y37806D01*
X270914Y37820D01*
X270882Y37880D01*
X270855Y37917D01*
X270849Y37939D01*
X270839Y37950D01*
X270833Y37961D01*
X270822Y37971D01*
X270817Y37982D01*
X270806Y37993D01*
X270793Y38028D01*
X270771Y38061D01*
X270763Y38069D01*
X270725Y38139D01*
X270703Y38172D01*
X270698Y38183D01*
X270679Y38212D01*
X270663Y38218D01*
X270644Y38199D01*
X270638Y38161D01*
X270644Y37977D01*
X270641Y36463D01*
X270644Y36412D01*
X270625Y36382D01*
X270603Y36377D01*
X270533Y36382D01*
X270145Y36380D01*
X270126Y36393D01*
X270118Y36401D01*
X270113Y36423D01*
X270118Y39233D01*
X270132Y39247D01*
X270154Y39252D01*
X270170Y39258D01*
X270186Y39252D01*
D02*
G37*
G36*
X268616Y39247D02*
X268646Y39222D01*
X268656Y39211D01*
X268667Y39174D01*
X268675Y39138D01*
X268711Y39071D01*
X268721Y39027D01*
X268765Y38935D01*
X268776Y38897D01*
X268813Y38816D01*
X268824Y38773D01*
X268835Y38746D01*
X268841Y38735D01*
X268868Y38675D01*
X268878Y38637D01*
X268922Y38545D01*
X268930Y38510D01*
X268954Y38459D01*
X268971Y38421D01*
X268981Y38383D01*
X268995Y38348D01*
X269003Y38340D01*
X269025Y38291D01*
X269033Y38256D01*
X269049Y38212D01*
X269073Y38172D01*
X269084Y38128D01*
X269092Y38099D01*
X269114Y38066D01*
X269125Y38039D01*
X269130Y38018D01*
X269152Y37958D01*
X269176Y37917D01*
X269184Y37882D01*
X269190Y37861D01*
X269201Y37833D01*
X269225Y37787D01*
X269236Y37750D01*
X269241Y37728D01*
X269252Y37701D01*
X269268Y37685D01*
X269279Y37657D01*
X269285Y37636D01*
X269293Y37601D01*
X269301Y37582D01*
X269328Y37538D01*
X269336Y37509D01*
X269347Y37465D01*
X269382Y37398D01*
X269398Y37343D01*
X269412Y37308D01*
X269436Y37268D01*
X269447Y37224D01*
X269455Y37194D01*
X269482Y37151D01*
X269485Y37148D01*
Y37143D01*
X269496Y37105D01*
X269501Y37083D01*
X269539Y37002D01*
X269544Y36981D01*
X269553Y36951D01*
X269563Y36924D01*
X269571Y36916D01*
X269577Y36905D01*
X269599Y36856D01*
X269604Y36834D01*
X269623Y36783D01*
X269631Y36775D01*
X269647Y36737D01*
X269655Y36702D01*
X269672Y36658D01*
X269680Y36650D01*
X269696Y36612D01*
X269707Y36574D01*
X269720Y36539D01*
X269745Y36493D01*
X269764Y36442D01*
X269772Y36418D01*
X269767Y36396D01*
X269758Y36388D01*
X269720Y36382D01*
X269174Y36388D01*
X269149Y36407D01*
X269138Y36434D01*
X269130Y36469D01*
X269119Y36496D01*
X269103Y36528D01*
X269090Y36564D01*
X269081Y36593D01*
X269065Y36637D01*
X269046Y36672D01*
X269035Y36710D01*
X269030Y36732D01*
X269019Y36759D01*
X268987Y36829D01*
X268981Y36851D01*
X268957Y36918D01*
X268949Y36927D01*
X268922Y37002D01*
X268914Y37016D01*
X268903Y37021D01*
X268876Y37032D01*
X268851Y37035D01*
X268711Y37029D01*
X268692Y37027D01*
X268675Y37032D01*
X267771Y37027D01*
X267741Y37002D01*
X267725Y36948D01*
X267720Y36927D01*
X267682Y36845D01*
X267674Y36805D01*
X267668Y36783D01*
X267638Y36726D01*
X267622Y36661D01*
X267609Y36626D01*
X267584Y36585D01*
X267576Y36550D01*
X267565Y36507D01*
X267554Y36480D01*
X267541Y36450D01*
X267528Y36415D01*
X267511Y36388D01*
X267490Y36382D01*
X267473Y36377D01*
X267457Y36382D01*
X266926Y36388D01*
X266918Y36396D01*
X266916Y36415D01*
X266924Y36434D01*
X266945Y36466D01*
X266956Y36510D01*
X266970Y36545D01*
X266989Y36580D01*
X266999Y36607D01*
X267008Y36642D01*
X267019Y36669D01*
X267043Y36715D01*
X267059Y36769D01*
X267078Y36821D01*
X267108Y36889D01*
X267116Y36918D01*
X267132Y36962D01*
X267140Y36970D01*
X267157Y37008D01*
X267167Y37051D01*
X267181Y37086D01*
X267205Y37127D01*
X267213Y37162D01*
X267219Y37189D01*
X267232Y37224D01*
X267254Y37257D01*
X267262Y37287D01*
X267268Y37308D01*
X267278Y37335D01*
X267308Y37392D01*
X267314Y37414D01*
X267322Y37449D01*
X267335Y37484D01*
X267362Y37544D01*
X267368Y37565D01*
X267381Y37601D01*
X267411Y37663D01*
X267422Y37701D01*
X267427Y37722D01*
X267471Y37815D01*
X267479Y37850D01*
X267484Y37871D01*
X267514Y37928D01*
X267525Y37971D01*
X267544Y38023D01*
X267552Y38031D01*
X267568Y38069D01*
X267574Y38091D01*
X267598Y38158D01*
X267606Y38166D01*
X267622Y38204D01*
X267633Y38248D01*
X267652Y38299D01*
X267660Y38307D01*
X267676Y38345D01*
X267687Y38389D01*
X267701Y38424D01*
X267725Y38464D01*
X267733Y38500D01*
X267739Y38521D01*
X267752Y38556D01*
X267779Y38616D01*
X267790Y38654D01*
X267828Y38735D01*
X267833Y38757D01*
X267844Y38795D01*
X267888Y38887D01*
X267896Y38927D01*
X267925Y38990D01*
X267931Y39011D01*
X267942Y39038D01*
X267961Y39090D01*
X267996Y39168D01*
X268004Y39198D01*
X268012Y39217D01*
X268036Y39241D01*
X268064Y39252D01*
X268616Y39247D01*
D02*
G37*
G36*
X256043D02*
X256067Y39228D01*
X256073Y39190D01*
X256070Y38981D01*
X256073Y36499D01*
X256067Y36483D01*
X256073Y36445D01*
X256067Y36401D01*
X256054Y36388D01*
X256032Y36382D01*
X255518Y36388D01*
X255493Y36412D01*
X255499Y36564D01*
X255496Y36843D01*
X255499Y37159D01*
X255493Y37176D01*
X255499Y37197D01*
X255493Y37333D01*
X255499Y38107D01*
X255493Y38123D01*
X255496Y38586D01*
X255493Y38637D01*
X255499Y38654D01*
X255493Y38670D01*
X255499Y38708D01*
X255496Y38992D01*
X255499Y39109D01*
X255493Y39125D01*
X255499Y39141D01*
X255493Y39211D01*
X255501Y39225D01*
X255504Y39228D01*
X255509Y39239D01*
X255539Y39252D01*
X256043Y39247D01*
D02*
G37*
G36*
X259026D02*
X259045Y39228D01*
X259053Y39198D01*
X259059Y39176D01*
X259089Y39120D01*
X259100Y39081D01*
X259105Y39060D01*
X259137Y39000D01*
X259148Y38973D01*
X259154Y38952D01*
X259162Y38922D01*
X259191Y38865D01*
X259208Y38811D01*
X259221Y38776D01*
X259246Y38735D01*
X259254Y38700D01*
X259259Y38678D01*
X259270Y38651D01*
X259294Y38605D01*
X259305Y38578D01*
X259313Y38548D01*
X259324Y38521D01*
X259343Y38486D01*
X259354Y38448D01*
X259373Y38397D01*
X259403Y38334D01*
X259419Y38280D01*
X259462Y38188D01*
X259470Y38153D01*
X259481Y38126D01*
X259506Y38080D01*
X259516Y38042D01*
X259522Y38020D01*
X259565Y37928D01*
X259573Y37893D01*
X259598Y37847D01*
X259614Y37809D01*
X259625Y37766D01*
X259668Y37674D01*
X259673Y37641D01*
X259684Y37614D01*
X259690Y37603D01*
X259717Y37544D01*
X259736Y37492D01*
X259765Y37430D01*
X259776Y37392D01*
X259790Y37357D01*
X259814Y37311D01*
X259830Y37257D01*
X259844Y37222D01*
X259874Y37159D01*
X259879Y37138D01*
X259893Y37102D01*
X259901Y37083D01*
X259928Y37024D01*
X259939Y36981D01*
X259982Y36889D01*
X259988Y36856D01*
X260009Y36818D01*
X260031Y36769D01*
X260039Y36740D01*
X260044Y36718D01*
X260074Y36667D01*
X260085Y36629D01*
X260093Y36593D01*
X260107Y36564D01*
X260112Y36553D01*
X260134Y36504D01*
X260139Y36483D01*
X260161Y36445D01*
X260177Y36418D01*
X260172Y36396D01*
X260163Y36388D01*
X260142Y36382D01*
X259603Y36380D01*
X259581Y36385D01*
X259562Y36399D01*
X259549Y36412D01*
X259543Y36423D01*
X259522Y36472D01*
X259514Y36507D01*
X259503Y36534D01*
X259495Y36542D01*
X259478Y36580D01*
X259462Y36645D01*
X259441Y36683D01*
X259424Y36721D01*
X259419Y36742D01*
X259408Y36780D01*
X259395Y36816D01*
X259386Y36824D01*
X259376Y36851D01*
X259365Y36889D01*
X259351Y36924D01*
X259316Y37002D01*
X259292Y37027D01*
X259270Y37032D01*
X259164Y37029D01*
X258228Y37035D01*
X258193Y37037D01*
X258155Y37010D01*
X258130Y36986D01*
X258114Y36932D01*
X258106Y36902D01*
X258090Y36859D01*
X258076Y36834D01*
X258065Y36797D01*
X258054Y36753D01*
X258041Y36718D01*
X258033Y36710D01*
X258016Y36672D01*
X258006Y36629D01*
X257998Y36599D01*
X257989Y36580D01*
X257962Y36520D01*
X257957Y36499D01*
X257946Y36461D01*
X257914Y36401D01*
X257900Y36388D01*
X257862Y36377D01*
X257824Y36382D01*
X257356Y36380D01*
X257337Y36388D01*
X257323Y36401D01*
X257329Y36445D01*
X257340Y36472D01*
X257356Y36515D01*
X257378Y36553D01*
X257394Y36618D01*
X257407Y36653D01*
X257416Y36661D01*
X257432Y36699D01*
X257442Y36742D01*
X257456Y36778D01*
X257480Y36824D01*
X257491Y36862D01*
X257510Y36913D01*
X257540Y36981D01*
X257545Y37002D01*
X257559Y37037D01*
X257583Y37083D01*
X257594Y37121D01*
X257600Y37143D01*
X257613Y37178D01*
X257632Y37213D01*
X257667Y37314D01*
X257697Y37381D01*
X257703Y37403D01*
X257711Y37433D01*
X257727Y37465D01*
X257751Y37522D01*
X257757Y37544D01*
X257773Y37587D01*
X257800Y37647D01*
X257805Y37668D01*
X257819Y37703D01*
X257849Y37771D01*
X257859Y37809D01*
X257865Y37831D01*
X257908Y37923D01*
X257916Y37958D01*
X257930Y37993D01*
X257962Y38064D01*
X257968Y38096D01*
X257995Y38139D01*
X258011Y38199D01*
X258025Y38234D01*
X258054Y38296D01*
X258065Y38340D01*
X258076Y38367D01*
X258109Y38437D01*
X258125Y38491D01*
X258138Y38526D01*
X258163Y38583D01*
X258168Y38605D01*
X258182Y38640D01*
X258190Y38659D01*
X258217Y38719D01*
X258236Y38770D01*
X258244Y38789D01*
X258255Y38816D01*
X258257Y38819D01*
X258295Y38927D01*
X258304Y38935D01*
X258325Y39006D01*
X258341Y39049D01*
X258368Y39109D01*
X258379Y39146D01*
X258396Y39190D01*
X258431Y39241D01*
X258442Y39247D01*
X258458Y39252D01*
X259026Y39247D01*
D02*
G37*
G36*
X251132D02*
X251145Y39233D01*
X251156Y39206D01*
X251189Y39136D01*
X251194Y39114D01*
X251218Y39046D01*
X251237Y39011D01*
X251248Y38984D01*
X251256Y38949D01*
X251267Y38922D01*
X251291Y38876D01*
X251302Y38838D01*
X251308Y38816D01*
X251329Y38778D01*
X251351Y38730D01*
X251364Y38673D01*
X251386Y38640D01*
X251400Y38605D01*
X251411Y38562D01*
X251454Y38470D01*
X251459Y38448D01*
X251473Y38413D01*
X251503Y38351D01*
X251513Y38313D01*
X251532Y38261D01*
X251541Y38253D01*
X251546Y38242D01*
X251557Y38215D01*
X251567Y38177D01*
X251581Y38142D01*
X251605Y38096D01*
X251616Y38053D01*
X251630Y38018D01*
X251654Y37977D01*
X251660Y37955D01*
X251670Y37917D01*
X251708Y37836D01*
X251719Y37798D01*
X251733Y37763D01*
X251763Y37701D01*
X251773Y37663D01*
X251787Y37628D01*
X251798Y37601D01*
X251806Y37592D01*
X251841Y37492D01*
X251849Y37484D01*
X251865Y37446D01*
X251871Y37425D01*
X251882Y37387D01*
X251925Y37295D01*
X251930Y37262D01*
X251979Y37159D01*
X251987Y37129D01*
X251998Y37102D01*
X252017Y37067D01*
X252028Y37040D01*
X252036Y37005D01*
X252060Y36953D01*
X252076Y36916D01*
X252087Y36878D01*
X252101Y36843D01*
X252115Y36829D01*
X252125Y36802D01*
X252136Y36759D01*
X252144Y36729D01*
X252163Y36699D01*
X252179Y36661D01*
X252190Y36618D01*
X252217Y36569D01*
X252234Y36531D01*
X252239Y36493D01*
X252261Y36455D01*
X252277Y36428D01*
X252282Y36407D01*
X252263Y36382D01*
X251703Y36380D01*
X251681Y36385D01*
X251654Y36412D01*
X251649Y36423D01*
X251638Y36434D01*
X251627Y36461D01*
X251614Y36523D01*
X251573Y36612D01*
X251565Y36648D01*
X251541Y36699D01*
X251524Y36737D01*
X251513Y36775D01*
X251508Y36797D01*
X251476Y36867D01*
X251451Y36935D01*
X251435Y36978D01*
X251416Y37008D01*
X251397Y37027D01*
X251375Y37032D01*
X251178Y37029D01*
X250328Y37035D01*
X250303Y37037D01*
X250265Y37016D01*
X250241Y36992D01*
X250230Y36964D01*
X250208Y36894D01*
X250189Y36843D01*
X250165Y36786D01*
X250157Y36751D01*
X250141Y36707D01*
X250122Y36672D01*
X250111Y36634D01*
X250106Y36612D01*
X250087Y36561D01*
X250062Y36504D01*
X250051Y36466D01*
X250043Y36437D01*
X250033Y36409D01*
X250016Y36393D01*
X249989Y36382D01*
X249461Y36380D01*
X249434Y36390D01*
X249423Y36418D01*
X249450Y36488D01*
X249483Y36558D01*
X249491Y36593D01*
X249507Y36637D01*
X249515Y36645D01*
X249532Y36683D01*
X249543Y36721D01*
X249556Y36756D01*
X249586Y36824D01*
X249594Y36853D01*
X249610Y36897D01*
X249640Y36964D01*
X249648Y37000D01*
X249659Y37027D01*
X249683Y37067D01*
X249689Y37089D01*
X249699Y37127D01*
X249713Y37162D01*
X249737Y37203D01*
X249746Y37238D01*
X249751Y37260D01*
X249762Y37287D01*
X249770Y37306D01*
X249797Y37365D01*
X249805Y37395D01*
X249811Y37417D01*
X249840Y37479D01*
X249851Y37517D01*
X249870Y37568D01*
X249878Y37576D01*
X249900Y37625D01*
X249908Y37671D01*
X249943Y37739D01*
X249949Y37760D01*
X249973Y37828D01*
X250003Y37896D01*
X250011Y37931D01*
X250022Y37958D01*
X250051Y38020D01*
X250062Y38058D01*
X250068Y38080D01*
X250089Y38118D01*
X250100Y38145D01*
X250111Y38188D01*
X250124Y38223D01*
X250154Y38280D01*
X250165Y38324D01*
X250184Y38375D01*
X250192Y38383D01*
X250214Y38437D01*
X250222Y38467D01*
X250236Y38502D01*
X250263Y38562D01*
X250273Y38605D01*
X250287Y38640D01*
X250295Y38648D01*
X250311Y38681D01*
Y38686D01*
X250319Y38716D01*
X250325Y38738D01*
X250341Y38770D01*
X250366Y38827D01*
X250376Y38865D01*
X250395Y38916D01*
X250403Y38925D01*
X250420Y38962D01*
X250428Y38992D01*
X250433Y39014D01*
X250444Y39041D01*
X250452Y39049D01*
X250463Y39076D01*
X250474Y39120D01*
X250487Y39155D01*
X250506Y39190D01*
X250517Y39217D01*
X250522Y39228D01*
X250541Y39247D01*
X250563Y39252D01*
X251132Y39247D01*
D02*
G37*
G36*
X238169Y39252D02*
X239428Y39249D01*
X239463Y39252D01*
X239479Y39247D01*
X239658Y39241D01*
X239674Y39236D01*
X239766Y39230D01*
X239793Y39220D01*
X239828Y39206D01*
X239858Y39198D01*
X239902Y39187D01*
X239931Y39179D01*
X239950Y39165D01*
X239983Y39144D01*
X240010Y39133D01*
X240021Y39128D01*
X240050Y39103D01*
X240064Y39090D01*
X240110Y39065D01*
X240115Y39055D01*
X240140Y39030D01*
X240151Y39025D01*
X240170Y39006D01*
X240175Y38995D01*
X240186Y38984D01*
X240191Y38973D01*
X240210Y38960D01*
X240218Y38952D01*
X240251Y38892D01*
X240267Y38876D01*
X240283Y38838D01*
X240294Y38811D01*
X240316Y38773D01*
X240327Y38746D01*
X240332Y38724D01*
X240340Y38662D01*
X240345Y38629D01*
X240354Y38556D01*
X240348Y38437D01*
X240343Y38421D01*
X240335Y38359D01*
X240329Y38326D01*
X240313Y38283D01*
X240305Y38275D01*
X240289Y38237D01*
X240272Y38194D01*
X240248Y38164D01*
X240224Y38123D01*
X240218Y38112D01*
X240186Y38080D01*
X240180Y38069D01*
X240161Y38045D01*
X240151Y38039D01*
X240113Y38001D01*
X240102Y37996D01*
X240077Y37977D01*
X240072Y37966D01*
X240064Y37958D01*
X240026Y37947D01*
X239996Y37934D01*
X239991Y37912D01*
X239996Y37896D01*
X240010Y37882D01*
X240048Y37866D01*
X240107Y37839D01*
X240134Y37828D01*
X240164Y37804D01*
X240226Y37768D01*
X240254Y37741D01*
X240264Y37736D01*
X240289Y37717D01*
X240294Y37706D01*
X240313Y37687D01*
X240324Y37682D01*
X240332Y37674D01*
X240337Y37663D01*
X240375Y37614D01*
X240402Y37565D01*
X240413Y37555D01*
X240419Y37544D01*
X240429Y37533D01*
X240446Y37479D01*
X240457Y37452D01*
X240462Y37441D01*
X240478Y37403D01*
X240484Y37365D01*
X240494Y37273D01*
X240489Y37067D01*
X240484Y37051D01*
X240476Y37000D01*
X240465Y36972D01*
X240446Y36927D01*
X240440Y36905D01*
X240432Y36870D01*
X240413Y36840D01*
X240397Y36824D01*
X240386Y36786D01*
X240364Y36748D01*
X240354Y36737D01*
X240348Y36726D01*
X240310Y36677D01*
X240286Y36648D01*
X240272Y36629D01*
X240243Y36599D01*
X240232Y36593D01*
X240189Y36550D01*
X240140Y36523D01*
X240118Y36501D01*
X240083Y36488D01*
X240056Y36477D01*
X240048Y36469D01*
X240037Y36463D01*
X239999Y36447D01*
X239956Y36437D01*
X239923Y36431D01*
X239896Y36420D01*
X239831Y36404D01*
X239793Y36399D01*
X239772Y36393D01*
X239701D01*
X239582Y36388D01*
X239187Y36382D01*
X238134Y36380D01*
X238115Y36388D01*
X238096Y36407D01*
X238093Y39203D01*
X238098Y39230D01*
X238120Y39252D01*
X238153Y39258D01*
X238169Y39252D01*
D02*
G37*
G36*
X260569D02*
X261338Y39247D01*
X261368Y39222D01*
X261379Y39184D01*
X261387Y39133D01*
X261393Y39106D01*
X261398Y39084D01*
X261420Y39030D01*
X261428Y39006D01*
X261433Y38968D01*
X261439Y38946D01*
X261458Y38857D01*
X261482Y38800D01*
X261493Y38735D01*
X261498Y38713D01*
X261506Y38678D01*
X261517Y38651D01*
X261531Y38616D01*
X261536Y38594D01*
X261544Y38543D01*
X261550Y38516D01*
X261558Y38486D01*
X261571Y38451D01*
X261590Y38389D01*
X261596Y38351D01*
X261601Y38329D01*
X261609Y38294D01*
X261625Y38250D01*
X261631Y38229D01*
X261639Y38199D01*
X261644Y38177D01*
X261663Y38093D01*
X261688Y38015D01*
X261696Y37980D01*
X261707Y37926D01*
X261712Y37904D01*
X261734Y37850D01*
X261739Y37828D01*
X261761Y37720D01*
X261766Y37698D01*
X261785Y37652D01*
X261796Y37609D01*
X261804Y37573D01*
X261810Y37547D01*
X261820Y37503D01*
X261831Y37476D01*
X261839Y37446D01*
X261845Y37408D01*
X261850Y37387D01*
X261864Y37352D01*
X261875Y37341D01*
X261896Y37346D01*
X261904Y37354D01*
X261915Y37392D01*
X261934Y37476D01*
X261953Y37538D01*
X261958Y37560D01*
X261977Y37649D01*
X261994Y37693D01*
X262007Y37739D01*
X262023Y37831D01*
X262029Y37852D01*
X262056Y37923D01*
X262061Y37961D01*
X262067Y37982D01*
X262075Y38018D01*
X262086Y38061D01*
X262105Y38107D01*
X262110Y38128D01*
X262115Y38166D01*
X262134Y38250D01*
X262145Y38277D01*
X262164Y38340D01*
X262170Y38378D01*
X262175Y38399D01*
X262183Y38429D01*
X262189Y38451D01*
X262218Y38545D01*
X262227Y38597D01*
X262232Y38624D01*
X262248Y38667D01*
X262267Y38730D01*
X262272Y38767D01*
X262278Y38789D01*
X262286Y38824D01*
X262316Y38919D01*
X262321Y38941D01*
X262329Y38992D01*
X262335Y39014D01*
X262370Y39125D01*
X262375Y39146D01*
X262381Y39184D01*
X262389Y39214D01*
X262400Y39236D01*
X262427Y39247D01*
X262448Y39252D01*
X263225Y39255D01*
X263253Y39244D01*
X263269Y39206D01*
X263263Y39120D01*
X263266Y36420D01*
X263255Y36393D01*
X263217Y36377D01*
X263163Y36382D01*
X262776Y36380D01*
X262749Y36390D01*
X262733Y36428D01*
X262738Y36466D01*
X262735Y37666D01*
X262738Y37760D01*
X262733Y37777D01*
X262738Y37863D01*
X262733Y38080D01*
X262738Y38096D01*
X262733Y38199D01*
X262738Y38464D01*
X262733Y38524D01*
X262719Y38548D01*
X262708Y38543D01*
X262700Y38535D01*
X262689Y38508D01*
X262684Y38486D01*
X262676Y38451D01*
X262660Y38407D01*
X262646Y38361D01*
X262641Y38340D01*
X262633Y38288D01*
X262622Y38229D01*
X262616Y38207D01*
X262603Y38172D01*
X262597Y38150D01*
X262589Y38115D01*
X262584Y38088D01*
X262578Y38055D01*
X262573Y38028D01*
X262568Y38007D01*
X262554Y37977D01*
X262538Y37923D01*
X262524Y37833D01*
X262519Y37812D01*
X262497Y37758D01*
X262492Y37736D01*
X262481Y37682D01*
X262475Y37649D01*
X262465Y37595D01*
X262454Y37568D01*
X262435Y37506D01*
X262424Y37441D01*
X262411Y37384D01*
X262400Y37357D01*
X262386Y37311D01*
X262381Y37289D01*
X262370Y37224D01*
X262356Y37167D01*
X262346Y37140D01*
X262337Y37111D01*
X262327Y37067D01*
X262321Y37029D01*
X262308Y36967D01*
X262297Y36940D01*
X262283Y36894D01*
X262278Y36872D01*
X262272Y36834D01*
X262267Y36813D01*
X262259Y36772D01*
X262243Y36729D01*
X262229Y36683D01*
X262224Y36645D01*
X262218Y36623D01*
X262210Y36577D01*
X262205Y36556D01*
X262191Y36520D01*
X262175Y36455D01*
X262170Y36423D01*
X262151Y36388D01*
X262129Y36382D01*
X262110Y36380D01*
X261658Y36382D01*
X261642Y36377D01*
X261607Y36390D01*
X261590Y36428D01*
X261577Y36491D01*
X261558Y36553D01*
X261552Y36574D01*
X261547Y36612D01*
X261542Y36634D01*
X261531Y36672D01*
X261520Y36699D01*
X261504Y36764D01*
X261498Y36802D01*
X261493Y36824D01*
X261485Y36870D01*
X261468Y36913D01*
X261460Y36943D01*
X261444Y37008D01*
X261436Y37059D01*
X261430Y37086D01*
X261420Y37113D01*
X261406Y37148D01*
X261395Y37213D01*
X261390Y37235D01*
X261382Y37281D01*
X261376Y37303D01*
X261346Y37398D01*
X261341Y37419D01*
X261333Y37471D01*
X261322Y37514D01*
X261311Y37541D01*
X261298Y37587D01*
X261292Y37609D01*
X261287Y37647D01*
X261279Y37693D01*
X261271Y37722D01*
X261244Y37809D01*
X261238Y37831D01*
X261230Y37882D01*
X261219Y37926D01*
X261208Y37953D01*
X261200Y37982D01*
X261189Y38026D01*
X261171Y38115D01*
X261160Y38158D01*
X261146Y38204D01*
X261135Y38248D01*
X261127Y38299D01*
X261116Y38342D01*
X261103Y38389D01*
X261087Y38453D01*
X261073Y38510D01*
X261065Y38529D01*
X261051Y38543D01*
X261041Y38537D01*
X261027Y38502D01*
X261022Y38351D01*
X261027Y38264D01*
Y37376D01*
Y37371D01*
X261024Y36463D01*
X261027Y36412D01*
X261003Y36382D01*
X260981Y36377D01*
X260894Y36382D01*
X260529Y36380D01*
X260502Y36396D01*
X260491Y36434D01*
X260497Y36455D01*
X260502Y39233D01*
X260515Y39247D01*
X260553Y39258D01*
X260569Y39252D01*
D02*
G37*
G36*
X242414Y39247D02*
X242444Y39222D01*
X242455Y39211D01*
X242460Y39190D01*
X242465Y39174D01*
X242471Y39152D01*
X242479Y39122D01*
X242501Y39090D01*
X242514Y39055D01*
X242522Y39019D01*
X242533Y38992D01*
X242563Y38935D01*
X242574Y38892D01*
X242612Y38811D01*
X242622Y38773D01*
X242636Y38738D01*
X242660Y38692D01*
X242671Y38654D01*
X242690Y38602D01*
X242715Y38562D01*
X242723Y38532D01*
X242728Y38510D01*
X242739Y38483D01*
X242747Y38464D01*
X242774Y38405D01*
X242779Y38383D01*
X242793Y38348D01*
X242823Y38291D01*
X242831Y38256D01*
X242839Y38226D01*
X242877Y38145D01*
X242882Y38123D01*
X242896Y38088D01*
X242920Y38047D01*
X242931Y38004D01*
X242950Y37953D01*
X242974Y37912D01*
X242983Y37882D01*
X242988Y37861D01*
X242991Y37858D01*
Y37852D01*
X243034Y37760D01*
X243042Y37725D01*
X243053Y37698D01*
X243074Y37666D01*
X243083Y37636D01*
X243088Y37614D01*
X243096Y37584D01*
X243131Y37517D01*
X243142Y37479D01*
X243148Y37457D01*
X243191Y37365D01*
X243199Y37330D01*
X243210Y37303D01*
X243218Y37295D01*
X243223Y37284D01*
X243240Y37246D01*
X243245Y37224D01*
X243253Y37189D01*
X243272Y37159D01*
X243294Y37111D01*
X243305Y37067D01*
X243348Y36975D01*
X243356Y36945D01*
X243372Y36902D01*
X243381Y36894D01*
X243402Y36840D01*
X243410Y36805D01*
X243451Y36715D01*
X243459Y36686D01*
X243470Y36658D01*
X243489Y36623D01*
X243500Y36596D01*
X243510Y36553D01*
X243554Y36461D01*
X243565Y36434D01*
X243570Y36412D01*
X243556Y36388D01*
X243519Y36377D01*
X243497Y36382D01*
X242966Y36388D01*
X242953Y36396D01*
X242947Y36407D01*
X242936Y36434D01*
X242928Y36469D01*
X242917Y36496D01*
X242909Y36504D01*
X242893Y36542D01*
X242882Y36585D01*
X242869Y36621D01*
X242844Y36661D01*
X242836Y36696D01*
X242826Y36740D01*
X242801Y36786D01*
X242790Y36813D01*
X242779Y36856D01*
X242766Y36891D01*
X242742Y36932D01*
X242733Y36962D01*
X242728Y36983D01*
X242720Y37002D01*
X242706Y37021D01*
X242679Y37032D01*
X242460Y37029D01*
X241580Y37032D01*
X241553Y37016D01*
X241539Y37002D01*
X241529Y36964D01*
X241510Y36913D01*
X241480Y36845D01*
X241472Y36805D01*
X241461Y36778D01*
X241437Y36737D01*
X241418Y36648D01*
X241382Y36580D01*
X241372Y36537D01*
X241353Y36485D01*
X241345Y36477D01*
X241334Y36439D01*
X241328Y36418D01*
X241312Y36390D01*
X241304Y36382D01*
X240725Y36388D01*
X240716Y36396D01*
X240714Y36415D01*
X240719Y36437D01*
X240738Y36455D01*
X240744Y36466D01*
X240749Y36483D01*
X240754Y36504D01*
X240763Y36539D01*
X240798Y36607D01*
X240809Y36650D01*
X240822Y36686D01*
X240852Y36748D01*
X240863Y36786D01*
X240882Y36837D01*
X240890Y36845D01*
X240906Y36899D01*
X240928Y36959D01*
X240955Y37002D01*
X240963Y37032D01*
X240968Y37059D01*
X240984Y37102D01*
X241003Y37138D01*
X241014Y37176D01*
X241020Y37197D01*
X241033Y37232D01*
X241058Y37273D01*
X241066Y37308D01*
X241082Y37352D01*
X241112Y37414D01*
X241120Y37444D01*
X241125Y37465D01*
X241136Y37492D01*
X241166Y37560D01*
X241171Y37582D01*
X241190Y37633D01*
X241209Y37668D01*
X241220Y37706D01*
X241225Y37728D01*
X241269Y37820D01*
X241277Y37850D01*
X241282Y37871D01*
X241323Y37961D01*
X241328Y37993D01*
X241366Y38074D01*
X241382Y38128D01*
X241396Y38164D01*
X241404Y38172D01*
X241420Y38210D01*
X241431Y38253D01*
X241447Y38296D01*
X241469Y38329D01*
X241485Y38394D01*
X241499Y38429D01*
X241523Y38470D01*
X241529Y38491D01*
X241539Y38529D01*
X241553Y38564D01*
X241583Y38632D01*
X241588Y38654D01*
X241602Y38689D01*
X241626Y38735D01*
X241632Y38757D01*
X241642Y38795D01*
X241648Y38816D01*
X241669Y38854D01*
X241686Y38892D01*
X241694Y38927D01*
X241705Y38954D01*
X241734Y39022D01*
X241745Y39060D01*
X241759Y39095D01*
X241783Y39141D01*
X241807Y39209D01*
X241821Y39228D01*
X241835Y39241D01*
X241862Y39252D01*
X242414Y39247D01*
D02*
G37*
G36*
X245644Y35546D02*
X245663Y35532D01*
X245671Y35508D01*
X245668Y35445D01*
X245671Y35421D01*
X245665Y35405D01*
X245668Y35289D01*
X245660Y35270D01*
X245652Y35261D01*
X245614Y35251D01*
X245479Y35256D01*
X245249Y35253D01*
X245197Y35256D01*
X245170Y35240D01*
X245162Y35232D01*
X245156Y35210D01*
X245151Y33818D01*
X245138Y33805D01*
X245127Y33800D01*
X245121D01*
X245086Y33797D01*
X244916Y33800D01*
X244899Y33794D01*
X244834Y33800D01*
X244815Y33818D01*
X244810Y33856D01*
X244813Y35207D01*
X244807Y35229D01*
X244796Y35245D01*
X244769Y35256D01*
X244648Y35253D01*
X244317Y35259D01*
X244301Y35275D01*
X244296Y35297D01*
X244301Y35535D01*
X244309Y35543D01*
X244331Y35548D01*
X244355Y35551D01*
X245582Y35548D01*
X245598Y35554D01*
X245644Y35546D01*
D02*
G37*
G36*
X266063Y35513D02*
X266068Y35492D01*
X266074Y35475D01*
Y35470D01*
X266068Y35389D01*
X266074Y35372D01*
X266068Y35302D01*
X266074Y35253D01*
X266068Y35237D01*
X266071Y34314D01*
X266068Y34214D01*
X266074Y34197D01*
X266068Y34127D01*
X266074Y34116D01*
X266093Y34097D01*
X266147Y34092D01*
X266902Y34095D01*
X266929Y34089D01*
X266945Y34073D01*
X266940Y33813D01*
X266926Y33800D01*
X266889Y33794D01*
X266851Y33800D01*
X265781Y33797D01*
X265754Y33802D01*
X265735Y33816D01*
X265727Y33840D01*
X265732Y33856D01*
X265730Y34119D01*
X265732Y34132D01*
X265727Y34149D01*
X265732Y34219D01*
X265727Y34311D01*
X265732Y34327D01*
X265730Y34428D01*
X265732Y35443D01*
X265727Y35459D01*
X265735Y35500D01*
X265757Y35527D01*
X265779Y35532D01*
X265982Y35529D01*
X266044Y35532D01*
X266063Y35513D01*
D02*
G37*
G36*
X257104Y35548D02*
X258195Y35551D01*
X258214Y35543D01*
X258228Y35529D01*
X258233Y35508D01*
X258228Y35275D01*
X258209Y35256D01*
X258171Y35251D01*
X258100Y35256D01*
X257326Y35251D01*
X257315Y35240D01*
X257304Y35234D01*
X257296Y35210D01*
X257302Y34890D01*
X257310Y34882D01*
X257321Y34877D01*
X257348Y34866D01*
X258130Y34869D01*
X258149Y34861D01*
X258163Y34847D01*
X258168Y34826D01*
X258163Y34587D01*
X258149Y34574D01*
X258127Y34568D01*
X258008Y34574D01*
X257410Y34571D01*
X257348Y34574D01*
X257332Y34568D01*
X257304Y34552D01*
X257296Y34544D01*
X257302Y34116D01*
X257315Y34103D01*
X257359Y34092D01*
X258239Y34095D01*
X258257Y34086D01*
X258266Y34078D01*
X258271Y34057D01*
X258266Y33818D01*
X258257Y33805D01*
X258220Y33794D01*
X258165Y33800D01*
X257023Y33794D01*
X257017D01*
X256985Y33800D01*
X256971Y33813D01*
X256961Y33840D01*
X256966Y35529D01*
X256974Y35543D01*
X257001Y35554D01*
X257104Y35548D01*
D02*
G37*
G36*
X255463D02*
X256679Y35551D01*
X256706Y35540D01*
X256717Y35513D01*
X256714Y35375D01*
X256717Y35291D01*
X256701Y35264D01*
X256693Y35256D01*
X256655Y35251D01*
X256601Y35256D01*
X256232Y35251D01*
X256203Y35226D01*
X256197Y35188D01*
X256203Y35134D01*
X256197Y35118D01*
Y34555D01*
Y34549D01*
X256203Y34349D01*
X256197Y34327D01*
X256200Y33973D01*
X256197Y33873D01*
X256203Y33856D01*
X256197Y33818D01*
X256178Y33800D01*
X256157Y33794D01*
X256054Y33800D01*
X255910Y33797D01*
X255889Y33802D01*
X255867Y33824D01*
X255861Y35232D01*
X255848Y35245D01*
X255810Y35256D01*
X255710Y35253D01*
X255436Y35256D01*
X255420Y35251D01*
X255371Y35256D01*
X255358Y35270D01*
X255352Y35291D01*
X255350Y35516D01*
X255358Y35535D01*
X255371Y35548D01*
X255409Y35554D01*
X255463Y35548D01*
D02*
G37*
G36*
X253428D02*
X254448Y35551D01*
X254475Y35540D01*
X254486Y35529D01*
X254492Y35492D01*
X254486Y35367D01*
X254492Y35351D01*
X254486Y35275D01*
X254467Y35256D01*
X254429Y35251D01*
X254359Y35256D01*
X253755Y35253D01*
X253704Y35256D01*
X253687Y35251D01*
X253660Y35234D01*
X253652Y35226D01*
X253647Y35188D01*
X253652Y35172D01*
X253658Y34853D01*
X253671Y34839D01*
X253709Y34828D01*
X253752Y34834D01*
X253758D01*
X253853Y34831D01*
X253920Y34834D01*
X253937Y34828D01*
X254088Y34834D01*
X254291Y34831D01*
X254348Y34834D01*
X254372Y34815D01*
X254378Y34793D01*
X254372Y34706D01*
X254378Y34690D01*
X254372Y34571D01*
X254348Y34547D01*
X254326Y34541D01*
X254256Y34547D01*
X254234Y34541D01*
X254118Y34544D01*
X254050Y34541D01*
X254034Y34547D01*
X253750Y34544D01*
X253704Y34547D01*
X253666Y34525D01*
X253658Y34517D01*
X253647Y34474D01*
X253652Y34452D01*
X253647Y33818D01*
X253628Y33800D01*
X253606Y33794D01*
X253536Y33800D01*
X253354Y33797D01*
X253327Y33808D01*
X253316Y33818D01*
X253311Y33856D01*
X253316Y33873D01*
X253314Y35521D01*
X253327Y35540D01*
X253335Y35548D01*
X253373Y35554D01*
X253428Y35548D01*
D02*
G37*
G36*
X249339D02*
X250390Y35543D01*
X250403Y35535D01*
X250414Y35497D01*
X250409Y35427D01*
X250403Y35270D01*
X250395Y35261D01*
X250357Y35251D01*
X250238Y35256D01*
X249496Y35251D01*
X249478Y35232D01*
X249472Y35194D01*
X249478Y35123D01*
X249475Y34947D01*
X249472Y34945D01*
X249480Y34893D01*
X249494Y34874D01*
X249518Y34866D01*
X250290Y34869D01*
X250317Y34864D01*
X250338Y34842D01*
X250344Y34820D01*
X250338Y34593D01*
X250325Y34579D01*
X250287Y34568D01*
X250135Y34574D01*
X249569Y34571D01*
X249513Y34574D01*
X249486Y34557D01*
X249478Y34533D01*
X249472Y34495D01*
X249478Y34479D01*
X249475Y34146D01*
X249480Y34119D01*
X249494Y34100D01*
X249518Y34092D01*
X250398Y34095D01*
X250420Y34089D01*
X250441Y34067D01*
X250436Y33818D01*
X250422Y33805D01*
X250401Y33800D01*
X250363Y33794D01*
X250325Y33800D01*
X249445Y33797D01*
X249291Y33800D01*
X249274Y33794D01*
X249155Y33800D01*
X249142Y33808D01*
X249131Y33835D01*
X249128Y34677D01*
X249131Y35107D01*
X249125Y35123D01*
X249131Y35264D01*
X249125Y35280D01*
X249131Y35389D01*
X249125Y35405D01*
X249131Y35524D01*
X249144Y35543D01*
X249188Y35554D01*
X249339Y35548D01*
D02*
G37*
G36*
X247628D02*
X248849Y35551D01*
X248876Y35546D01*
X248898Y35529D01*
X248904Y35508D01*
X248898Y35275D01*
X248879Y35256D01*
X248825Y35251D01*
X248722Y35256D01*
X248652Y35251D01*
X248630Y35256D01*
X248470Y35253D01*
X248419Y35256D01*
X248395Y35237D01*
X248389Y35199D01*
X248384Y33818D01*
X248365Y33800D01*
X248327Y33794D01*
X248300Y33800D01*
X248284Y33794D01*
X248229Y33800D01*
X248181D01*
X248091Y33797D01*
X248064Y33802D01*
X248043Y33824D01*
X248037Y35232D01*
X248029Y35245D01*
X248018Y35251D01*
X248002Y35256D01*
X247913Y35253D01*
X247796Y35256D01*
X247780Y35251D01*
X247628Y35256D01*
X247612Y35251D01*
X247553Y35256D01*
X247528Y35280D01*
X247526Y35326D01*
X247531Y35527D01*
X247547Y35543D01*
X247569Y35548D01*
X247612Y35554D01*
X247628Y35548D01*
D02*
G37*
G36*
X242284D02*
X243472Y35551D01*
X243491Y35543D01*
X243505Y35529D01*
X243500Y35270D01*
X243486Y35256D01*
X243464Y35251D01*
X243345Y35256D01*
X243110Y35253D01*
X243026Y35256D01*
X242996Y35232D01*
X242991Y35210D01*
Y34766D01*
Y34761D01*
X242985Y33818D01*
X242972Y33805D01*
X242950Y33800D01*
X242934Y33794D01*
X242917Y33800D01*
X242842Y33794D01*
X242826Y33800D01*
X242698Y33797D01*
X242677Y33802D01*
X242658Y33816D01*
X242649Y33840D01*
X242652Y35207D01*
X242641Y35234D01*
X242631Y35245D01*
X242603Y35256D01*
X242501Y35251D01*
X242484Y35256D01*
X242168Y35253D01*
X242151Y35264D01*
X242146Y35275D01*
X242141Y35291D01*
X242135Y35329D01*
X242141Y35432D01*
X242138Y35516D01*
X242146Y35535D01*
X242160Y35548D01*
X242197Y35554D01*
X242284Y35548D01*
D02*
G37*
G36*
X241366Y35567D02*
X241420Y35562D01*
X241464Y35556D01*
X241496Y35551D01*
X241523Y35546D01*
X241558Y35532D01*
X241586Y35516D01*
X241613Y35505D01*
X241642Y35497D01*
X241661Y35483D01*
X241677Y35467D01*
X241688Y35462D01*
X241726Y35440D01*
X241740Y35427D01*
X241745Y35416D01*
X241794Y35367D01*
X241810Y35340D01*
X241837Y35302D01*
X241856Y35251D01*
X241881Y35210D01*
X241891Y35134D01*
X241897Y35080D01*
X241891Y35053D01*
X241883Y35045D01*
X241862Y35040D01*
X241599Y35037D01*
X241577Y35042D01*
X241558Y35056D01*
X241550Y35064D01*
X241539Y35102D01*
X241534Y35123D01*
X241521Y35159D01*
X241493Y35191D01*
X241474Y35210D01*
X241469Y35221D01*
X241455Y35234D01*
X241418Y35251D01*
X241347Y35278D01*
X241304Y35289D01*
X241131Y35283D01*
X241082Y35261D01*
X241060Y35256D01*
X241025Y35243D01*
X241006Y35229D01*
X240995Y35218D01*
X240984Y35213D01*
X240965Y35194D01*
X240949Y35156D01*
X240944Y35118D01*
X240949Y35064D01*
X240976Y35026D01*
X240984Y35018D01*
X240995Y35012D01*
X241003Y35004D01*
X241009Y34993D01*
X241017Y34985D01*
X241028Y34980D01*
X241109Y34942D01*
X241147Y34931D01*
X241182Y34923D01*
X241209Y34918D01*
X241252Y34901D01*
X241299Y34882D01*
X241366Y34874D01*
X241409Y34864D01*
X241453Y34847D01*
X241499Y34834D01*
X241537Y34823D01*
X241580Y34812D01*
X241661Y34774D01*
X241696Y34761D01*
X241710Y34747D01*
X241721Y34742D01*
X241732Y34731D01*
X241780Y34704D01*
X241802Y34677D01*
X241813Y34671D01*
X241837Y34652D01*
X241843Y34641D01*
X241891Y34571D01*
X241935Y34463D01*
X241940Y34441D01*
X241948Y34373D01*
X241951Y34284D01*
X241946Y34268D01*
X241940Y34181D01*
X241935Y34165D01*
X241902Y34095D01*
X241889Y34059D01*
X241870Y34030D01*
X241854Y34013D01*
X241848Y34002D01*
X241826Y33965D01*
X241813Y33951D01*
X241802Y33946D01*
X241759Y33902D01*
X241721Y33881D01*
X241683Y33854D01*
X241615Y33829D01*
X241588Y33818D01*
X241553Y33805D01*
X241531Y33800D01*
X241493Y33794D01*
X241472Y33789D01*
X241401Y33783D01*
X241347Y33778D01*
X241093Y33783D01*
X241077Y33789D01*
X241003Y33797D01*
X240982Y33802D01*
X240963Y33810D01*
X240903Y33837D01*
X240882Y33843D01*
X240846Y33856D01*
X240822Y33881D01*
X240811Y33886D01*
X240773Y33908D01*
X240730Y33951D01*
X240719Y33956D01*
X240711Y33965D01*
X240706Y33975D01*
X240681Y34005D01*
X240662Y34024D01*
X240641Y34073D01*
X240635Y34084D01*
X240608Y34122D01*
X240597Y34160D01*
X240592Y34181D01*
X240584Y34211D01*
X240554Y34306D01*
X240549Y34322D01*
X240554Y34338D01*
X240559Y34349D01*
X240567Y34357D01*
X240589Y34363D01*
X240679Y34371D01*
X240744Y34376D01*
X240795Y34384D01*
X240811Y34390D01*
X240865Y34384D01*
X240890Y34360D01*
X240900Y34333D01*
X240909Y34298D01*
X240914Y34276D01*
X240925Y34249D01*
X240938Y34235D01*
X240944Y34225D01*
X240971Y34187D01*
X240976Y34176D01*
X240990Y34162D01*
X241001Y34157D01*
X241022Y34135D01*
X241031Y34132D01*
X241033Y34124D01*
X241044Y34119D01*
X241055Y34108D01*
X241082Y34097D01*
X241117Y34089D01*
X241196Y34065D01*
X241369Y34070D01*
X241396Y34081D01*
X241461Y34097D01*
X241488Y34114D01*
X241493Y34119D01*
X241496Y34122D01*
X241510Y34135D01*
X241521Y34141D01*
X241531Y34151D01*
X241542Y34157D01*
X241561Y34176D01*
X241567Y34187D01*
X241577Y34197D01*
X241583Y34208D01*
X241594Y34235D01*
X241602Y34271D01*
X241604Y34338D01*
X241594Y34365D01*
X241588Y34387D01*
X241564Y34417D01*
X241553Y34422D01*
X241521Y34455D01*
X241493Y34465D01*
X241464Y34474D01*
X241437Y34484D01*
X241429Y34493D01*
X241391Y34509D01*
X241339Y34517D01*
X241285Y34528D01*
X241225Y34549D01*
X241179Y34563D01*
X241141Y34568D01*
X241106Y34576D01*
X241085Y34582D01*
X241001Y34617D01*
X240944Y34631D01*
X240925Y34639D01*
X240914Y34650D01*
X240903Y34655D01*
X240865Y34671D01*
X240830Y34685D01*
X240790Y34725D01*
X240779Y34731D01*
X240706Y34804D01*
X240684Y34842D01*
X240668Y34858D01*
X240662Y34869D01*
X240651Y34896D01*
X240643Y34926D01*
X240638Y34947D01*
X240627Y34975D01*
X240614Y35010D01*
X240608Y35113D01*
X240614Y35167D01*
X240641Y35237D01*
X240646Y35259D01*
X240662Y35302D01*
X240700Y35356D01*
X240716Y35383D01*
X240779Y35445D01*
X240790Y35451D01*
X240819Y35475D01*
X240833Y35489D01*
X240860Y35500D01*
X240890Y35508D01*
X240917Y35519D01*
X240925Y35527D01*
X240963Y35543D01*
X240984Y35548D01*
X241022Y35554D01*
X241044Y35559D01*
X241109Y35565D01*
X241125Y35570D01*
X241163Y35575D01*
X241301Y35578D01*
X241366Y35567D01*
D02*
G37*
G36*
X270013Y35570D02*
X270051Y35565D01*
X270105Y35559D01*
X270126Y35554D01*
X270183Y35546D01*
X270227Y35529D01*
X270235Y35521D01*
X270273Y35505D01*
X270294Y35500D01*
X270343Y35473D01*
X270354Y35462D01*
X270365Y35456D01*
X270403Y35435D01*
X270446Y35391D01*
X270457Y35386D01*
X270481Y35362D01*
X270497Y35334D01*
X270508Y35324D01*
X270514Y35313D01*
X270530Y35297D01*
X270541Y35270D01*
X270546Y35259D01*
X270571Y35229D01*
X270584Y35199D01*
X270592Y35164D01*
X270606Y35118D01*
X270600Y35085D01*
X270581Y35066D01*
X270519Y35053D01*
X270476Y35042D01*
X270403Y35034D01*
X270351Y35026D01*
X270322Y35012D01*
X270294Y35018D01*
X270270Y35042D01*
X270254Y35069D01*
X270232Y35107D01*
X270216Y35134D01*
X270189Y35161D01*
X270183Y35172D01*
X270159Y35196D01*
X270148Y35202D01*
X270118Y35226D01*
X270110Y35234D01*
X270083Y35245D01*
X270062Y35251D01*
X270026Y35264D01*
X270018Y35272D01*
X269991Y35283D01*
X269904Y35289D01*
X269888Y35294D01*
X269850Y35289D01*
X269764Y35283D01*
X269731Y35261D01*
X269666Y35245D01*
X269618Y35218D01*
X269601Y35202D01*
X269563Y35180D01*
X269501Y35118D01*
X269496Y35107D01*
X269458Y35058D01*
X269442Y35020D01*
X269436Y34999D01*
X269423Y34964D01*
X269404Y34918D01*
X269398Y34896D01*
X269387Y34788D01*
X269382Y34717D01*
X269387Y34576D01*
X269393Y34560D01*
X269398Y34468D01*
X269409Y34441D01*
X269423Y34406D01*
X269455Y34319D01*
X269488Y34265D01*
X269501Y34246D01*
X269526Y34216D01*
X269536Y34206D01*
X269547Y34200D01*
X269561Y34181D01*
X269580Y34162D01*
X269590Y34157D01*
X269628Y34135D01*
X269658Y34111D01*
X269688Y34097D01*
X269710Y34092D01*
X269767Y34078D01*
X269788Y34073D01*
X269813Y34065D01*
X269834Y34059D01*
X269959Y34065D01*
X269986Y34076D01*
X270021Y34084D01*
X270043Y34089D01*
X270070Y34095D01*
X270091Y34100D01*
X270118Y34111D01*
X270126Y34119D01*
X270137Y34124D01*
X270148Y34135D01*
X270216Y34160D01*
X270235Y34179D01*
X270246Y34184D01*
X270257Y34195D01*
X270267Y34200D01*
X270292Y34225D01*
X270297Y34279D01*
X270292Y34317D01*
X270294Y34395D01*
X270289Y34417D01*
X270275Y34436D01*
X270262Y34449D01*
X270208Y34455D01*
X270154Y34449D01*
X270053Y34452D01*
X270045Y34449D01*
X270029Y34455D01*
X269956Y34446D01*
X269953Y34444D01*
X269937Y34449D01*
X269910Y34465D01*
X269902Y34490D01*
X269896Y34511D01*
X269902Y34528D01*
X269899Y34693D01*
X269910Y34720D01*
X269921Y34731D01*
X269942Y34736D01*
X270010Y34734D01*
X270533Y34736D01*
X270549Y34731D01*
X270587Y34736D01*
X270625Y34731D01*
X270633Y34723D01*
X270644Y34685D01*
Y34176D01*
Y34170D01*
X270638Y34040D01*
X270622Y34013D01*
X270614Y34005D01*
X270565Y33978D01*
X270543Y33956D01*
X270473Y33919D01*
X270446Y33902D01*
X270419Y33891D01*
X270368Y33873D01*
X270359Y33864D01*
X270311Y33843D01*
X270278Y33837D01*
X270262Y33832D01*
X270224Y33821D01*
X270173Y33802D01*
X270143Y33794D01*
X270089Y33789D01*
X270051Y33783D01*
X269915Y33778D01*
X269748Y33783D01*
X269731Y33789D01*
X269653Y33797D01*
X269631Y33802D01*
X269563Y33832D01*
X269520Y33843D01*
X269485Y33856D01*
X269466Y33870D01*
X269396Y33908D01*
X269379Y33924D01*
X269368Y33929D01*
X269358Y33940D01*
X269320Y33962D01*
X269301Y33981D01*
X269295Y33992D01*
X269276Y34005D01*
X269252Y34024D01*
X269230Y34062D01*
X269193Y34100D01*
X269182Y34127D01*
X269165Y34154D01*
X269138Y34192D01*
X269125Y34227D01*
X269114Y34254D01*
X269090Y34311D01*
X269079Y34355D01*
X269071Y34384D01*
X269065Y34406D01*
X269046Y34468D01*
X269041Y34490D01*
X269030Y34631D01*
X269035Y34842D01*
X269041Y34858D01*
X269046Y34912D01*
X269068Y34966D01*
X269079Y35010D01*
X269087Y35045D01*
X269092Y35066D01*
X269119Y35110D01*
X269146Y35180D01*
X269160Y35199D01*
X269176Y35215D01*
X269209Y35275D01*
X269236Y35302D01*
X269241Y35313D01*
X269260Y35337D01*
X269271Y35343D01*
X269301Y35372D01*
X269306Y35383D01*
X269339Y35405D01*
X269358Y35419D01*
X269379Y35440D01*
X269439Y35473D01*
X269450Y35483D01*
X269461Y35489D01*
X269488Y35500D01*
X269539Y35519D01*
X269596Y35543D01*
X269618Y35548D01*
X269655Y35554D01*
X269710Y35559D01*
X269745Y35567D01*
X269767Y35573D01*
X269997Y35575D01*
X270013Y35570D01*
D02*
G37*
G36*
X259362Y35575D02*
X259433Y35570D01*
X259449Y35565D01*
X259511Y35556D01*
X259565Y35546D01*
X259608Y35529D01*
X259617Y35521D01*
X259644Y35510D01*
X259665Y35505D01*
X259701Y35492D01*
X259719Y35478D01*
X259736Y35462D01*
X259774Y35440D01*
X259806Y35408D01*
X259817Y35402D01*
X259879Y35340D01*
X259885Y35329D01*
X259923Y35275D01*
X259936Y35240D01*
X259977Y35161D01*
X259988Y35134D01*
X259993Y35113D01*
X259988Y35085D01*
X259963Y35061D01*
X259925Y35050D01*
X259809Y35026D01*
X259776Y35020D01*
X259749Y35010D01*
X259703Y34991D01*
X259681Y34996D01*
X259668Y35004D01*
X259663Y35015D01*
X259598Y35140D01*
X259581Y35156D01*
X259576Y35167D01*
X259546Y35196D01*
X259535Y35202D01*
X259503Y35234D01*
X259476Y35245D01*
X259441Y35259D01*
X259422Y35267D01*
X259389Y35283D01*
X259384D01*
X259346Y35289D01*
X259205Y35283D01*
X259156Y35261D01*
X259089Y35237D01*
X259070Y35224D01*
X259048Y35202D01*
X259037Y35196D01*
X259007Y35172D01*
X258997Y35161D01*
X258991Y35150D01*
X258972Y35126D01*
X258961Y35121D01*
X258937Y35080D01*
X258932Y35058D01*
X258910Y35020D01*
X258899Y34993D01*
X258877Y34874D01*
X258864Y34780D01*
X258859Y34736D01*
X258856Y34647D01*
X258861Y34631D01*
X258867Y34544D01*
X258872Y34528D01*
X258880Y34471D01*
X258891Y34406D01*
X258902Y34346D01*
X258942Y34268D01*
X258964Y34230D01*
X258991Y34203D01*
X258997Y34192D01*
X259007Y34181D01*
X259013Y34170D01*
X259026Y34157D01*
X259064Y34135D01*
X259086Y34114D01*
X259124Y34097D01*
X259146Y34092D01*
X259213Y34067D01*
X259235Y34062D01*
X259324Y34059D01*
X259340Y34065D01*
X259373Y34070D01*
X259422Y34092D01*
X259457Y34100D01*
X259487Y34119D01*
X259508Y34141D01*
X259519Y34146D01*
X259549Y34170D01*
X259560Y34181D01*
X259565Y34192D01*
X259603Y34241D01*
X259614Y34252D01*
X259638Y34319D01*
X259663Y34360D01*
X259671Y34395D01*
X259681Y34417D01*
X259709Y34428D01*
X259779Y34406D01*
X259801Y34400D01*
X259836Y34392D01*
X259863Y34382D01*
X259871Y34373D01*
X259898Y34363D01*
X259936Y34357D01*
X259968Y34352D01*
X259993Y34333D01*
X259998Y34311D01*
X259988Y34268D01*
X259979Y34233D01*
X259966Y34197D01*
X259944Y34165D01*
X259933Y34138D01*
X259920Y34103D01*
X259906Y34084D01*
X259895Y34073D01*
X259890Y34062D01*
X259855Y34011D01*
X259825Y33981D01*
X259820Y33970D01*
X259795Y33946D01*
X259784Y33940D01*
X259741Y33897D01*
X259706Y33883D01*
X259698Y33875D01*
X259687Y33870D01*
X259665Y33848D01*
X259636Y33840D01*
X259592Y33824D01*
X259552Y33800D01*
X259489Y33791D01*
X259457Y33786D01*
X259381Y33781D01*
X259200Y33778D01*
X259183Y33783D01*
X259102Y33789D01*
X259086Y33794D01*
X259048Y33800D01*
X259005Y33827D01*
X258975Y33835D01*
X258932Y33851D01*
X258913Y33864D01*
X258902Y33875D01*
X258891Y33881D01*
X258842Y33908D01*
X258815Y33935D01*
X258804Y33940D01*
X258794Y33951D01*
X258783Y33956D01*
X258699Y34040D01*
X258693Y34051D01*
X258682Y34062D01*
X258677Y34073D01*
X258653Y34103D01*
X258607Y34187D01*
X258585Y34235D01*
X258577Y34265D01*
X258566Y34292D01*
X258542Y34349D01*
X258536Y34371D01*
X258526Y34479D01*
X258520Y34501D01*
X258509Y34674D01*
X258515Y34793D01*
X258520Y34809D01*
X258526Y34885D01*
X258531Y34901D01*
X258539Y34975D01*
X258544Y34996D01*
X258555Y35023D01*
X258569Y35053D01*
X258574Y35075D01*
X258599Y35142D01*
X258620Y35175D01*
X258647Y35229D01*
X258674Y35261D01*
X258712Y35321D01*
X258742Y35345D01*
X258748Y35356D01*
X258777Y35386D01*
X258788Y35391D01*
X258818Y35416D01*
X258842Y35440D01*
X258853Y35445D01*
X258891Y35467D01*
X258913Y35489D01*
X258940Y35500D01*
X258975Y35508D01*
X259032Y35538D01*
X259059Y35548D01*
X259126Y35556D01*
X259154Y35562D01*
X259186Y35567D01*
X259229Y35573D01*
X259300Y35578D01*
X259346Y35581D01*
X259362Y35575D01*
D02*
G37*
G36*
X272108Y35548D02*
X272355Y35551D01*
X272376Y35546D01*
X272387Y35535D01*
X272382Y35508D01*
X272365Y35492D01*
X272360Y35481D01*
X272338Y35443D01*
X272322Y35427D01*
X272317Y35416D01*
X272290Y35367D01*
X272263Y35329D01*
X272230Y35270D01*
X272214Y35253D01*
X272208Y35243D01*
X272176Y35183D01*
X272160Y35167D01*
X272127Y35107D01*
X272100Y35069D01*
X272073Y35020D01*
X272062Y35010D01*
X272057Y34999D01*
X272030Y34950D01*
X272006Y34920D01*
X271965Y34847D01*
X271949Y34831D01*
X271916Y34771D01*
X271900Y34755D01*
X271884Y34717D01*
X271878Y34706D01*
X271854Y34677D01*
X271813Y34604D01*
X271792Y34582D01*
X271781Y34555D01*
X271775Y34533D01*
X271770Y34495D01*
X271773Y34428D01*
X271770Y33851D01*
X271775Y33840D01*
X271770Y33824D01*
X271765Y33813D01*
X271756Y33805D01*
X271735Y33800D01*
X271461Y33797D01*
X271442Y33805D01*
X271434Y33813D01*
X271429Y33835D01*
Y33900D01*
Y33905D01*
X271426Y34433D01*
X271429Y34506D01*
X271423Y34522D01*
X271418Y34555D01*
X271369Y34625D01*
X271342Y34674D01*
X271331Y34685D01*
X271299Y34744D01*
X271283Y34761D01*
X271277Y34771D01*
X271245Y34831D01*
X271223Y34864D01*
X271218Y34874D01*
X271164Y34950D01*
X271158Y34972D01*
X271147Y34983D01*
X271142Y34993D01*
X271126Y35010D01*
X271088Y35080D01*
X271071Y35096D01*
X271061Y35123D01*
X271039Y35161D01*
X271017Y35183D01*
X270985Y35243D01*
X270974Y35253D01*
X270968Y35264D01*
X270952Y35302D01*
X270947Y35313D01*
X270914Y35345D01*
X270909Y35356D01*
X270898Y35383D01*
X270882Y35410D01*
X270860Y35443D01*
X270839Y35481D01*
X270812Y35508D01*
X270817Y35546D01*
X270847Y35554D01*
X271031Y35548D01*
X271164Y35551D01*
X271185Y35546D01*
X271207Y35529D01*
X271228Y35492D01*
X271239Y35481D01*
X271245Y35470D01*
X271283Y35399D01*
X271293Y35389D01*
X271299Y35378D01*
X271337Y35308D01*
X271353Y35291D01*
X271364Y35264D01*
X271391Y35215D01*
X271402Y35205D01*
X271407Y35194D01*
X271445Y35123D01*
X271467Y35091D01*
X271494Y35042D01*
X271515Y35010D01*
X271580Y34890D01*
X271594Y34877D01*
X271621Y34882D01*
X271635Y34896D01*
X271662Y34945D01*
X271683Y34977D01*
X271697Y35012D01*
X271710Y35026D01*
X271716Y35037D01*
X271759Y35118D01*
X271775Y35134D01*
X271786Y35161D01*
X271813Y35210D01*
X271824Y35221D01*
X271867Y35302D01*
X271884Y35329D01*
X271911Y35378D01*
X271932Y35410D01*
X271946Y35445D01*
X271987Y35502D01*
X272008Y35540D01*
X272016Y35548D01*
X272054Y35554D01*
X272108Y35548D01*
D02*
G37*
G36*
X261512D02*
X261666Y35551D01*
X261693Y35540D01*
X261704Y35513D01*
X261698Y33818D01*
X261680Y33800D01*
X261658Y33794D01*
X261588Y33800D01*
X261571Y33794D01*
X261550Y33800D01*
X261411Y33797D01*
X261390Y33802D01*
X261371Y33816D01*
X261363Y33840D01*
X261366Y34514D01*
X261360Y34541D01*
X261344Y34557D01*
X261306Y34568D01*
X261203Y34563D01*
X260729Y34566D01*
X260683Y34557D01*
X260670Y34544D01*
X260667Y34509D01*
X260670Y34457D01*
X260664Y34441D01*
X260667Y33946D01*
X260664Y33862D01*
X260670Y33846D01*
X260664Y33824D01*
X260659Y33813D01*
X260645Y33800D01*
X260624Y33794D01*
X260505Y33800D01*
X260366Y33797D01*
X260347Y33805D01*
X260334Y33818D01*
X260329Y33856D01*
X260326Y35337D01*
X260331Y35527D01*
X260337Y35538D01*
X260347Y35543D01*
X260364Y35548D01*
X260385Y35554D01*
X260472Y35548D01*
X260632Y35551D01*
X260659Y35540D01*
X260670Y35513D01*
X260664Y35443D01*
X260670Y35427D01*
X260667Y35402D01*
X260664Y35399D01*
X260667Y35299D01*
X260664Y35232D01*
X260670Y35215D01*
X260664Y35140D01*
X260670Y35123D01*
X260664Y35069D01*
X260670Y34977D01*
X260664Y34961D01*
X260670Y34885D01*
X260689Y34861D01*
X260727Y34855D01*
X261303Y34853D01*
X261325Y34858D01*
X261346Y34869D01*
X261352Y34880D01*
X261363Y34907D01*
X261368Y34929D01*
X261363Y34945D01*
X261366Y35343D01*
X261363Y35519D01*
X261382Y35543D01*
X261425Y35554D01*
X261512Y35548D01*
D02*
G37*
G36*
X240042D02*
X240224Y35551D01*
X240251Y35540D01*
X240262Y35529D01*
X240267Y35508D01*
X240264Y35283D01*
X240267Y34788D01*
X240262Y34771D01*
X240267Y34717D01*
X240262Y34457D01*
X240267Y34441D01*
X240262Y33824D01*
X240237Y33800D01*
X240183Y33794D01*
X240048Y33800D01*
X239948Y33797D01*
X239921Y33808D01*
X239888Y33840D01*
X239845Y33921D01*
X239828Y33937D01*
X239790Y34008D01*
X239780Y34019D01*
X239742Y34089D01*
X239726Y34105D01*
X239688Y34176D01*
X239677Y34187D01*
X239671Y34197D01*
X239639Y34257D01*
X239628Y34268D01*
X239612Y34306D01*
X239606Y34317D01*
X239582Y34346D01*
X239574Y34355D01*
X239569Y34365D01*
X239536Y34425D01*
X239525Y34436D01*
X239520Y34446D01*
X239482Y34517D01*
X239466Y34533D01*
X239433Y34593D01*
X239406Y34631D01*
X239401Y34652D01*
X239376Y34682D01*
X239368Y34690D01*
X239325Y34771D01*
X239314Y34782D01*
X239303Y34809D01*
X239290Y34845D01*
X239246Y34888D01*
X239235Y34893D01*
X239219Y34899D01*
X239206Y34885D01*
X239200Y34847D01*
X239206Y34831D01*
X239211Y34793D01*
X239208Y34617D01*
X239211Y33835D01*
X239192Y33805D01*
X239154Y33794D01*
X239019Y33800D01*
X238951Y33797D01*
X238911Y33805D01*
X238897Y33818D01*
X238892Y33840D01*
Y34571D01*
Y34576D01*
X238897Y35535D01*
X238905Y35543D01*
X238927Y35548D01*
X238959Y35554D01*
X238976Y35548D01*
X239206Y35551D01*
X239225Y35543D01*
X239244Y35524D01*
X239249Y35508D01*
X239273Y35478D01*
X239287Y35464D01*
X239298Y35437D01*
X239325Y35389D01*
X239336Y35378D01*
X239374Y35308D01*
X239395Y35286D01*
X239409Y35251D01*
X239422Y35232D01*
X239433Y35221D01*
X239439Y35210D01*
X239477Y35140D01*
X239487Y35129D01*
X239493Y35118D01*
X239525Y35058D01*
X239541Y35042D01*
X239579Y34972D01*
X239590Y34961D01*
X239628Y34890D01*
X239650Y34858D01*
X239682Y34799D01*
X239693Y34788D01*
X239699Y34777D01*
X239731Y34717D01*
X239747Y34701D01*
X239764Y34663D01*
X239769Y34652D01*
X239793Y34622D01*
X239801Y34614D01*
X239818Y34576D01*
X239834Y34549D01*
X239855Y34517D01*
X239866Y34490D01*
X239888Y34452D01*
X239896Y34444D01*
X239918Y34438D01*
X239939Y34444D01*
X239948Y34468D01*
X239942Y34620D01*
X239945Y35462D01*
X239942Y35524D01*
X239961Y35543D01*
X239983Y35548D01*
X240026Y35554D01*
X240042Y35548D01*
D02*
G37*
G36*
X263223D02*
X263399Y35551D01*
X263420Y35546D01*
X263428Y35538D01*
X263439Y35532D01*
X263447Y35508D01*
X263442Y33818D01*
X263428Y33805D01*
X263385Y33794D01*
X263250Y33800D01*
X263123Y33797D01*
X263104Y33810D01*
X263063Y33851D01*
X263050Y33886D01*
X263030Y33916D01*
X263014Y33932D01*
X262976Y34002D01*
X262966Y34013D01*
X262928Y34084D01*
X262911Y34100D01*
X262868Y34181D01*
X262857Y34192D01*
X262825Y34252D01*
X262814Y34262D01*
X262808Y34273D01*
X262776Y34333D01*
X262765Y34344D01*
X262760Y34355D01*
X262749Y34365D01*
X262735Y34400D01*
X262714Y34433D01*
X262700Y34446D01*
X262662Y34517D01*
X262652Y34528D01*
X262614Y34598D01*
X262597Y34614D01*
X262559Y34685D01*
X262549Y34696D01*
X262532Y34728D01*
Y34734D01*
X262495Y34788D01*
X262473Y34842D01*
X262448Y34872D01*
X262416Y34893D01*
X262394Y34888D01*
X262386Y34864D01*
X262392Y34728D01*
X262386Y33824D01*
X262373Y33805D01*
X262346Y33794D01*
X262259Y33800D01*
X262243Y33794D01*
X262205Y33800D01*
X262151Y33794D01*
X262097Y33800D01*
X262078Y33818D01*
X262072Y33856D01*
X262078Y33943D01*
X262072Y34013D01*
X262078Y34030D01*
X262075Y35164D01*
X262078Y35221D01*
X262072Y35237D01*
X262078Y35356D01*
X262072Y35372D01*
X262078Y35410D01*
X262075Y35516D01*
X262083Y35535D01*
X262091Y35543D01*
X262113Y35548D01*
X262381Y35551D01*
X262402Y35546D01*
X262421Y35532D01*
X262448Y35489D01*
X262462Y35470D01*
X262495Y35410D01*
X262521Y35372D01*
X262549Y35324D01*
X262559Y35313D01*
X262565Y35302D01*
X262603Y35232D01*
X262614Y35221D01*
X262619Y35210D01*
X262652Y35150D01*
X262679Y35113D01*
X262711Y35053D01*
X262722Y35042D01*
X262727Y35031D01*
X262760Y34972D01*
X262776Y34955D01*
X262814Y34885D01*
X262825Y34874D01*
X262830Y34864D01*
X262868Y34793D01*
X262884Y34777D01*
X262895Y34750D01*
X262917Y34712D01*
X262933Y34696D01*
X262971Y34625D01*
X262987Y34609D01*
X263004Y34571D01*
X263009Y34560D01*
X263041Y34511D01*
X263060Y34460D01*
X263077Y34444D01*
X263087Y34438D01*
X263104Y34433D01*
X263125Y34438D01*
X263133Y34446D01*
X263125Y34514D01*
X263123Y34858D01*
X263128Y34874D01*
X263123Y35140D01*
X263125Y35294D01*
X263123Y35459D01*
X263128Y35475D01*
X263123Y35513D01*
X263141Y35543D01*
X263163Y35548D01*
X263201Y35554D01*
X263223Y35548D01*
D02*
G37*
G36*
X247103D02*
X247214Y35551D01*
X247241Y35546D01*
X247260Y35532D01*
X247268Y35524D01*
Y35443D01*
Y35437D01*
X247263Y34371D01*
X247257Y34355D01*
X247252Y34235D01*
X247247Y34219D01*
X247239Y34157D01*
X247233Y34135D01*
X247225Y34116D01*
X247192Y34046D01*
X247171Y34008D01*
X247149Y33986D01*
X247133Y33959D01*
X247108Y33935D01*
X247100Y33932D01*
X247095Y33921D01*
X247071Y33897D01*
X247022Y33870D01*
X247006Y33854D01*
X246979Y33843D01*
X246957Y33837D01*
X246922Y33824D01*
X246865Y33800D01*
X246843Y33794D01*
X246805Y33789D01*
X246751Y33783D01*
X246665Y33778D01*
X246405Y33783D01*
X246388Y33789D01*
X246315Y33797D01*
X246294Y33802D01*
X246275Y33810D01*
X246237Y33832D01*
X246199Y33843D01*
X246161Y33864D01*
X246150Y33875D01*
X246139Y33881D01*
X246101Y33908D01*
X246069Y33940D01*
X246058Y33946D01*
X246034Y33970D01*
X246028Y33981D01*
X246012Y33997D01*
X246007Y34008D01*
X245985Y34046D01*
X245974Y34057D01*
X245969Y34067D01*
X245947Y34116D01*
X245939Y34151D01*
X245917Y34238D01*
X245909Y34268D01*
X245904Y34355D01*
X245898Y34474D01*
X245904Y35535D01*
X245912Y35543D01*
X245933Y35548D01*
X245952Y35551D01*
X246139Y35548D01*
X246155Y35554D01*
X246210Y35548D01*
X246239Y35524D01*
X246242Y35413D01*
X246239Y34555D01*
X246245Y34539D01*
X246250Y34317D01*
X246256Y34300D01*
X246264Y34254D01*
X246275Y34227D01*
X246299Y34203D01*
X246304Y34192D01*
X246334Y34151D01*
X246345Y34146D01*
X246375Y34122D01*
X246388Y34108D01*
X246415Y34097D01*
X246470Y34081D01*
X246507Y34070D01*
X246529Y34065D01*
X246600Y34059D01*
X246675Y34065D01*
X246702Y34076D01*
X246757Y34092D01*
X246792Y34105D01*
X246800Y34114D01*
X246811Y34119D01*
X246878Y34187D01*
X246889Y34214D01*
X246900Y34252D01*
X246916Y34306D01*
X246922Y34327D01*
X246927Y34382D01*
X246933Y34614D01*
X246930Y35521D01*
X246938Y35540D01*
X246968Y35554D01*
X247103Y35548D01*
D02*
G37*
G36*
X244057Y35546D02*
X244074Y35535D01*
X244079Y35513D01*
X244074Y33818D01*
X244060Y33800D01*
X244022Y33794D01*
X243984Y33800D01*
X243776Y33797D01*
X243749Y33808D01*
X243732Y33846D01*
X243738Y35529D01*
X243751Y35543D01*
X243773Y35548D01*
X243833D01*
X244036Y35551D01*
X244057Y35546D01*
D02*
G37*
G36*
X238532Y35543D02*
X238551Y35524D01*
X238545Y33824D01*
X238526Y33805D01*
X238483Y33794D01*
X238380Y33800D01*
X238237Y33797D01*
X238218Y33805D01*
X238204Y33840D01*
X238207Y33875D01*
X238204Y35416D01*
X238209Y35432D01*
X238204Y35448D01*
X238209Y35529D01*
X238228Y35548D01*
X238310D01*
X238532Y35543D01*
D02*
G37*
G36*
X268069Y35570D02*
X268120Y35562D01*
X268164Y35556D01*
X268234Y35546D01*
X268256Y35540D01*
X268288Y35524D01*
X268345Y35500D01*
X268375Y35492D01*
X268394Y35478D01*
X268424Y35454D01*
X268443Y35445D01*
X268480Y35424D01*
X268518Y35386D01*
X268529Y35381D01*
X268613Y35297D01*
X268629Y35270D01*
X268654Y35240D01*
X268678Y35194D01*
X268705Y35156D01*
X268713Y35126D01*
X268719Y35104D01*
X268754Y35037D01*
X268765Y34999D01*
X268770Y34945D01*
X268776Y34923D01*
X268784Y34877D01*
X268792Y34804D01*
X268797Y34782D01*
X268803Y34712D01*
X268797Y34549D01*
X268792Y34533D01*
X268784Y34487D01*
X268778Y34460D01*
X268773Y34411D01*
X268767Y34368D01*
X268762Y34341D01*
X268757Y34319D01*
X268746Y34292D01*
X268716Y34225D01*
X268703Y34189D01*
X268689Y34170D01*
X268667Y34138D01*
X268640Y34089D01*
X268629Y34078D01*
X268624Y34067D01*
X268613Y34057D01*
X268608Y34046D01*
X268513Y33951D01*
X268502Y33946D01*
X268491Y33935D01*
X268480Y33929D01*
X268464Y33913D01*
X268453Y33908D01*
X268405Y33881D01*
X268394Y33870D01*
X268383Y33864D01*
X268372Y33854D01*
X268345Y33843D01*
X268288Y33829D01*
X268242Y33805D01*
X268199Y33794D01*
X268091Y33783D01*
X268053Y33778D01*
X267798Y33783D01*
X267782Y33789D01*
X267725Y33797D01*
X267682Y33808D01*
X267609Y33837D01*
X267574Y33851D01*
X267530Y33878D01*
X267471Y33905D01*
X267441Y33935D01*
X267430Y33940D01*
X267419Y33951D01*
X267408Y33956D01*
X267349Y34016D01*
X267338Y34021D01*
X267324Y34040D01*
X267273Y34108D01*
X267249Y34154D01*
X267222Y34192D01*
X267211Y34230D01*
X267197Y34265D01*
X267173Y34322D01*
X267157Y34387D01*
X267151Y34441D01*
X267132Y34530D01*
X267127Y34579D01*
X267124Y34723D01*
X267129Y34739D01*
X267135Y34831D01*
X267140Y34847D01*
X267146Y34885D01*
X267151Y34907D01*
X267159Y34969D01*
X267165Y35002D01*
X267170Y35023D01*
X267181Y35050D01*
X267211Y35118D01*
X267216Y35140D01*
X267238Y35178D01*
X267249Y35188D01*
X267281Y35248D01*
X267303Y35270D01*
X267308Y35280D01*
X267346Y35329D01*
X267368Y35351D01*
X267373Y35362D01*
X267389Y35378D01*
X267392Y35381D01*
X267422Y35405D01*
X267452Y35435D01*
X267522Y35473D01*
X267538Y35489D01*
X267593Y35505D01*
X267674Y35543D01*
X267695Y35548D01*
X267855Y35573D01*
X268053Y35575D01*
X268069Y35570D01*
D02*
G37*
G36*
X264717D02*
X264734Y35565D01*
X264834Y35551D01*
X264885Y35543D01*
X264923Y35521D01*
X264961Y35505D01*
X264991Y35497D01*
X265010Y35489D01*
X265039Y35464D01*
X265102Y35429D01*
X265129Y35402D01*
X265140Y35397D01*
X265150Y35386D01*
X265161Y35381D01*
X265229Y35313D01*
X265234Y35302D01*
X265251Y35286D01*
X265253Y35278D01*
X265264Y35272D01*
X265289Y35232D01*
X265310Y35194D01*
X265326Y35178D01*
X265334Y35148D01*
X265351Y35104D01*
X265375Y35064D01*
X265391Y34999D01*
X265397Y34961D01*
X265424Y34853D01*
X265429Y34815D01*
X265435Y34744D01*
Y34576D01*
Y34571D01*
X265429Y34533D01*
X265421Y34487D01*
X265416Y34465D01*
X265408Y34436D01*
X265399Y34390D01*
X265394Y34363D01*
X265389Y34341D01*
X265380Y34290D01*
X265353Y34246D01*
X265343Y34219D01*
X265334Y34189D01*
X265315Y34160D01*
X265294Y34127D01*
X265272Y34089D01*
X265245Y34062D01*
X265240Y34051D01*
X265205Y34005D01*
X265194Y34000D01*
X265169Y33975D01*
X265164Y33965D01*
X265156Y33956D01*
X265145Y33951D01*
X265107Y33924D01*
X265091Y33908D01*
X265080Y33902D01*
X265010Y33864D01*
X264983Y33848D01*
X264945Y33837D01*
X264918Y33827D01*
X264858Y33800D01*
X264836Y33794D01*
X264769Y33786D01*
X264709Y33781D01*
X264501Y33778D01*
X264484Y33783D01*
X264398Y33789D01*
X264382Y33794D01*
X264330Y33802D01*
X264303Y33813D01*
X264273Y33827D01*
X264252Y33832D01*
X264214Y33843D01*
X264187Y33859D01*
X264176Y33870D01*
X264165Y33875D01*
X264127Y33891D01*
X264100Y33908D01*
X264067Y33940D01*
X264057Y33946D01*
X264027Y33970D01*
X263989Y34008D01*
X263983Y34019D01*
X263959Y34043D01*
X263948Y34049D01*
X263927Y34081D01*
X263913Y34100D01*
X263892Y34122D01*
X263878Y34157D01*
X263859Y34187D01*
X263843Y34214D01*
X263832Y34257D01*
X263813Y34309D01*
X263805Y34317D01*
X263789Y34371D01*
X263783Y34409D01*
X263778Y34463D01*
X263772Y34484D01*
X263764Y34601D01*
X263762Y34755D01*
X263767Y34771D01*
X263775Y34866D01*
X263780Y34910D01*
X263786Y34958D01*
X263791Y34985D01*
X263808Y35029D01*
X263821Y35058D01*
X263832Y35096D01*
X263851Y35148D01*
X263864Y35167D01*
X263886Y35199D01*
X263892Y35221D01*
X263902Y35232D01*
X263908Y35243D01*
X263929Y35264D01*
X263935Y35275D01*
X263962Y35313D01*
X264051Y35402D01*
X264062Y35408D01*
X264095Y35440D01*
X264105Y35445D01*
X264143Y35467D01*
X264160Y35483D01*
X264197Y35500D01*
X264249Y35519D01*
X264306Y35543D01*
X264344Y35548D01*
X264365Y35554D01*
X264422Y35562D01*
X264495Y35570D01*
X264517Y35575D01*
X264717Y35570D01*
D02*
G37*
G36*
X252215Y35575D02*
X252318Y35570D01*
X252334Y35565D01*
X252388Y35559D01*
X252410Y35554D01*
X252464Y35548D01*
X252491Y35538D01*
X252502Y35532D01*
X252561Y35505D01*
X252583Y35500D01*
X252631Y35473D01*
X252642Y35462D01*
X252702Y35429D01*
X252729Y35402D01*
X252740Y35397D01*
X252770Y35372D01*
X252775Y35362D01*
X252783Y35354D01*
X252794Y35348D01*
X252818Y35324D01*
X252824Y35313D01*
X252856Y35280D01*
X252862Y35270D01*
X252889Y35232D01*
X252900Y35221D01*
X252905Y35210D01*
X252921Y35172D01*
X252964Y35080D01*
X252970Y35058D01*
X253000Y34975D01*
X253011Y34920D01*
X253019Y34847D01*
X253024Y34777D01*
X253029Y34641D01*
X253024Y34587D01*
X253019Y34468D01*
X253013Y34452D01*
X253005Y34395D01*
X253000Y34373D01*
X252989Y34346D01*
X252975Y34311D01*
X252967Y34276D01*
X252962Y34254D01*
X252951Y34227D01*
X252938Y34208D01*
X252916Y34160D01*
X252894Y34122D01*
X252873Y34100D01*
X252867Y34089D01*
X252829Y34040D01*
X252818Y34030D01*
X252813Y34019D01*
X252783Y33989D01*
X252772Y33984D01*
X252764Y33975D01*
X252759Y33965D01*
X252745Y33951D01*
X252718Y33935D01*
X252686Y33902D01*
X252659Y33891D01*
X252610Y33864D01*
X252599Y33854D01*
X252572Y33843D01*
X252537Y33835D01*
X252510Y33824D01*
X252502Y33816D01*
X252464Y33800D01*
X252410Y33794D01*
X252388Y33789D01*
X252318Y33783D01*
X252263Y33778D01*
X252036Y33783D01*
X252020Y33789D01*
X251955Y33794D01*
X251938Y33800D01*
X251917Y33805D01*
X251857Y33832D01*
X251828Y33840D01*
X251792Y33854D01*
X251754Y33881D01*
X251695Y33913D01*
X251673Y33935D01*
X251635Y33956D01*
X251627Y33965D01*
X251624Y33967D01*
X251611Y33981D01*
X251605Y33992D01*
X251586Y34005D01*
X251573Y34019D01*
X251567Y34030D01*
X251557Y34040D01*
X251551Y34051D01*
X251519Y34084D01*
X251497Y34122D01*
X251473Y34151D01*
X251446Y34222D01*
X251432Y34241D01*
X251416Y34279D01*
X251411Y34300D01*
X251397Y34357D01*
X251383Y34403D01*
X251378Y34425D01*
X251370Y34465D01*
X251364Y34498D01*
X251359Y34574D01*
X251356Y34739D01*
X251362Y34755D01*
X251367Y34885D01*
X251373Y34901D01*
X251378Y34934D01*
X251389Y34961D01*
X251400Y34999D01*
X251405Y35020D01*
X251419Y35077D01*
X251459Y35156D01*
X251467Y35186D01*
X251495Y35218D01*
X251503Y35226D01*
X251508Y35237D01*
X251535Y35286D01*
X251567Y35318D01*
X251573Y35329D01*
X251641Y35397D01*
X251651Y35402D01*
X251689Y35440D01*
X251738Y35467D01*
X251760Y35489D01*
X251790Y35497D01*
X251811Y35502D01*
X251838Y35513D01*
X251906Y35543D01*
X251928Y35548D01*
X251966Y35554D01*
X251987Y35559D01*
X252066Y35567D01*
X252139Y35575D01*
X252193Y35581D01*
X252215Y35575D01*
D02*
G37*
G36*
X272344Y33369D02*
X272363Y33356D01*
X272371Y33331D01*
X272365Y33234D01*
X272352Y33220D01*
X272330Y33215D01*
X247775D01*
X238123Y33212D01*
X238101Y33217D01*
X238082Y33231D01*
X238074Y33255D01*
X238079Y33347D01*
X238098Y33366D01*
X238120Y33372D01*
X272322Y33374D01*
X272344Y33369D01*
D02*
G37*
G36*
X248489Y32538D02*
X248503Y32524D01*
X248505Y32484D01*
X248503Y31777D01*
X248508Y31761D01*
X248503Y31723D01*
X248489Y31709D01*
X248473Y31704D01*
X248446Y31720D01*
X248438Y31750D01*
X248430Y31812D01*
X248419Y31866D01*
X248408Y31893D01*
X248395Y31939D01*
X248386Y31980D01*
X248367Y32010D01*
X248346Y32059D01*
X248332Y32094D01*
X248308Y32118D01*
X248302Y32129D01*
X248281Y32167D01*
X248213Y32235D01*
X248202Y32240D01*
X248164Y32278D01*
X248116Y32305D01*
X248099Y32321D01*
X248089Y32327D01*
X248062Y32338D01*
X248026Y32351D01*
X247986Y32375D01*
X247942Y32386D01*
X247888Y32392D01*
X247861Y32403D01*
X247840Y32408D01*
X247701Y32411D01*
X247680Y32405D01*
X247650Y32397D01*
X247612Y32392D01*
X247569Y32381D01*
X247539Y32357D01*
X247498Y32332D01*
X247477Y32327D01*
X247452Y32302D01*
X247450Y32294D01*
X247439Y32289D01*
X247428Y32278D01*
X247417Y32273D01*
X247387Y32227D01*
X247366Y32205D01*
X247349Y32167D01*
X247322Y32080D01*
X247317Y32042D01*
X247322Y31956D01*
X247339Y31918D01*
X247358Y31866D01*
X247371Y31848D01*
X247393Y31826D01*
X247398Y31815D01*
X247409Y31804D01*
X247414Y31793D01*
X247450Y31758D01*
X247460Y31753D01*
X247498Y31715D01*
X247509Y31709D01*
X247558Y31672D01*
X247601Y31644D01*
X247612Y31639D01*
X247639Y31612D01*
X247666Y31601D01*
X247704Y31579D01*
X247726Y31558D01*
X247761Y31544D01*
X247794Y31523D01*
X247807Y31509D01*
X247861Y31487D01*
X247915Y31449D01*
X247937Y31444D01*
X247975Y31422D01*
X247986Y31412D01*
X247997Y31406D01*
X248089Y31357D01*
X248159Y31319D01*
X248175Y31303D01*
X248246Y31265D01*
X248262Y31249D01*
X248321Y31217D01*
X248332Y31206D01*
X248343Y31200D01*
X248381Y31179D01*
X248419Y31141D01*
X248430Y31135D01*
X248459Y31111D01*
X248508Y31062D01*
X248514Y31051D01*
X248541Y31024D01*
X248546Y31014D01*
X248573Y30976D01*
X248584Y30965D01*
X248600Y30927D01*
X248611Y30900D01*
X248644Y30830D01*
X248649Y30792D01*
X248654Y30770D01*
X248660Y30732D01*
X248665Y30678D01*
X248671Y30640D01*
X248665Y30602D01*
X248657Y30518D01*
X248652Y30486D01*
X248646Y30459D01*
X248641Y30437D01*
X248633Y30418D01*
X248573Y30304D01*
X248546Y30266D01*
X248541Y30255D01*
X248508Y30223D01*
X248503Y30212D01*
X248430Y30139D01*
X248419Y30134D01*
X248392Y30107D01*
X248354Y30085D01*
X248327Y30058D01*
X248289Y30047D01*
X248267Y30042D01*
X248229Y30020D01*
X248181Y29998D01*
X248062Y29977D01*
X248040Y29971D01*
X247986Y29966D01*
X247910Y29955D01*
X247750Y29969D01*
X247723Y29974D01*
X247693Y29982D01*
X247577Y30006D01*
X247534Y30023D01*
X247488Y30042D01*
X247404Y30061D01*
X247358Y30080D01*
X247320Y30090D01*
X247255Y30101D01*
X247190Y30096D01*
X247160Y30071D01*
X247138Y30023D01*
X247133Y30001D01*
X247117Y29974D01*
X247108Y29966D01*
X247084Y29963D01*
X247065Y29971D01*
X247057Y29979D01*
X247052Y30017D01*
X247057Y30055D01*
X247062Y30077D01*
X247052Y30153D01*
X247057Y30169D01*
X247054Y30437D01*
X247057Y30705D01*
X247052Y30721D01*
X247057Y30770D01*
X247071Y30789D01*
X247092Y30794D01*
X247114Y30789D01*
X247127Y30775D01*
X247138Y30732D01*
X247146Y30670D01*
X247157Y30616D01*
X247174Y30572D01*
X247211Y30464D01*
X247247Y30396D01*
X247263Y30369D01*
X247290Y30342D01*
X247295Y30331D01*
X247320Y30302D01*
X247330Y30291D01*
X247339Y30288D01*
X247344Y30277D01*
X247368Y30253D01*
X247379Y30247D01*
X247409Y30223D01*
X247428Y30204D01*
X247488Y30172D01*
X247520Y30150D01*
X247588Y30126D01*
X247645Y30101D01*
X247682Y30096D01*
X247704Y30090D01*
X247783Y30082D01*
X247937Y30080D01*
X247953Y30085D01*
X248018Y30096D01*
X248067Y30101D01*
X248078Y30112D01*
X248089Y30117D01*
X248099Y30128D01*
X248127Y30139D01*
X248162Y30153D01*
X248183Y30169D01*
X248189Y30180D01*
X248197Y30188D01*
X248208Y30193D01*
X248237Y30218D01*
X248248Y30229D01*
X248254Y30239D01*
X248286Y30272D01*
X248319Y30331D01*
X248340Y30380D01*
X248351Y30456D01*
X248346Y30575D01*
X248340Y30591D01*
X248335Y30624D01*
X248297Y30683D01*
X248292Y30705D01*
X248254Y30754D01*
X248232Y30775D01*
X248227Y30786D01*
X248186Y30827D01*
X248175Y30832D01*
X248164Y30843D01*
X248154Y30849D01*
X248127Y30875D01*
X248089Y30897D01*
X248072Y30913D01*
X248062Y30919D01*
X248002Y30951D01*
X247986Y30968D01*
X247948Y30984D01*
X247910Y31005D01*
X247894Y31022D01*
X247883Y31027D01*
X247856Y31038D01*
X247818Y31060D01*
X247802Y31076D01*
X247775Y31087D01*
X247745Y31095D01*
X247726Y31108D01*
X247704Y31130D01*
X247677Y31141D01*
X247639Y31163D01*
X247623Y31179D01*
X247596Y31190D01*
X247547Y31217D01*
X247531Y31233D01*
X247493Y31249D01*
X247482Y31254D01*
X247460Y31276D01*
X247450Y31282D01*
X247401Y31309D01*
X247374Y31336D01*
X247363Y31341D01*
X247325Y31363D01*
X247293Y31395D01*
X247282Y31401D01*
X247263Y31414D01*
X247257Y31425D01*
X247233Y31449D01*
X247222Y31455D01*
X247203Y31474D01*
X247198Y31485D01*
X247160Y31523D01*
X247133Y31571D01*
X247108Y31601D01*
X247095Y31631D01*
X247087Y31661D01*
X247062Y31707D01*
X247052Y31745D01*
X247046Y31799D01*
X247041Y31820D01*
X247046Y32026D01*
X247052Y32042D01*
X247057Y32075D01*
X247090Y32145D01*
X247098Y32175D01*
X247125Y32218D01*
X247138Y32232D01*
X247144Y32243D01*
X247160Y32270D01*
X247192Y32302D01*
X247198Y32313D01*
X247271Y32386D01*
X247282Y32392D01*
X247312Y32416D01*
X247325Y32430D01*
X247385Y32462D01*
X247395Y32473D01*
X247417Y32478D01*
X247433Y32484D01*
X247469Y32497D01*
X247531Y32522D01*
X247553Y32527D01*
X247590Y32532D01*
X247612Y32538D01*
X247764Y32543D01*
X247913Y32535D01*
X247932Y32532D01*
X247937D01*
X247953Y32527D01*
X247986Y32522D01*
X248045Y32494D01*
X248075Y32486D01*
X248102Y32481D01*
X248124Y32476D01*
X248151Y32465D01*
X248159Y32457D01*
X248170Y32451D01*
X248208Y32435D01*
X248229Y32430D01*
X248265Y32416D01*
X248294Y32403D01*
X248313Y32400D01*
X248335Y32405D01*
X248381Y32430D01*
X248411Y32454D01*
X248454Y32535D01*
X248478Y32543D01*
X248489Y32538D01*
D02*
G37*
G36*
X253395Y31693D02*
X253409Y31680D01*
X253403Y31647D01*
X253390Y31634D01*
X253379Y31628D01*
X253352Y31617D01*
X253316Y31604D01*
X253287Y31585D01*
X253279Y31577D01*
X253273Y31566D01*
X253235Y31528D01*
X253214Y31474D01*
X253176Y31393D01*
X253170Y31371D01*
X253162Y31341D01*
X253127Y31274D01*
X253122Y31252D01*
X253100Y31192D01*
X253067Y31122D01*
X253059Y31092D01*
X253019Y31003D01*
X253013Y30970D01*
X252986Y30922D01*
X252970Y30884D01*
X252962Y30854D01*
X252956Y30832D01*
X252921Y30765D01*
X252916Y30743D01*
X252902Y30708D01*
X252867Y30629D01*
X252856Y30591D01*
X252843Y30556D01*
X252835Y30548D01*
X252818Y30510D01*
X252808Y30472D01*
X252794Y30437D01*
X252764Y30380D01*
X252759Y30358D01*
X252740Y30307D01*
X252715Y30266D01*
X252707Y30231D01*
X252702Y30210D01*
X252661Y30120D01*
X252637Y30052D01*
X252613Y30006D01*
X252602Y29969D01*
X252583Y29917D01*
X252558Y29876D01*
X252550Y29841D01*
X252534Y29798D01*
X252510Y29757D01*
X252499Y29720D01*
X252485Y29684D01*
X252477Y29665D01*
X252445Y29595D01*
X252423Y29557D01*
X252401Y29525D01*
X252374Y29476D01*
X252353Y29454D01*
X252347Y29443D01*
X252323Y29414D01*
X252263Y29354D01*
X252253Y29349D01*
X252225Y29321D01*
X252198Y29305D01*
X252169Y29281D01*
X252139Y29267D01*
X252104Y29254D01*
X252079Y29235D01*
X252025Y29219D01*
X251971Y29213D01*
X251949Y29208D01*
X251854Y29216D01*
X251828Y29221D01*
X251798Y29240D01*
X251787Y29251D01*
X251776Y29256D01*
X251765Y29267D01*
X251738Y29284D01*
X251730Y29292D01*
X251687Y29384D01*
X251684Y29424D01*
X251689Y29451D01*
X251725Y29514D01*
X251749Y29538D01*
X251760Y29543D01*
X251776Y29560D01*
X251803Y29571D01*
X251857Y29576D01*
X251938Y29571D01*
X251955Y29565D01*
X251990Y29552D01*
X252047Y29527D01*
X252112Y29516D01*
X252188Y29522D01*
X252225Y29549D01*
X252253Y29576D01*
X252263Y29581D01*
X252277Y29595D01*
X252282Y29606D01*
X252309Y29644D01*
X252315Y29655D01*
X252331Y29671D01*
X252337Y29682D01*
X252347Y29709D01*
X252355Y29738D01*
X252363Y29757D01*
X252385Y29790D01*
X252396Y29828D01*
X252415Y29879D01*
X252439Y29925D01*
X252456Y29990D01*
X252493Y30071D01*
X252488Y30120D01*
X252477Y30131D01*
X252472Y30142D01*
X252461Y30153D01*
X252437Y30220D01*
X252415Y30253D01*
X252404Y30280D01*
X252388Y30323D01*
X252366Y30356D01*
X252347Y30402D01*
X252337Y30429D01*
X252331Y30440D01*
X252309Y30472D01*
X252285Y30540D01*
X252258Y30583D01*
X252231Y30654D01*
X252217Y30673D01*
X252190Y30732D01*
X252177Y30767D01*
X252163Y30786D01*
X252141Y30835D01*
X252125Y30878D01*
X252098Y30916D01*
X252074Y30984D01*
X252047Y31027D01*
X252033Y31062D01*
X252028Y31084D01*
X251990Y31144D01*
X251982Y31179D01*
X251971Y31206D01*
X251963Y31214D01*
X251957Y31225D01*
X251941Y31252D01*
X251922Y31303D01*
X251895Y31347D01*
X251882Y31376D01*
X251868Y31412D01*
X251860Y31420D01*
X251854Y31430D01*
X251838Y31447D01*
X251833Y31458D01*
X251811Y31495D01*
X251795Y31512D01*
X251790Y31523D01*
X251760Y31563D01*
X251749Y31569D01*
X251722Y31596D01*
X251695Y31607D01*
X251638Y31620D01*
X251616Y31642D01*
X251611Y31663D01*
X251616Y31685D01*
X251630Y31699D01*
X251695Y31693D01*
X251711Y31688D01*
X251765Y31693D01*
X252347Y31696D01*
X252363Y31685D01*
X252358Y31653D01*
X252312Y31634D01*
X252277Y31625D01*
X252250Y31615D01*
X252204Y31590D01*
X252196Y31582D01*
X252179Y31544D01*
X252174Y31506D01*
X252179Y31441D01*
X252185Y31425D01*
X252193Y31390D01*
X252198Y31368D01*
X252228Y31311D01*
X252239Y31284D01*
X252253Y31249D01*
X252261Y31241D01*
X252266Y31230D01*
X252293Y31171D01*
X252307Y31135D01*
X252315Y31127D01*
X252320Y31116D01*
X252342Y31068D01*
X252355Y31033D01*
X252363Y31024D01*
X252369Y31014D01*
X252396Y30954D01*
X252428Y30894D01*
X252450Y30846D01*
X252499Y30743D01*
X252512Y30708D01*
X252521Y30700D01*
X252526Y30689D01*
X252548Y30656D01*
X252553Y30624D01*
X252575Y30586D01*
X252586Y30575D01*
X252594Y30545D01*
X252599Y30524D01*
X252610Y30496D01*
X252621Y30486D01*
X252653Y30491D01*
X252667Y30505D01*
X252680Y30540D01*
X252705Y30597D01*
X252715Y30635D01*
X252759Y30727D01*
X252764Y30748D01*
X252778Y30784D01*
X252786Y30802D01*
X252808Y30851D01*
X252818Y30889D01*
X252829Y30916D01*
X252835Y30927D01*
X252851Y30954D01*
X252862Y30981D01*
X252870Y31016D01*
X252875Y31038D01*
X252910Y31106D01*
X252921Y31149D01*
X252935Y31184D01*
X252943Y31192D01*
X252948Y31203D01*
X252959Y31219D01*
Y31225D01*
X252964Y31241D01*
X252970Y31263D01*
X252989Y31314D01*
X252997Y31322D01*
X253013Y31360D01*
X253035Y31447D01*
X253046Y31485D01*
X253040Y31582D01*
X253016Y31607D01*
X252978Y31623D01*
X252940Y31634D01*
X252910Y31642D01*
X252902Y31650D01*
X252894Y31653D01*
X252889Y31674D01*
X252894Y31685D01*
X252902Y31693D01*
X252940Y31699D01*
X253067Y31690D01*
X253070Y31688D01*
X253086Y31693D01*
X253235Y31690D01*
X253254Y31693D01*
X253270Y31688D01*
X253335Y31693D01*
X253352Y31699D01*
X253395Y31693D01*
D02*
G37*
G36*
X263645Y32603D02*
X263653Y32595D01*
X263664Y32551D01*
Y31615D01*
Y31609D01*
X263669Y30342D01*
X263675Y30326D01*
X263680Y30277D01*
X263707Y30239D01*
X263718Y30229D01*
X263724Y30218D01*
X263737Y30204D01*
X263775Y30193D01*
X263848Y30201D01*
X263894Y30215D01*
X263916Y30210D01*
X263929Y30196D01*
X263924Y30164D01*
X263916Y30155D01*
X263840Y30128D01*
X263813Y30112D01*
X263770Y30101D01*
X263740Y30093D01*
X263721Y30085D01*
X263678Y30058D01*
X263648Y30050D01*
X263626Y30044D01*
X263583Y30028D01*
X263575Y30020D01*
X263564Y30015D01*
X263526Y29998D01*
X263504Y29993D01*
X263475Y29985D01*
X263447Y29974D01*
X263418Y29966D01*
X263391Y29971D01*
X263377Y29985D01*
X263366Y30023D01*
X263361Y30174D01*
X263353Y30182D01*
X263339Y30185D01*
X263320Y30177D01*
X263250Y30107D01*
X263239Y30101D01*
X263209Y30077D01*
X263196Y30063D01*
X263185Y30058D01*
X263060Y29998D01*
X263039Y29993D01*
X262987Y29985D01*
X262922Y29974D01*
X262865Y29966D01*
X262849Y29971D01*
X262782Y29979D01*
X262749Y29985D01*
X262727Y29990D01*
X262695Y29996D01*
X262673Y30001D01*
X262646Y30012D01*
X262589Y30042D01*
X262540Y30069D01*
X262532Y30077D01*
X262527Y30088D01*
X262484Y30115D01*
X262454Y30145D01*
X262443Y30150D01*
X262419Y30174D01*
X262413Y30185D01*
X262375Y30223D01*
X262370Y30234D01*
X262343Y30261D01*
X262337Y30272D01*
X262305Y30331D01*
X262283Y30353D01*
X262272Y30391D01*
X262253Y30442D01*
X262235Y30488D01*
X262224Y30526D01*
X262218Y30564D01*
X262213Y30618D01*
X262208Y30635D01*
X262202Y30673D01*
X262194Y30756D01*
X262191Y30824D01*
X262197Y30840D01*
X262202Y30905D01*
X262208Y30922D01*
X262213Y30959D01*
X262221Y31027D01*
X262227Y31049D01*
X262232Y31076D01*
X262243Y31103D01*
X262267Y31160D01*
X262272Y31181D01*
X262286Y31217D01*
X262316Y31274D01*
X262348Y31333D01*
X262370Y31365D01*
X262392Y31404D01*
X262416Y31433D01*
X262424Y31441D01*
X262430Y31452D01*
X262454Y31487D01*
X262465Y31493D01*
X262484Y31512D01*
X262489Y31523D01*
X262519Y31552D01*
X262530Y31558D01*
X262568Y31596D01*
X262595Y31612D01*
X262624Y31636D01*
X262649Y31650D01*
X262676Y31661D01*
X262714Y31682D01*
X262752Y31699D01*
X262773Y31704D01*
X262819Y31712D01*
X262873Y31723D01*
X262895Y31728D01*
X262928Y31734D01*
X262971Y31739D01*
X263012Y31742D01*
X263028Y31737D01*
X263093Y31731D01*
X263109Y31726D01*
X263131Y31720D01*
X263169Y31709D01*
X263190Y31704D01*
X263220Y31696D01*
X263250Y31677D01*
X263261Y31666D01*
X263272Y31661D01*
X263309Y31634D01*
X263326Y31617D01*
X263358Y31623D01*
X263366Y31647D01*
X263369Y31796D01*
X263363Y32170D01*
X263358Y32278D01*
X263347Y32305D01*
X263334Y32324D01*
X263323Y32335D01*
X263301Y32373D01*
X263293Y32381D01*
X263272Y32386D01*
X263174Y32381D01*
X263147Y32370D01*
X263114Y32375D01*
X263101Y32389D01*
X263106Y32421D01*
X263120Y32435D01*
X263155Y32443D01*
X263182Y32454D01*
X263239Y32478D01*
X263261Y32484D01*
X263296Y32492D01*
X263315Y32505D01*
X263326Y32516D01*
X263353Y32527D01*
X263396Y32538D01*
X263447Y32557D01*
X263456Y32565D01*
X263493Y32581D01*
X263531Y32592D01*
X263567Y32606D01*
X263596Y32614D01*
X263618Y32619D01*
X263645Y32603D01*
D02*
G37*
G36*
X249478Y32232D02*
X249483Y32210D01*
X249480Y32094D01*
X249483Y31772D01*
X249478Y31755D01*
X249486Y31720D01*
X249499Y31701D01*
X249534Y31688D01*
X249686Y31693D01*
X249702Y31688D01*
X249840Y31690D01*
X249859Y31677D01*
X249873Y31647D01*
X249867Y31609D01*
X249848Y31590D01*
X249805Y31579D01*
X249751Y31585D01*
X249507Y31579D01*
X249488Y31560D01*
X249478Y31501D01*
X249483Y31485D01*
Y30629D01*
Y30624D01*
X249488Y30348D01*
X249494Y30331D01*
X249526Y30272D01*
X249551Y30242D01*
X249561Y30237D01*
X249572Y30226D01*
X249583Y30220D01*
X249621Y30204D01*
X249659Y30199D01*
X249675Y30204D01*
X249718Y30210D01*
X249756Y30237D01*
X249794Y30258D01*
X249802Y30266D01*
X249808Y30277D01*
X249819Y30288D01*
X249824Y30299D01*
X249840Y30315D01*
X249856Y30342D01*
X249865Y30350D01*
X249902Y30345D01*
X249911Y30320D01*
X249902Y30291D01*
X249878Y30250D01*
X249873Y30239D01*
X249856Y30223D01*
X249846Y30196D01*
X249829Y30169D01*
X249802Y30142D01*
X249797Y30131D01*
X249783Y30112D01*
X249773Y30107D01*
X249743Y30082D01*
X249732Y30071D01*
X249727Y30061D01*
X249697Y30047D01*
X249670Y30036D01*
X249659Y30031D01*
X249626Y30009D01*
X249589Y29998D01*
X249567Y29993D01*
X249410Y29998D01*
X249350Y30036D01*
X249339Y30042D01*
X249291Y30080D01*
X249277Y30093D01*
X249272Y30104D01*
X249245Y30131D01*
X249228Y30169D01*
X249212Y30223D01*
X249201Y30266D01*
X249193Y30312D01*
X249188Y30345D01*
X249182Y31542D01*
X249163Y31571D01*
X249155Y31579D01*
X249134Y31585D01*
X249079Y31579D01*
X249036Y31585D01*
X249020Y31579D01*
X248955Y31574D01*
X248931Y31593D01*
X248925Y31615D01*
X248941Y31642D01*
X248977Y31655D01*
X249014Y31677D01*
X249025Y31688D01*
X249036Y31693D01*
X249074Y31720D01*
X249090Y31737D01*
X249101Y31742D01*
X249112Y31753D01*
X249123Y31758D01*
X249185Y31820D01*
X249191Y31831D01*
X249228Y31869D01*
X249234Y31880D01*
X249258Y31910D01*
X249272Y31923D01*
X249277Y31934D01*
X249299Y31972D01*
X249315Y31988D01*
X249321Y31999D01*
X249342Y32048D01*
X249369Y32097D01*
X249385Y32134D01*
X249391Y32156D01*
X249410Y32208D01*
X249423Y32221D01*
X249429Y32232D01*
X249459Y32246D01*
X249478Y32232D01*
D02*
G37*
G36*
X259698Y31737D02*
X259760Y31728D01*
X259814Y31718D01*
X259836Y31712D01*
X259868Y31707D01*
X259890Y31701D01*
X259917Y31690D01*
X260001Y31644D01*
X260012Y31639D01*
X260042Y31615D01*
X260074Y31593D01*
X260115Y31552D01*
X260126Y31547D01*
X260134Y31539D01*
X260139Y31528D01*
X260177Y31479D01*
X260204Y31430D01*
X260226Y31398D01*
X260236Y31371D01*
X260253Y31317D01*
X260266Y31282D01*
X260274Y31257D01*
X260285Y31214D01*
X260291Y31144D01*
X260296Y31127D01*
X260291Y31084D01*
X260277Y31065D01*
X260245Y31054D01*
X260228Y31060D01*
X259478Y31062D01*
X259422Y31060D01*
X259405Y31065D01*
X259286Y31060D01*
X259186Y31062D01*
X259167Y31054D01*
X259154Y31041D01*
X259143Y31003D01*
X259151Y30870D01*
X259156Y30827D01*
X259162Y30800D01*
X259178Y30756D01*
X259197Y30694D01*
X259202Y30673D01*
X259219Y30629D01*
X259246Y30591D01*
X259259Y30556D01*
X259278Y30526D01*
X259305Y30499D01*
X259311Y30488D01*
X259335Y30459D01*
X259365Y30429D01*
X259370Y30418D01*
X259378Y30410D01*
X259389Y30404D01*
X259419Y30380D01*
X259438Y30361D01*
X259497Y30329D01*
X259508Y30318D01*
X259519Y30312D01*
X259546Y30302D01*
X259587Y30293D01*
X259614Y30283D01*
X259644Y30269D01*
X259719Y30258D01*
X259855Y30264D01*
X259909Y30285D01*
X259947Y30296D01*
X259990Y30312D01*
X260020Y30337D01*
X260028Y30345D01*
X260077Y30372D01*
X260085Y30380D01*
X260090Y30391D01*
X260134Y30434D01*
X260139Y30445D01*
X260166Y30483D01*
X260172Y30494D01*
X260231Y30608D01*
X260250Y30626D01*
X260283Y30621D01*
X260296Y30591D01*
X260291Y30553D01*
X260264Y30494D01*
X260250Y30459D01*
X260239Y30415D01*
X260228Y30388D01*
X260220Y30380D01*
X260215Y30369D01*
X260204Y30358D01*
X260193Y30331D01*
X260188Y30310D01*
X260177Y30299D01*
X260172Y30288D01*
X260145Y30261D01*
X260123Y30223D01*
X260096Y30196D01*
X260090Y30185D01*
X260079Y30174D01*
X260074Y30164D01*
X260066Y30155D01*
X260055Y30150D01*
X260006Y30101D01*
X259968Y30080D01*
X259947Y30058D01*
X259936Y30052D01*
X259898Y30036D01*
X259887Y30031D01*
X259855Y30009D01*
X259811Y29998D01*
X259776Y29990D01*
X259749Y29985D01*
X259717Y29979D01*
X259668Y29974D01*
X259557Y29971D01*
X259541Y29977D01*
X259419Y29996D01*
X259392Y30001D01*
X259313Y30042D01*
X259286Y30052D01*
X259275Y30058D01*
X259246Y30082D01*
X259237Y30090D01*
X259200Y30112D01*
X259170Y30136D01*
X259094Y30212D01*
X259089Y30223D01*
X259056Y30255D01*
X259051Y30266D01*
X258997Y30353D01*
X258986Y30380D01*
X258980Y30391D01*
X258953Y30450D01*
X258948Y30472D01*
X258923Y30540D01*
X258915Y30570D01*
X258904Y30613D01*
Y30618D01*
Y30624D01*
X258899Y30640D01*
X258894Y30792D01*
X258899Y31035D01*
X258904Y31051D01*
X258913Y31108D01*
X258929Y31152D01*
X258937Y31176D01*
X258948Y31219D01*
X258956Y31260D01*
X258983Y31303D01*
X259005Y31357D01*
X259024Y31387D01*
X259040Y31404D01*
X259067Y31452D01*
X259100Y31485D01*
X259105Y31495D01*
X259167Y31558D01*
X259178Y31563D01*
X259210Y31596D01*
X259221Y31601D01*
X259259Y31628D01*
X259270Y31639D01*
X259297Y31650D01*
X259332Y31663D01*
X259362Y31682D01*
X259400Y31699D01*
X259438Y31704D01*
X259503Y31720D01*
X259592Y31734D01*
X259625Y31739D01*
X259681Y31742D01*
X259698Y31737D01*
D02*
G37*
G36*
X257470Y32600D02*
X257480Y32573D01*
X257486Y31430D01*
X257494Y31422D01*
X257526Y31428D01*
X257551Y31452D01*
X257556Y31463D01*
X257581Y31493D01*
X257605Y31517D01*
X257610Y31528D01*
X257619Y31536D01*
X257629Y31542D01*
X257659Y31566D01*
X257684Y31590D01*
X257694Y31596D01*
X257735Y31625D01*
X257740Y31636D01*
X257759Y31650D01*
X257830Y31688D01*
X257868Y31704D01*
X257889Y31709D01*
X257924Y31718D01*
X257946Y31723D01*
X257976Y31731D01*
X257998Y31737D01*
X258052Y31742D01*
X258073Y31737D01*
X258122Y31731D01*
X258149Y31720D01*
X258193Y31709D01*
X258228Y31696D01*
X258247Y31682D01*
X258279Y31661D01*
X258290Y31655D01*
X258309Y31642D01*
X258314Y31631D01*
X258325Y31620D01*
X258330Y31609D01*
X258344Y31596D01*
X258355Y31590D01*
X258368Y31566D01*
X258379Y31539D01*
X258401Y31501D01*
X258417Y31463D01*
X258428Y31425D01*
X258436Y31368D01*
X258442Y31347D01*
X258455Y31301D01*
X258461Y31263D01*
X258466Y31095D01*
X258471Y31041D01*
X258469Y30388D01*
X258474Y30258D01*
X258479Y30193D01*
X258490Y30166D01*
X258504Y30147D01*
X258515Y30136D01*
X258520Y30126D01*
X258544Y30101D01*
X258582Y30090D01*
X258626Y30080D01*
X258680Y30074D01*
X258693Y30066D01*
X258704Y30039D01*
X258691Y30015D01*
X258669Y30009D01*
X258577Y30015D01*
X258561Y30020D01*
X258425Y30015D01*
X258387Y30020D01*
X258349Y30015D01*
X258239Y30017D01*
X258160Y30015D01*
X258144Y30020D01*
X258060Y30012D01*
X258014Y30009D01*
X257998Y30015D01*
X257943Y30004D01*
X257916Y30020D01*
X257914Y30055D01*
X257933Y30074D01*
X258019Y30080D01*
X258036Y30085D01*
X258057Y30090D01*
X258087Y30099D01*
X258106Y30112D01*
X258119Y30126D01*
X258125Y30136D01*
X258149Y30166D01*
X258163Y30196D01*
X258168Y30234D01*
Y30830D01*
Y30835D01*
X258163Y31284D01*
X258157Y31301D01*
X258149Y31336D01*
X258119Y31398D01*
X258098Y31436D01*
X258084Y31449D01*
X258073Y31455D01*
X258036Y31493D01*
X257998Y31504D01*
X257976Y31509D01*
X257930Y31517D01*
X257908Y31523D01*
X257878Y31525D01*
X257862Y31520D01*
X257819Y31509D01*
X257781Y31504D01*
X257738Y31493D01*
X257700Y31466D01*
X257640Y31433D01*
X257608Y31401D01*
X257597Y31395D01*
X257570Y31368D01*
X257559Y31363D01*
X257497Y31301D01*
X257491Y31290D01*
X257480Y31263D01*
X257486Y30201D01*
X257491Y30185D01*
X257513Y30147D01*
X257554Y30107D01*
X257581Y30096D01*
X257624Y30085D01*
X257678Y30080D01*
X257721Y30074D01*
X257735Y30061D01*
X257740Y30039D01*
X257735Y30017D01*
X257727Y30009D01*
X257591Y30015D01*
X257437Y30017D01*
X257229Y30015D01*
X257212Y30020D01*
X257091Y30017D01*
X257055Y30020D01*
X257039Y30015D01*
X256985Y30009D01*
X256952Y30015D01*
X256939Y30028D01*
X256944Y30066D01*
X256952Y30074D01*
X256974Y30080D01*
X257034Y30085D01*
X257050Y30090D01*
X257085Y30099D01*
X257115Y30117D01*
X257134Y30136D01*
X257139Y30147D01*
X257155Y30164D01*
X257161Y30174D01*
X257172Y30201D01*
X257177Y30239D01*
X257183Y30423D01*
X257177Y32259D01*
X257172Y32275D01*
X257164Y32305D01*
X257150Y32324D01*
X257129Y32362D01*
X257110Y32381D01*
X257055Y32392D01*
X257039Y32386D01*
X256990Y32381D01*
X256963Y32370D01*
X256931Y32375D01*
X256917Y32389D01*
X256912Y32411D01*
X256925Y32430D01*
X256963Y32440D01*
X256999Y32454D01*
X257055Y32478D01*
X257085Y32486D01*
X257129Y32503D01*
X257137Y32511D01*
X257185Y32532D01*
X257229Y32543D01*
X257256Y32554D01*
X257267Y32559D01*
X257277Y32570D01*
X257304Y32581D01*
X257342Y32592D01*
X257378Y32606D01*
X257405Y32616D01*
X257445Y32619D01*
X257470Y32600D01*
D02*
G37*
G36*
X255545Y32538D02*
X255558Y32524D01*
X255577Y32473D01*
X255618Y32383D01*
X255626Y32354D01*
X255637Y32327D01*
X255645Y32319D01*
X255667Y32270D01*
X255672Y32248D01*
X255686Y32213D01*
X255710Y32172D01*
X255715Y32151D01*
X255740Y32083D01*
X255748Y32075D01*
X255764Y32037D01*
X255775Y31994D01*
X255786Y31967D01*
X255791Y31956D01*
X255813Y31923D01*
X255823Y31885D01*
X255832Y31856D01*
X255859Y31812D01*
X255872Y31777D01*
X255880Y31747D01*
X255891Y31720D01*
X255913Y31688D01*
X255926Y31642D01*
X255932Y31620D01*
X255975Y31528D01*
X255981Y31506D01*
X255991Y31479D01*
X256029Y31398D01*
X256040Y31360D01*
X256083Y31268D01*
X256089Y31246D01*
X256100Y31219D01*
X256121Y31181D01*
X256132Y31154D01*
X256157Y31087D01*
X256186Y31024D01*
X256194Y30995D01*
X256205Y30968D01*
X256235Y30911D01*
X256243Y30881D01*
X256259Y30838D01*
X256268Y30830D01*
X256289Y30781D01*
X256297Y30751D01*
X256314Y30708D01*
X256322Y30700D01*
X256327Y30689D01*
X256343Y30651D01*
X256352Y30616D01*
X256387Y30548D01*
X256395Y30513D01*
X256411Y30469D01*
X256419Y30461D01*
X256425Y30450D01*
X256446Y30402D01*
X256454Y30372D01*
X256473Y30342D01*
X256495Y30310D01*
X256500Y30288D01*
X256522Y30250D01*
X256538Y30234D01*
X256544Y30223D01*
X256571Y30185D01*
X256611Y30145D01*
X256622Y30139D01*
X256676Y30101D01*
X256698Y30096D01*
X256736Y30090D01*
X256790Y30085D01*
X256814Y30066D01*
X256820Y30044D01*
X256814Y30023D01*
X256806Y30015D01*
X256785Y30009D01*
X256698Y30015D01*
X256555Y30017D01*
X256102Y30015D01*
X256086Y30020D01*
X255959Y30012D01*
X255926Y30006D01*
X255918Y30004D01*
X255902Y30009D01*
X255891Y30015D01*
X255878Y30028D01*
X255883Y30066D01*
X255897Y30080D01*
X255935Y30085D01*
X256005Y30090D01*
X256064Y30123D01*
X256083Y30142D01*
X256089Y30153D01*
X256094Y30169D01*
X256097Y30172D01*
X256116Y30218D01*
X256110Y30283D01*
X256105Y30299D01*
X256094Y30342D01*
X256081Y30404D01*
X256045Y30472D01*
X256040Y30494D01*
X256016Y30561D01*
X256008Y30570D01*
X255991Y30608D01*
X255986Y30629D01*
X255972Y30664D01*
X255943Y30727D01*
X255913Y30811D01*
X255891Y30832D01*
X255853Y30849D01*
X255734Y30843D01*
X255718Y30849D01*
X255011Y30846D01*
X254965Y30849D01*
X254917Y30811D01*
X254909Y30802D01*
X254892Y30765D01*
X254887Y30743D01*
X254873Y30708D01*
X254849Y30667D01*
X254825Y30599D01*
X254806Y30564D01*
X254795Y30537D01*
X254770Y30469D01*
X254746Y30423D01*
X254735Y30385D01*
X254727Y30350D01*
X254705Y30291D01*
X254697Y30261D01*
X254703Y30201D01*
X254749Y30134D01*
X254765Y30117D01*
X254776Y30112D01*
X254803Y30101D01*
X254825Y30096D01*
X254917Y30085D01*
X254960Y30080D01*
X254973Y30066D01*
X254979Y30044D01*
X254963Y30017D01*
X254941Y30012D01*
X254868Y30009D01*
X254852Y30015D01*
X254814Y30020D01*
X254743Y30015D01*
X254646Y30020D01*
X254630Y30015D01*
X254524Y30017D01*
X254353Y30015D01*
X254337Y30020D01*
X254278Y30015D01*
X254261Y30009D01*
X254234Y30015D01*
X254226Y30023D01*
X254221Y30044D01*
X254232Y30071D01*
X254245Y30085D01*
X254283Y30090D01*
X254353Y30101D01*
X254364Y30112D01*
X254375Y30117D01*
X254386Y30128D01*
X254397Y30134D01*
X254426Y30158D01*
X254437Y30169D01*
X254443Y30180D01*
X254470Y30207D01*
X254502Y30266D01*
X254519Y30283D01*
X254535Y30320D01*
X254584Y30423D01*
X254597Y30459D01*
X254622Y30499D01*
X254632Y30526D01*
X254638Y30548D01*
X254651Y30583D01*
X254676Y30629D01*
X254686Y30667D01*
X254703Y30710D01*
X254730Y30748D01*
X254738Y30778D01*
X254743Y30800D01*
X254757Y30835D01*
X254768Y30846D01*
X254773Y30857D01*
X254789Y30894D01*
X254797Y30930D01*
X254814Y30962D01*
X254833Y30997D01*
X254857Y31065D01*
X254881Y31111D01*
X254911Y31195D01*
X254919Y31203D01*
X254941Y31252D01*
X254946Y31274D01*
X254963Y31317D01*
X254984Y31349D01*
X255014Y31433D01*
X255038Y31479D01*
X255049Y31517D01*
X255063Y31552D01*
X255087Y31593D01*
X255098Y31620D01*
X255106Y31655D01*
X255147Y31734D01*
X255166Y31785D01*
X255177Y31812D01*
X255206Y31874D01*
X255212Y31896D01*
X255255Y31988D01*
X255263Y32023D01*
X255279Y32056D01*
X255298Y32091D01*
X255312Y32126D01*
X255317Y32148D01*
X255352Y32216D01*
X255363Y32254D01*
X255377Y32289D01*
X255385Y32297D01*
X255390Y32308D01*
X255407Y32346D01*
X255412Y32367D01*
X255423Y32394D01*
X255461Y32476D01*
X255466Y32497D01*
X255477Y32524D01*
X255490Y32538D01*
X255512Y32543D01*
X255545Y32538D01*
D02*
G37*
G36*
X250780Y31737D02*
X250853Y31728D01*
X250934Y31712D01*
X250999Y31701D01*
X251021Y31696D01*
X251048Y31685D01*
X251056Y31677D01*
X251067Y31672D01*
X251126Y31639D01*
X251189Y31577D01*
X251194Y31566D01*
X251221Y31528D01*
X251226Y31517D01*
X251237Y31506D01*
X251248Y31479D01*
X251254Y31441D01*
X251259Y31420D01*
X251264Y31328D01*
X251270Y31311D01*
X251275Y31176D01*
Y30894D01*
Y30889D01*
X251281Y30342D01*
X251286Y30326D01*
X251291Y30277D01*
X251324Y30218D01*
X251348Y30204D01*
X251370Y30199D01*
X251402Y30204D01*
X251432Y30229D01*
X251446Y30242D01*
X251486Y30266D01*
X251492Y30277D01*
X251508Y30293D01*
X251513Y30304D01*
X251543Y30318D01*
X251557Y30310D01*
X251562Y30288D01*
X251557Y30239D01*
X251519Y30201D01*
X251513Y30191D01*
X251459Y30136D01*
X251454Y30126D01*
X251435Y30107D01*
X251408Y30090D01*
X251370Y30052D01*
X251318Y30034D01*
X251305Y30020D01*
X251294Y30015D01*
X251256Y29998D01*
X251234Y29993D01*
X251099Y29998D01*
X251059Y30028D01*
X251053Y30039D01*
X251042Y30050D01*
X251037Y30061D01*
X251015Y30082D01*
X250999Y30120D01*
X250991Y30172D01*
X250986Y30226D01*
X250975Y30242D01*
X250942Y30237D01*
X250931Y30226D01*
X250921Y30220D01*
X250872Y30182D01*
X250850Y30161D01*
X250839Y30155D01*
X250801Y30128D01*
X250785Y30112D01*
X250774Y30107D01*
X250726Y30069D01*
X250709Y30052D01*
X250658Y30034D01*
X250650Y30025D01*
X250639Y30020D01*
X250590Y29998D01*
X250552Y29993D01*
X250531Y29987D01*
X250428Y29982D01*
X250357Y29987D01*
X250336Y29993D01*
X250301Y30001D01*
X250246Y30034D01*
X250203Y30061D01*
X250127Y30136D01*
X250122Y30147D01*
X250068Y30261D01*
X250057Y30353D01*
X250062Y30515D01*
X250073Y30543D01*
X250133Y30656D01*
X250154Y30673D01*
X250160Y30683D01*
X250184Y30713D01*
X250214Y30738D01*
X250238Y30762D01*
X250276Y30784D01*
X250303Y30811D01*
X250374Y30849D01*
X250390Y30865D01*
X250441Y30884D01*
X250474Y30905D01*
X250482Y30913D01*
X250509Y30924D01*
X250539Y30932D01*
X250566Y30943D01*
X250598Y30965D01*
X250644Y30978D01*
X250666Y30984D01*
X250747Y31022D01*
X250769Y31027D01*
X250820Y31046D01*
X250828Y31054D01*
X250839Y31060D01*
X250877Y31076D01*
X250934Y31089D01*
X250964Y31108D01*
X250977Y31122D01*
X250986Y31152D01*
X250988Y31225D01*
X250983Y31241D01*
X250977Y31344D01*
X250972Y31360D01*
X250964Y31390D01*
X250950Y31436D01*
X250945Y31458D01*
X250931Y31493D01*
X250923Y31501D01*
X250918Y31512D01*
X250902Y31528D01*
X250896Y31539D01*
X250872Y31563D01*
X250861Y31569D01*
X250850Y31579D01*
X250839Y31585D01*
X250828Y31596D01*
X250801Y31607D01*
X250772Y31615D01*
X250744Y31620D01*
X250723Y31625D01*
X250679Y31631D01*
X250661Y31634D01*
X250644Y31628D01*
X250598Y31620D01*
X250555Y31609D01*
X250528Y31598D01*
X250520Y31590D01*
X250509Y31585D01*
X250463Y31539D01*
X250457Y31528D01*
X250436Y31506D01*
X250425Y31479D01*
X250420Y31458D01*
X250414Y31404D01*
X250420Y31387D01*
X250414Y31295D01*
X250420Y31279D01*
X250414Y31257D01*
X250409Y31230D01*
X250398Y31219D01*
X250393Y31209D01*
X250355Y31171D01*
X250349Y31160D01*
X250341Y31152D01*
X250314Y31141D01*
X250276Y31135D01*
X250225Y31144D01*
X250203Y31149D01*
X250184Y31163D01*
X250165Y31181D01*
X250160Y31192D01*
X250138Y31214D01*
X250133Y31225D01*
X250122Y31252D01*
X250116Y31290D01*
X250122Y31393D01*
X250181Y31506D01*
X250198Y31523D01*
X250203Y31533D01*
X250271Y31601D01*
X250282Y31607D01*
X250314Y31639D01*
X250325Y31644D01*
X250363Y31661D01*
X250401Y31682D01*
X250439Y31699D01*
X250460Y31704D01*
X250512Y31712D01*
X250544Y31718D01*
X250588Y31728D01*
X250636Y31734D01*
X250707Y31739D01*
X250763Y31742D01*
X250780Y31737D01*
D02*
G37*
G36*
X261338Y31731D02*
X261355Y31726D01*
X261401Y31718D01*
X261433Y31712D01*
X261460Y31707D01*
X261493Y31701D01*
X261520Y31690D01*
X261577Y31661D01*
X261604Y31650D01*
X261615Y31644D01*
X261628Y31636D01*
X261633Y31625D01*
X261669Y31590D01*
X261680Y31585D01*
X261688Y31577D01*
X261726Y31506D01*
X261742Y31468D01*
X261747Y31447D01*
X261753Y31393D01*
X261758Y31306D01*
X261763Y31236D01*
X261761Y30589D01*
X261766Y30410D01*
X261772Y30318D01*
X261777Y30285D01*
X261810Y30231D01*
X261823Y30212D01*
X261847Y30204D01*
X261869Y30199D01*
X261904Y30212D01*
X261923Y30226D01*
X261940Y30242D01*
X261950Y30247D01*
X261966Y30264D01*
X261977Y30269D01*
X261985Y30277D01*
X261991Y30288D01*
X262010Y30307D01*
X262037Y30318D01*
X262056Y30304D01*
X262059Y30275D01*
X262053Y30253D01*
X262034Y30234D01*
X262029Y30223D01*
X262018Y30212D01*
X262013Y30201D01*
X261988Y30172D01*
X261948Y30131D01*
X261942Y30120D01*
X261934Y30112D01*
X261923Y30107D01*
X261875Y30069D01*
X261864Y30058D01*
X261853Y30052D01*
X261804Y30025D01*
X261772Y30004D01*
X261734Y29998D01*
X261712Y29993D01*
X261644Y29990D01*
X261593Y29998D01*
X261563Y30023D01*
X261539Y30047D01*
X261528Y30052D01*
X261509Y30071D01*
X261498Y30099D01*
X261490Y30134D01*
X261485Y30155D01*
X261479Y30220D01*
X261466Y30239D01*
X261447Y30242D01*
X261398Y30215D01*
X261344Y30161D01*
X261306Y30139D01*
X261273Y30107D01*
X261225Y30080D01*
X261217Y30071D01*
X261214Y30063D01*
X261203Y30058D01*
X261133Y30020D01*
X261084Y29998D01*
X261027Y29990D01*
X260954Y29982D01*
X260846Y29987D01*
X260830Y29993D01*
X260800Y30001D01*
X260773Y30012D01*
X260718Y30044D01*
X260686Y30066D01*
X260664Y30088D01*
X260662Y30096D01*
X260651Y30101D01*
X260621Y30131D01*
X260616Y30142D01*
X260583Y30201D01*
X260567Y30239D01*
X260561Y30277D01*
X260556Y30299D01*
X260551Y30337D01*
X260548Y30404D01*
X260556Y30510D01*
X260561Y30526D01*
X260569Y30561D01*
X260580Y30589D01*
X260594Y30602D01*
X260599Y30613D01*
X260621Y30651D01*
X260653Y30683D01*
X260659Y30694D01*
X260694Y30729D01*
X260705Y30735D01*
X260718Y30754D01*
X260727Y30762D01*
X260737Y30767D01*
X260775Y30794D01*
X260792Y30811D01*
X260862Y30849D01*
X260878Y30865D01*
X260905Y30875D01*
X260949Y30892D01*
X260986Y30919D01*
X261016Y30927D01*
X261060Y30943D01*
X261068Y30951D01*
X261078Y30957D01*
X261116Y30973D01*
X261138Y30978D01*
X261173Y30992D01*
X261214Y31016D01*
X261252Y31027D01*
X261282Y31035D01*
X261360Y31070D01*
X261403Y31081D01*
X261439Y31095D01*
X261447Y31103D01*
X261458Y31108D01*
X261466Y31116D01*
X261476Y31160D01*
X261471Y31284D01*
X261466Y31301D01*
X261458Y31352D01*
X261447Y31417D01*
X261441Y31444D01*
X261428Y31479D01*
X261411Y31495D01*
X261406Y31506D01*
X261376Y31552D01*
X261366Y31558D01*
X261338Y31579D01*
X261336Y31582D01*
X261317Y31601D01*
X261252Y31617D01*
X261217Y31625D01*
X261106Y31628D01*
X261089Y31623D01*
X261051Y31612D01*
X261024Y31601D01*
X261014Y31596D01*
X260989Y31577D01*
X260984Y31566D01*
X260959Y31542D01*
X260949Y31536D01*
X260935Y31523D01*
X260930Y31512D01*
X260919Y31485D01*
X260913Y31463D01*
X260908Y31425D01*
X260903Y31241D01*
X260851Y31173D01*
X260835Y31157D01*
X260824Y31152D01*
X260797Y31141D01*
X260759Y31135D01*
X260721Y31141D01*
X260691Y31149D01*
X260626Y31214D01*
X260616Y31241D01*
X260610Y31279D01*
X260616Y31404D01*
X260637Y31441D01*
X260648Y31452D01*
X260662Y31487D01*
X260675Y31506D01*
X260708Y31539D01*
X260713Y31550D01*
X260737Y31585D01*
X260748Y31590D01*
X260800Y31625D01*
X260824Y31650D01*
X260846Y31655D01*
X260894Y31682D01*
X260943Y31704D01*
X261011Y31712D01*
X261033Y31718D01*
X261062Y31726D01*
X261133Y31731D01*
X261149Y31737D01*
X261338Y31731D01*
D02*
G37*
%LPC*%
G36*
X253222Y38776D02*
X253187Y38757D01*
X253181Y38735D01*
X253178Y38088D01*
X253184Y38066D01*
X253197Y38047D01*
X253227Y38039D01*
X253942Y38045D01*
X253958Y38050D01*
X254088Y38055D01*
X254104Y38061D01*
X254131Y38072D01*
X254180Y38093D01*
X254218Y38115D01*
X254240Y38137D01*
X254251Y38142D01*
X254307Y38199D01*
X254313Y38210D01*
X254329Y38248D01*
X254335Y38269D01*
X254356Y38318D01*
X254361Y38340D01*
X254367Y38378D01*
X254361Y38497D01*
X254356Y38513D01*
X254329Y38573D01*
X254315Y38608D01*
X254302Y38627D01*
X254275Y38654D01*
X254270Y38665D01*
X254261Y38673D01*
X254251Y38678D01*
X254221Y38702D01*
X254207Y38716D01*
X254180Y38727D01*
X254142Y38738D01*
X254088Y38759D01*
X254050Y38765D01*
X254048Y38767D01*
X253853Y38773D01*
X253222Y38776D01*
D02*
G37*
G36*
X268340Y38548D02*
X268307Y38543D01*
X268288Y38497D01*
X268269Y38445D01*
X268256Y38410D01*
X268245Y38367D01*
X268229Y38324D01*
X268202Y38264D01*
X268199Y38256D01*
X268196Y38253D01*
X268188Y38212D01*
X268172Y38180D01*
X268153Y38134D01*
X268137Y38074D01*
X268126Y38047D01*
X268120Y38036D01*
X268099Y37988D01*
X268085Y37931D01*
X268074Y37904D01*
X268050Y37847D01*
X268034Y37782D01*
X267996Y37701D01*
X267985Y37663D01*
X267977Y37628D01*
X267958Y37598D01*
X267942Y37560D01*
X267947Y37538D01*
X267961Y37525D01*
X267982Y37519D01*
X268697Y37525D01*
X268705Y37533D01*
X268711Y37555D01*
X268705Y37598D01*
X268689Y37614D01*
X268683Y37625D01*
X268673Y37652D01*
X268667Y37674D01*
X268659Y37709D01*
X268619Y37798D01*
X268610Y37833D01*
X268600Y37861D01*
X268581Y37896D01*
X268570Y37923D01*
X268556Y37985D01*
X268545Y38012D01*
X268537Y38020D01*
X268532Y38031D01*
X268516Y38069D01*
X268507Y38110D01*
X268491Y38153D01*
X268472Y38188D01*
X268461Y38226D01*
X268453Y38261D01*
X268434Y38302D01*
X268413Y38351D01*
X268405Y38386D01*
X268399Y38407D01*
X268375Y38453D01*
X268364Y38491D01*
X268356Y38521D01*
X268340Y38548D01*
D02*
G37*
G36*
X258723D02*
X258701Y38543D01*
X258693Y38535D01*
X258682Y38508D01*
X258674Y38461D01*
X258669Y38440D01*
X258645Y38394D01*
X258628Y38329D01*
X258615Y38294D01*
X258585Y38226D01*
X258577Y38196D01*
X258571Y38175D01*
X258561Y38147D01*
X258536Y38091D01*
X258531Y38069D01*
X258523Y38039D01*
X258512Y38012D01*
X258493Y37977D01*
X258482Y37939D01*
X258477Y37917D01*
X258458Y37866D01*
X258439Y37831D01*
X258428Y37793D01*
X258417Y37750D01*
X258406Y37722D01*
X258379Y37663D01*
X258371Y37628D01*
X258355Y37584D01*
X258347Y37560D01*
X258352Y37533D01*
X258387Y37519D01*
X259067Y37517D01*
X259094Y37527D01*
X259105Y37538D01*
X259110Y37571D01*
X259056Y37685D01*
X259048Y37720D01*
X259043Y37741D01*
X259032Y37768D01*
X259013Y37804D01*
X259002Y37842D01*
X258997Y37863D01*
X258983Y37898D01*
X258975Y37917D01*
X258972Y37920D01*
X258959Y37950D01*
X258948Y37993D01*
X258929Y38045D01*
X258899Y38112D01*
X258891Y38153D01*
X258880Y38180D01*
X258856Y38226D01*
X258845Y38264D01*
X258839Y38286D01*
X258826Y38321D01*
X258807Y38356D01*
X258796Y38383D01*
X258788Y38413D01*
X258783Y38435D01*
X258764Y38481D01*
X258750Y38516D01*
X258737Y38535D01*
X258723Y38548D01*
D02*
G37*
G36*
X250834Y38543D02*
X250801Y38537D01*
X250793Y38529D01*
X250782Y38486D01*
X250774Y38440D01*
X250763Y38413D01*
X250734Y38345D01*
X250728Y38313D01*
X250718Y38286D01*
X250685Y38215D01*
X250677Y38180D01*
X250671Y38158D01*
X250655Y38115D01*
X250647Y38107D01*
X250636Y38080D01*
X250628Y38050D01*
X250617Y38007D01*
X250606Y37980D01*
X250598Y37971D01*
X250582Y37934D01*
X250574Y37898D01*
X250569Y37877D01*
X250558Y37850D01*
X250528Y37787D01*
X250520Y37752D01*
X250509Y37709D01*
X250479Y37647D01*
X250460Y37595D01*
X250452Y37565D01*
X250457Y37538D01*
X250471Y37525D01*
X250493Y37519D01*
X250582Y37522D01*
X251180Y37519D01*
X251210Y37544D01*
X251205Y37598D01*
X251156Y37701D01*
X251151Y37722D01*
X251140Y37771D01*
X251113Y37809D01*
X251105Y37839D01*
X251099Y37861D01*
X251094Y37888D01*
X251080Y37923D01*
X251059Y37961D01*
X251048Y37999D01*
X251037Y38042D01*
X251013Y38088D01*
X251010Y38091D01*
X250999Y38128D01*
X250994Y38150D01*
X250986Y38180D01*
X250977Y38199D01*
X250945Y38269D01*
X250937Y38310D01*
X250921Y38353D01*
X250912Y38361D01*
X250896Y38399D01*
X250885Y38437D01*
X250877Y38467D01*
X250872Y38489D01*
X250845Y38532D01*
X250834Y38543D01*
D02*
G37*
G36*
X238781Y38776D02*
X238689Y38770D01*
X238675Y38757D01*
X238670Y38735D01*
X238675Y38123D01*
X238694Y38104D01*
X239474Y38110D01*
X239490Y38115D01*
X239522Y38120D01*
X239560Y38137D01*
X239604Y38147D01*
X239639Y38161D01*
X239666Y38188D01*
X239669Y38191D01*
X239680Y38196D01*
X239709Y38221D01*
X239726Y38237D01*
X239731Y38248D01*
X239758Y38275D01*
X239769Y38302D01*
X239777Y38337D01*
X239796Y38399D01*
X239801Y38421D01*
X239796Y38497D01*
X239790Y38513D01*
X239769Y38589D01*
X239747Y38627D01*
X239731Y38643D01*
X239726Y38654D01*
X239696Y38684D01*
X239685Y38689D01*
X239655Y38713D01*
X239647Y38721D01*
X239609Y38732D01*
X239558Y38751D01*
X239528Y38759D01*
X239490Y38765D01*
X239468Y38770D01*
X238781Y38776D01*
D02*
G37*
G36*
X238705Y37628D02*
X238675Y37603D01*
X238670Y37582D01*
X238675Y36878D01*
X238689Y36864D01*
X238710Y36859D01*
X239539Y36864D01*
X239555Y36870D01*
X239606Y36878D01*
X239669Y36897D01*
X239690Y36902D01*
X239726Y36916D01*
X239734Y36924D01*
X239744Y36929D01*
X239761Y36945D01*
X239772Y36951D01*
X239807Y36975D01*
X239812Y36986D01*
X239823Y36997D01*
X239828Y37008D01*
X239855Y37035D01*
X239861Y37046D01*
X239872Y37073D01*
X239877Y37094D01*
X239904Y37181D01*
X239910Y37219D01*
Y37224D01*
X239904Y37300D01*
X239888Y37338D01*
X239877Y37376D01*
X239872Y37398D01*
X239850Y37436D01*
X239834Y37452D01*
X239828Y37462D01*
X239818Y37473D01*
X239812Y37484D01*
X239777Y37519D01*
X239766Y37525D01*
X239717Y37552D01*
X239685Y37573D01*
X239647Y37584D01*
X239625Y37590D01*
X239574Y37598D01*
X239477Y37614D01*
X239384Y37620D01*
X239244Y37625D01*
X238705Y37628D01*
D02*
G37*
G36*
X242116Y38548D02*
X242097Y38529D01*
X242073Y38461D01*
X242059Y38426D01*
X242048Y38389D01*
X242040Y38359D01*
X242005Y38280D01*
X241994Y38237D01*
X241981Y38202D01*
X241951Y38134D01*
X241935Y38074D01*
X241908Y38015D01*
X241897Y37977D01*
X241891Y37955D01*
X241878Y37920D01*
X241848Y37852D01*
X241835Y37796D01*
X241824Y37768D01*
X241816Y37760D01*
X241799Y37722D01*
X241783Y37663D01*
X241778Y37641D01*
X241767Y37614D01*
X241745Y37582D01*
X241742Y37552D01*
X241751Y37533D01*
X241759Y37525D01*
X241780Y37519D01*
X242490Y37525D01*
X242503Y37533D01*
X242509Y37555D01*
X242503Y37587D01*
X242482Y37620D01*
X242471Y37647D01*
X242463Y37687D01*
X242452Y37714D01*
X242422Y37782D01*
X242414Y37817D01*
X242398Y37861D01*
X242384Y37880D01*
Y37885D01*
X242373Y37912D01*
X242368Y37934D01*
X242360Y37969D01*
X242349Y37996D01*
X242319Y38053D01*
X242306Y38110D01*
X242295Y38137D01*
X242276Y38172D01*
X242265Y38210D01*
X242260Y38231D01*
X242241Y38283D01*
X242233Y38291D01*
X242222Y38318D01*
X242211Y38356D01*
X242206Y38378D01*
X242173Y38448D01*
X242168Y38470D01*
X242154Y38526D01*
X242141Y38545D01*
X242116Y38548D01*
D02*
G37*
G36*
X268015Y35289D02*
X267874Y35283D01*
X267858Y35278D01*
X267733Y35234D01*
X267722Y35224D01*
X267712Y35218D01*
X267695Y35202D01*
X267684Y35196D01*
X267636Y35159D01*
X267622Y35140D01*
X267595Y35113D01*
X267590Y35102D01*
X267579Y35091D01*
X267546Y35031D01*
X267525Y34983D01*
X267503Y34896D01*
X267490Y34834D01*
X267481Y34804D01*
X267476Y34701D01*
X267481Y34544D01*
X267487Y34528D01*
X267492Y34495D01*
X267498Y34479D01*
X267509Y34452D01*
X267530Y34349D01*
X267541Y34338D01*
X267546Y34327D01*
X267557Y34317D01*
X267574Y34279D01*
X267579Y34268D01*
X267603Y34238D01*
X267617Y34225D01*
X267622Y34214D01*
X267652Y34184D01*
X267663Y34179D01*
X267695Y34146D01*
X267733Y34124D01*
X267750Y34108D01*
X267760Y34103D01*
X267766D01*
X267831Y34086D01*
X267901Y34065D01*
X267955Y34059D01*
X268036Y34065D01*
X268064Y34076D01*
X268093Y34084D01*
X268158Y34100D01*
X268202Y34127D01*
X268210Y34135D01*
X268248Y34157D01*
X268275Y34184D01*
X268286Y34189D01*
X268305Y34208D01*
X268310Y34219D01*
X268321Y34230D01*
X268326Y34241D01*
X268353Y34268D01*
X268359Y34290D01*
X268380Y34327D01*
X268402Y34360D01*
X268410Y34406D01*
X268416Y34433D01*
X268426Y34476D01*
X268432Y34503D01*
X268437Y34525D01*
X268443Y34557D01*
X268451Y34631D01*
X268445Y34815D01*
X268440Y34831D01*
X268424Y34890D01*
X268418Y34912D01*
X268413Y34950D01*
X268407Y34972D01*
X268399Y35002D01*
X268345Y35094D01*
X268332Y35113D01*
X268310Y35134D01*
X268305Y35145D01*
X268288Y35161D01*
X268283Y35172D01*
X268188Y35240D01*
X268166Y35245D01*
X268099Y35270D01*
X268069Y35283D01*
X268015Y35289D01*
D02*
G37*
G36*
X264652D02*
X264490Y35283D01*
X264430Y35256D01*
X264392Y35245D01*
X264354Y35224D01*
X264317Y35196D01*
X264306Y35191D01*
X264295Y35180D01*
X264284Y35175D01*
X264279Y35164D01*
X264268Y35159D01*
X264254Y35145D01*
X264249Y35134D01*
X264233Y35118D01*
X264227Y35107D01*
X264211Y35091D01*
X264205Y35080D01*
X264146Y34955D01*
X264132Y34877D01*
X264127Y34855D01*
X264122Y34823D01*
X264116Y34769D01*
X264111Y34698D01*
X264108Y34620D01*
X264114Y34604D01*
X264122Y34547D01*
X264132Y34476D01*
X264138Y34449D01*
X264143Y34417D01*
X264149Y34390D01*
X264160Y34363D01*
X264184Y34322D01*
X264216Y34262D01*
X264233Y34246D01*
X264238Y34235D01*
X264262Y34206D01*
X264273Y34195D01*
X264284Y34189D01*
X264303Y34170D01*
X264308Y34160D01*
X264354Y34130D01*
X264392Y34103D01*
X264422Y34095D01*
X264465Y34084D01*
X264528Y34065D01*
X264582Y34059D01*
X264671Y34067D01*
X264693Y34073D01*
X264739Y34086D01*
X264782Y34097D01*
X264820Y34119D01*
X264853Y34141D01*
X264863Y34146D01*
X264893Y34170D01*
X264969Y34246D01*
X264974Y34257D01*
X265002Y34306D01*
X265023Y34338D01*
X265031Y34368D01*
X265037Y34400D01*
X265042Y34422D01*
X265058Y34465D01*
X265067Y34490D01*
X265072Y34511D01*
X265077Y34582D01*
X265072Y34847D01*
X265067Y34864D01*
X265061Y34896D01*
X265050Y34923D01*
X265039Y34961D01*
X265029Y35004D01*
Y35010D01*
X265007Y35048D01*
X264996Y35058D01*
X264991Y35069D01*
X264964Y35118D01*
X264920Y35161D01*
X264915Y35172D01*
X264901Y35186D01*
X264874Y35202D01*
X264844Y35226D01*
X264777Y35256D01*
X264690Y35283D01*
X264652Y35289D01*
D02*
G37*
G36*
X252263D02*
X252090Y35283D01*
X252031Y35256D01*
X251993Y35245D01*
X251957Y35232D01*
X251938Y35213D01*
X251928Y35207D01*
X251917Y35196D01*
X251890Y35180D01*
X251828Y35118D01*
X251806Y35080D01*
X251790Y35064D01*
X251784Y35053D01*
X251768Y35015D01*
X251760Y34980D01*
X251749Y34953D01*
X251725Y34896D01*
X251719Y34815D01*
X251714Y34799D01*
X251719Y34506D01*
X251725Y34490D01*
X251730Y34452D01*
X251741Y34425D01*
X251754Y34390D01*
X251781Y34314D01*
X251790Y34306D01*
X251795Y34295D01*
X251822Y34257D01*
X251828Y34246D01*
X251852Y34216D01*
X251911Y34157D01*
X251922Y34151D01*
X251974Y34116D01*
X251982Y34108D01*
X252009Y34097D01*
X252031Y34092D01*
X252066Y34084D01*
X252087Y34078D01*
X252117Y34070D01*
X252139Y34065D01*
X252150D01*
X252171Y34059D01*
X252269Y34065D01*
X252296Y34076D01*
X252334Y34086D01*
X252377Y34097D01*
X252412Y34111D01*
X252426Y34124D01*
X252437Y34130D01*
X252447Y34141D01*
X252485Y34162D01*
X252529Y34206D01*
X252540Y34211D01*
X252548Y34219D01*
X252569Y34257D01*
X252586Y34273D01*
X252591Y34284D01*
X252607Y34322D01*
X252621Y34357D01*
X252651Y34425D01*
X252659Y34476D01*
X252664Y34530D01*
X252669Y34579D01*
X252672Y34771D01*
X252667Y34788D01*
X252661Y34880D01*
X252656Y34896D01*
X252648Y34947D01*
X252637Y34975D01*
X252607Y35042D01*
X252586Y35080D01*
X252575Y35091D01*
X252569Y35102D01*
X252558Y35113D01*
X252553Y35123D01*
X252545Y35137D01*
X252534Y35142D01*
X252510Y35167D01*
X252504Y35178D01*
X252496Y35186D01*
X252485Y35191D01*
X252437Y35229D01*
X252399Y35245D01*
X252361Y35256D01*
X252323Y35272D01*
X252285Y35283D01*
X252263Y35289D01*
D02*
G37*
G36*
X262974Y31634D02*
X262952Y31628D01*
X262906Y31620D01*
X262879Y31615D01*
X262857Y31609D01*
X262822Y31596D01*
X262792Y31571D01*
X262784Y31563D01*
X262746Y31542D01*
X262684Y31479D01*
X262679Y31468D01*
X262646Y31436D01*
X262641Y31425D01*
X262608Y31365D01*
X262586Y31317D01*
X262581Y31295D01*
X262562Y31244D01*
X262549Y31214D01*
X262543Y31192D01*
X262538Y31154D01*
X262527Y31035D01*
X262521Y30867D01*
X262527Y30851D01*
X262532Y30721D01*
X262538Y30705D01*
X262546Y30643D01*
X262551Y30621D01*
X262581Y30553D01*
X262589Y30518D01*
X262600Y30491D01*
X262614Y30472D01*
X262652Y30402D01*
X262673Y30380D01*
X262679Y30369D01*
X262689Y30358D01*
X262695Y30348D01*
X262784Y30258D01*
X262795Y30253D01*
X262833Y30231D01*
X262855Y30210D01*
X262955Y30174D01*
X262985Y30166D01*
X263055Y30161D01*
X263104Y30166D01*
X263141Y30182D01*
X263179Y30193D01*
X263215Y30207D01*
X263239Y30231D01*
X263250Y30237D01*
X263282Y30258D01*
X263293Y30264D01*
X263312Y30283D01*
X263318Y30293D01*
X263331Y30307D01*
X263342Y30312D01*
X263355Y30326D01*
X263366Y30369D01*
Y30700D01*
Y30705D01*
X263361Y31268D01*
X263355Y31284D01*
X263342Y31319D01*
X263318Y31376D01*
X263309Y31412D01*
X263291Y31441D01*
X263274Y31458D01*
X263269Y31468D01*
X263239Y31509D01*
X263228Y31514D01*
X263201Y31547D01*
X263190Y31552D01*
X263152Y31574D01*
X263131Y31596D01*
X263093Y31607D01*
X263071Y31612D01*
X263012Y31628D01*
X262974Y31634D01*
D02*
G37*
G36*
X259590Y31628D02*
X259476Y31623D01*
X259449Y31612D01*
X259416Y31607D01*
X259365Y31571D01*
X259305Y31533D01*
X259300Y31523D01*
X259286Y31509D01*
X259275Y31504D01*
X259256Y31485D01*
X259235Y31447D01*
X259213Y31425D01*
X259191Y31371D01*
X259170Y31322D01*
X259159Y31295D01*
X259151Y31254D01*
X259148Y31198D01*
X259159Y31187D01*
X259162Y31179D01*
X259189Y31168D01*
X259898Y31173D01*
X259917Y31192D01*
X259923Y31246D01*
X259914Y31282D01*
X259909Y31303D01*
X259895Y31349D01*
X259890Y31371D01*
Y31376D01*
Y31382D01*
X259885Y31398D01*
X259871Y31433D01*
X259858Y31452D01*
X259847Y31463D01*
X259841Y31474D01*
X259817Y31504D01*
X259763Y31558D01*
X259725Y31579D01*
X259709Y31596D01*
X259671Y31607D01*
X259649Y31612D01*
X259590Y31628D01*
D02*
G37*
G36*
X255425Y31948D02*
X255399Y31931D01*
X255385Y31918D01*
X255380Y31907D01*
X255369Y31880D01*
X255358Y31842D01*
X255344Y31807D01*
X255336Y31799D01*
X255309Y31739D01*
X255301Y31709D01*
X255287Y31674D01*
X255266Y31642D01*
X255250Y31588D01*
X255236Y31552D01*
X255228Y31544D01*
X255222Y31533D01*
X255201Y31485D01*
X255193Y31455D01*
X255158Y31387D01*
X255149Y31357D01*
X255133Y31314D01*
X255109Y31274D01*
X255098Y31236D01*
X255087Y31209D01*
X255049Y31127D01*
X255044Y31106D01*
X255030Y31070D01*
X255011Y31051D01*
X255000Y31024D01*
X255006Y30986D01*
X255014Y30978D01*
X255036Y30973D01*
X255098Y30976D01*
X255696Y30973D01*
X255702D01*
X255815Y30978D01*
X255823Y30986D01*
X255829Y31008D01*
X255823Y31046D01*
X255813Y31057D01*
X255807Y31068D01*
X255791Y31095D01*
X255780Y31122D01*
X255772Y31152D01*
X255767Y31173D01*
X255745Y31206D01*
X255732Y31236D01*
X255723Y31271D01*
X255713Y31298D01*
X255677Y31365D01*
X255669Y31401D01*
X255658Y31428D01*
X255634Y31474D01*
X255604Y31558D01*
X255580Y31598D01*
X255569Y31636D01*
X255555Y31672D01*
X255526Y31728D01*
X255518Y31758D01*
X255501Y31801D01*
X255477Y31842D01*
X255469Y31872D01*
X255463Y31899D01*
X255458Y31921D01*
X255445Y31939D01*
X255425Y31948D01*
D02*
G37*
G36*
X250948Y30989D02*
X250907Y30981D01*
X250880Y30970D01*
X250866Y30957D01*
X250856Y30951D01*
X250818Y30935D01*
X250782Y30927D01*
X250769Y30924D01*
X250766Y30922D01*
X250715Y30892D01*
X250663Y30873D01*
X250579Y30827D01*
X250552Y30811D01*
X250531Y30789D01*
X250520Y30784D01*
X250482Y30756D01*
X250468Y30743D01*
X250463Y30732D01*
X250455Y30724D01*
X250444Y30719D01*
X250420Y30694D01*
X250398Y30656D01*
X250387Y30645D01*
X250382Y30635D01*
X250371Y30608D01*
X250366Y30586D01*
X250357Y30534D01*
X250355Y30450D01*
X250360Y30434D01*
X250368Y30394D01*
X250374Y30372D01*
X250384Y30345D01*
X250398Y30331D01*
X250403Y30320D01*
X250414Y30310D01*
X250436Y30272D01*
X250444Y30264D01*
X250455Y30258D01*
X250525Y30210D01*
X250563Y30199D01*
X250634Y30193D01*
X250650Y30199D01*
X250709Y30204D01*
X250747Y30226D01*
X250796Y30247D01*
X250823Y30258D01*
X250845Y30280D01*
X250856Y30285D01*
X250904Y30312D01*
X250931Y30340D01*
X250942Y30345D01*
X250953Y30356D01*
X250964Y30361D01*
X250983Y30380D01*
X250988Y30418D01*
X250986Y30507D01*
X250988Y30830D01*
X250983Y30846D01*
X250988Y30954D01*
X250972Y30981D01*
X250948Y30989D01*
D02*
G37*
G36*
X261428Y30986D02*
X261395Y30981D01*
X261341Y30949D01*
X261311Y30940D01*
X261260Y30922D01*
X261160Y30875D01*
X261122Y30854D01*
X261111Y30843D01*
X261073Y30827D01*
X261035Y30805D01*
X261014Y30784D01*
X261003Y30778D01*
X260973Y30754D01*
X260938Y30719D01*
X260927Y30713D01*
X260905Y30681D01*
X260892Y30662D01*
X260881Y30651D01*
X260870Y30624D01*
X260859Y30580D01*
X260843Y30526D01*
X260848Y30440D01*
X260854Y30423D01*
X260859Y30402D01*
X260873Y30345D01*
X260886Y30326D01*
X260919Y30293D01*
X260924Y30283D01*
X260943Y30258D01*
X260954Y30253D01*
X261019Y30210D01*
X261062Y30199D01*
X261100Y30193D01*
X261154Y30199D01*
X261160D01*
X261181Y30204D01*
X261214Y30210D01*
X261252Y30237D01*
X261287Y30250D01*
X261314Y30261D01*
X261322Y30269D01*
X261333Y30275D01*
X261344Y30285D01*
X261403Y30318D01*
X261436Y30350D01*
X261447Y30356D01*
X261471Y30380D01*
X261476Y30402D01*
X261474Y30859D01*
X261479Y30913D01*
X261482Y30949D01*
X261466Y30976D01*
X261458Y30984D01*
X261428Y30986D01*
D02*
G37*
%LPD*%
D17*
X313310Y86000D02*
D03*
X392810D02*
D03*
X313310Y41000D02*
D03*
X392810D02*
D03*
X395350Y168000D02*
D03*
X315850D02*
D03*
X395350Y213000D02*
D03*
X315850D02*
D03*
D20*
X62900Y63400D02*
D03*
Y53400D02*
D03*
Y48400D02*
D03*
Y58400D02*
D03*
Y215600D02*
D03*
Y205600D02*
D03*
Y195600D02*
D03*
Y185600D02*
D03*
Y180600D02*
D03*
Y210600D02*
D03*
Y200600D02*
D03*
Y190600D02*
D03*
Y73400D02*
D03*
Y68400D02*
D03*
Y43400D02*
D03*
Y38400D02*
D03*
D23*
X200925Y200395D02*
D03*
Y195395D02*
D03*
Y190395D02*
D03*
Y185395D02*
D03*
Y180395D02*
D03*
X162615D02*
D03*
Y185395D02*
D03*
Y190395D02*
D03*
Y195395D02*
D03*
Y200395D02*
D03*
D24*
X191770Y171240D02*
D03*
X186770D02*
D03*
X176770D02*
D03*
X171770D02*
D03*
Y209550D02*
D03*
X176770D02*
D03*
X186770D02*
D03*
X181770D02*
D03*
Y171240D02*
D03*
D25*
X191770Y209550D02*
D03*
D28*
X62900Y23900D02*
D03*
Y87900D02*
D03*
Y166100D02*
D03*
Y230100D02*
D03*
Y174100D02*
D03*
Y222100D02*
D03*
Y79900D02*
D03*
Y31900D02*
D03*
D36*
X272435Y178700D02*
D03*
Y215240D02*
D03*
D37*
Y159700D02*
D03*
X291446Y169200D02*
D03*
X272435Y196240D02*
D03*
X291446Y205740D02*
D03*
D38*
X178056Y121158D02*
D03*
X169416D02*
D03*
X157482Y120904D02*
D03*
X148842D02*
D03*
X235460Y216916D02*
D03*
X226820D02*
D03*
X137023Y189505D02*
D03*
X128383D02*
D03*
Y204866D02*
D03*
X137023D02*
D03*
X226820Y168910D02*
D03*
X235460D02*
D03*
X226820Y139700D02*
D03*
X235460D02*
D03*
Y154432D02*
D03*
X226820D02*
D03*
X485900Y202692D02*
D03*
X494540D02*
D03*
X485900Y216408D02*
D03*
X494540D02*
D03*
X512316Y38608D02*
D03*
X520956D02*
D03*
X537713Y38487D02*
D03*
X546353D02*
D03*
X375670Y128270D02*
D03*
X367030D02*
D03*
X344930D02*
D03*
X353570D02*
D03*
X375670Y107953D02*
D03*
X367030D02*
D03*
X344930Y107953D02*
D03*
X353570D02*
D03*
D39*
X135128Y146560D02*
D03*
Y137920D02*
D03*
X455621Y51152D02*
D03*
Y42512D02*
D03*
X455620Y217731D02*
D03*
Y209091D02*
D03*
X419084Y79250D02*
D03*
Y70610D02*
D03*
X252730Y156970D02*
D03*
Y165610D02*
D03*
Y215140D02*
D03*
Y206500D02*
D03*
X102864Y60196D02*
D03*
Y68836D02*
D03*
X102870Y33780D02*
D03*
Y42420D02*
D03*
X104140Y189740D02*
D03*
Y181100D02*
D03*
Y215140D02*
D03*
Y206500D02*
D03*
D40*
X85790Y55671D02*
D03*
Y35712D02*
D03*
Y62171D02*
D03*
Y183850D02*
D03*
Y211956D02*
D03*
Y42212D02*
D03*
Y205456D02*
D03*
Y190350D02*
D03*
D41*
X530560Y127000D02*
D03*
X670560Y76000D02*
D03*
Y67500D02*
D03*
Y93000D02*
D03*
Y84500D02*
D03*
Y110000D02*
D03*
Y101500D02*
D03*
Y127000D02*
D03*
Y118500D02*
D03*
Y161000D02*
D03*
Y135500D02*
D03*
Y152500D02*
D03*
Y144000D02*
D03*
Y169500D02*
D03*
Y178000D02*
D03*
Y186500D02*
D03*
X530560Y118500D02*
D03*
Y186500D02*
D03*
Y178000D02*
D03*
Y169500D02*
D03*
Y161000D02*
D03*
Y152500D02*
D03*
Y144000D02*
D03*
Y135500D02*
D03*
Y110000D02*
D03*
Y101500D02*
D03*
Y93000D02*
D03*
Y84500D02*
D03*
Y76000D02*
D03*
Y67500D02*
D03*
D42*
X181770Y190395D02*
D03*
D43*
X665298Y222263D02*
D03*
X673938D02*
D03*
X641715D02*
D03*
X673940Y35560D02*
D03*
X625877Y222263D02*
D03*
X116080Y93980D02*
D03*
X178310Y136144D02*
D03*
X114810Y160020D02*
D03*
X178310Y151130D02*
D03*
X128129Y174595D02*
D03*
X128467Y219852D02*
D03*
X235460Y201930D02*
D03*
X665300Y35560D02*
D03*
X617237Y222263D02*
D03*
X650355D02*
D03*
X137107Y219852D02*
D03*
X107440Y93980D02*
D03*
X106170Y160020D02*
D03*
X136769Y174595D02*
D03*
X169670Y151130D02*
D03*
Y136144D02*
D03*
X226820Y201930D02*
D03*
D44*
X643060Y197000D02*
D03*
X634560Y57000D02*
D03*
X643060D02*
D03*
X651560Y197000D02*
D03*
X660060D02*
D03*
X634560D02*
D03*
X626060D02*
D03*
X617560D02*
D03*
X609060D02*
D03*
X600560D02*
D03*
X592060D02*
D03*
X583560D02*
D03*
X575060D02*
D03*
X566560D02*
D03*
X558060D02*
D03*
X549560D02*
D03*
X541060D02*
D03*
Y57000D02*
D03*
X549560D02*
D03*
X558060D02*
D03*
X566560D02*
D03*
X575060D02*
D03*
X583560D02*
D03*
X592060D02*
D03*
X600560D02*
D03*
X609060D02*
D03*
X617560D02*
D03*
X626060D02*
D03*
X651560D02*
D03*
X660060D02*
D03*
D45*
X83110Y93980D02*
D03*
Y160020D02*
D03*
X89610Y93980D02*
D03*
Y160020D02*
D03*
D46*
X131871Y59436D02*
D03*
X146857Y59130D02*
D03*
X146050Y88390D02*
D03*
X149860Y137920D02*
D03*
X419100Y47750D02*
D03*
X420370Y169670D02*
D03*
Y178310D02*
D03*
X149860Y146560D02*
D03*
X131871Y50796D02*
D03*
X146857Y50490D02*
D03*
X146050Y97030D02*
D03*
X419100Y56390D02*
D03*
D47*
X169120Y73660D02*
D03*
Y96660D02*
D03*
Y50660D02*
D03*
D48*
X227120Y73660D02*
D03*
D49*
X440000Y45250D02*
D03*
X439420Y215570D02*
D03*
Y206070D02*
D03*
X440000Y54750D02*
D03*
D50*
X530560Y57000D02*
D03*
X670560D02*
D03*
X530560Y197000D02*
D03*
X670560D02*
D03*
D51*
X584060Y110500D02*
D03*
Y127000D02*
D03*
X600560Y110500D02*
D03*
Y127000D02*
D03*
X617060Y110500D02*
D03*
Y127000D02*
D03*
X584060Y143500D02*
D03*
X600560D02*
D03*
D52*
X265580Y119677D02*
D03*
X95250Y114300D02*
D03*
Y127000D02*
D03*
D53*
X647700Y241300D02*
D03*
X88900Y12700D02*
D03*
X114300Y241300D02*
D03*
X647700Y12700D02*
D03*
X622300Y241300D02*
D03*
X571500D02*
D03*
X139700D02*
D03*
X88900D02*
D03*
X546100D02*
D03*
X368300D02*
D03*
X469900D02*
D03*
X292100D02*
D03*
X215900D02*
D03*
X393700D02*
D03*
X317500D02*
D03*
X495300D02*
D03*
X419100D02*
D03*
X241300D02*
D03*
X596900D02*
D03*
X342900D02*
D03*
X165100D02*
D03*
X520700D02*
D03*
X266700D02*
D03*
X444500D02*
D03*
X190500D02*
D03*
X165100Y12700D02*
D03*
X190500D02*
D03*
X393700D02*
D03*
X114300D02*
D03*
X520700D02*
D03*
X495300D02*
D03*
X266700D02*
D03*
X419100D02*
D03*
X546100D02*
D03*
X342900D02*
D03*
X139700D02*
D03*
X571500D02*
D03*
X444500D02*
D03*
X292100D02*
D03*
X368300D02*
D03*
X215900D02*
D03*
X596900D02*
D03*
X317500D02*
D03*
X469900D02*
D03*
X241300D02*
D03*
X622300D02*
D03*
D54*
X673100D02*
D03*
Y241300D02*
D03*
D55*
X17150Y12700D02*
D03*
Y99100D02*
D03*
Y154900D02*
D03*
Y241300D02*
D03*
D56*
X57150Y12700D02*
D03*
Y99100D02*
D03*
Y154900D02*
D03*
Y241300D02*
D03*
D57*
X95250Y139700D02*
D03*
D58*
X252880Y119677D02*
D03*
M02*
