M48
;Layer_Color=9474304
;FILE_FORMAT=2:5
INCH,LZ
;TYPE=PLATED
T01F00S00C0.01200
T03F00S00C0.02800
T04F00S00C0.04000
%
T01
X0045988Y0015464
X0047Y00185
Y00225
X0045354Y0025244
X00515Y0029
X0055
X00585
X0058Y00155
X00643Y00125
X00675
X00725
X0076
X0074007Y00476
X0074033Y0053756
Y0059656
X0074Y00725
Y0077
X0069
Y00725
X00614Y00653
X0062832Y0054456
X00535Y005
X0045701Y0040992
X00293Y00414
X0028Y0058
X0030801Y0078
X00365
X0046Y00805
Y0084
X0046156Y0074608
X0046Y0071
Y00675
X00644Y00858
X0077807Y008567
X00848Y0079627
X0085659Y0070459
X0095856Y00781
X00965Y0055
X00969Y00327
X01027
X01084Y00326
X01085Y0026
X01028Y00261
X0097
X01235Y00292
X0121Y0042
X0123Y00445
Y00485
X0121Y0051
X01525Y00505
X0156
Y00425
X01525Y0042501
X01625Y00445
X0165894Y0047288
X0175
X017Y0054
X0174Y0058
X0174079Y0062098
X017Y0066
X0169991Y0070591
X01745Y00699
X0176062Y0072938
X01815Y00765
X01869Y0071432
X01933Y0074
X0213052Y0071941
X0219752Y0071841
X0226414Y00715
X0233107
X02398
X02431Y00681
X02364Y00678
X0229707
X0223014
X0216352Y0068141
X022409Y0056426
Y004993
Y0043433
X02333Y00467
X02396
X02398Y00533
X0233
X02365Y0061
X0248792Y0056567
Y005007
Y0043574
X0246521Y00322
X0239828
X0233135
X0226443
X0219657Y0032263
X02165Y00355
X0213Y00375
X02025Y00372
X01985Y0037
X0194Y0036
X0190659Y0033841
X01875Y00403
X0183
X01753Y00313
X0169Y0031
X017Y0026
X0179378Y0024378
X0203018Y00237
X0223042Y00285
X0229735
X0236428
X02365Y00385
X0249814Y00285
X02465Y0072
X02492Y00835
X0161Y00833
X0143992Y0084439
X0155Y00292
X0217841Y0011659
X0253161Y00285
X02584Y0028
X0258145Y0033276
X02579Y0036561
Y0039961
X0257945Y0043276
X02581Y0046561
Y0049961
X0258145Y0053276
X02581Y0056661
Y0060061
X0258145Y0063376
X02582Y0066661
Y0070061
X02543Y00839
X02665Y0018
T03
X00375Y0045
Y005
Y0055
X0099559Y0047117
X0104559
T04
X0035Y0005
X0045
X0055
X0065
X0075
X0085
X0095
X0105
X0115
X0125
X0135
X0145
X0155
X0165
X0175
X0185
X0195
X0205
X0215
X0225
X0235
X0245
X0255
X0265
Y0095
X0255
X0245
X0235
X0225
X0215
X0205
X0195
X0185
X0175
X0165
X0155
X0145
X0135
X0125
X0115
X0105
X0095
X0085
X0075
X0065
X0055
X0045
X0035
M30
